# Blender 4.0.2
# www.blender.org
mtllib whirlpool.mtl
o Cube
v 1.000000 1.000000 -1.000000
v 1.000000 1.000000 1.000000
v -1.000000 1.000000 -1.000000
v -1.000000 1.000000 1.000000
v -0.000000 1.000000 -0.900000
v -0.175581 1.000000 -0.882707
v -0.344415 1.000000 -0.831492
v -0.500013 1.000000 -0.748323
v -0.636396 1.000000 -0.636396
v -0.748323 1.000000 -0.500013
v -0.831492 1.000000 -0.344415
v -0.882707 1.000000 -0.175581
v -0.900000 1.000000 -0.000000
v -0.882707 1.000000 0.175581
v -0.831492 1.000000 0.344415
v -0.748323 1.000000 0.500013
v -0.636396 1.000000 0.636396
v -0.500013 1.000000 0.748323
v -0.344415 1.000000 0.831492
v -0.175581 1.000000 0.882707
v -0.000000 1.000000 0.900000
v 0.175581 1.000000 0.882707
v 0.344415 1.000000 0.831492
v 0.500013 1.000000 0.748323
v 0.636396 1.000000 0.636396
v 0.748323 1.000000 0.500013
v 0.831492 1.000000 0.344415
v 0.882707 1.000000 0.175581
v 0.900000 1.000000 -0.000000
v 0.882707 1.000000 -0.175581
v 0.831492 1.000000 -0.344415
v 0.748323 1.000000 -0.500013
v 0.636396 1.000000 -0.636396
v 0.500013 1.000000 -0.748323
v 0.344415 1.000000 -0.831492
v 0.175581 1.000000 -0.882707
v -0.000000 0.911628 -0.707586
v -0.138043 0.911628 -0.693990
v -0.270781 0.911628 -0.653724
v -0.393114 0.911628 -0.588336
v -0.500339 0.911628 -0.500339
v -0.588336 0.911628 -0.393114
v -0.653724 0.911628 -0.270781
v -0.693990 0.911628 -0.138043
v -0.707586 0.911628 0.000000
v -0.693990 0.911628 0.138043
v -0.653724 0.911628 0.270781
v -0.588336 0.911628 0.393114
v -0.500339 0.911628 0.500339
v -0.393114 0.911628 0.588336
v -0.270781 0.911628 0.653724
v -0.138043 0.911628 0.693990
v -0.000000 0.911628 0.707586
v 0.138043 0.911628 0.693990
v 0.270781 0.911628 0.653724
v 0.393114 0.911628 0.588336
v 0.500339 0.911628 0.500339
v 0.588336 0.911628 0.393114
v 0.653724 0.911628 0.270781
v 0.693990 0.911628 0.138043
v 0.707586 0.911628 0.000000
v 0.693990 0.911628 -0.138043
v 0.653724 0.911628 -0.270781
v 0.588336 0.911628 -0.393114
v 0.500339 0.911628 -0.500339
v 0.393114 0.911628 -0.588336
v 0.270781 0.911628 -0.653724
v 0.138043 0.911628 -0.693990
v -0.000000 0.717794 -0.507690
v -0.099045 0.717794 -0.497935
v -0.194285 0.717794 -0.469045
v -0.282058 0.717794 -0.422129
v -0.358991 0.717794 -0.358991
v -0.422129 0.717794 -0.282058
v -0.469045 0.717794 -0.194285
v -0.497935 0.717794 -0.099045
v -0.507690 0.717794 0.000000
v -0.497935 0.717794 0.099045
v -0.469045 0.717794 0.194285
v -0.422129 0.717794 0.282058
v -0.358991 0.717794 0.358991
v -0.282058 0.717794 0.422129
v -0.194285 0.717794 0.469045
v -0.099045 0.717794 0.497935
v -0.000000 0.717794 0.507690
v 0.099045 0.717794 0.497935
v 0.194285 0.717794 0.469045
v 0.282058 0.717794 0.422129
v 0.358991 0.717794 0.358991
v 0.422129 0.717794 0.282058
v 0.469045 0.717794 0.194285
v 0.497935 0.717794 0.099045
v 0.507690 0.717794 0.000000
v 0.497935 0.717794 -0.099045
v 0.469045 0.717794 -0.194285
v 0.422129 0.717794 -0.282058
v 0.358991 0.717794 -0.358991
v 0.282058 0.717794 -0.422129
v 0.194285 0.717794 -0.469045
v 0.099045 0.717794 -0.497935
v -0.000000 0.584308 -0.366545
v -0.071509 0.584308 -0.359502
v -0.140271 0.584308 -0.338643
v -0.203642 0.584308 -0.304771
v -0.259187 0.584308 -0.259187
v -0.304771 0.584308 -0.203642
v -0.338644 0.584308 -0.140271
v -0.359502 0.584308 -0.071509
v -0.366545 0.584308 0.000000
v -0.359502 0.584308 0.071509
v -0.338644 0.584308 0.140271
v -0.304771 0.584308 0.203642
v -0.259187 0.584308 0.259187
v -0.203642 0.584308 0.304771
v -0.140271 0.584308 0.338644
v -0.071509 0.584308 0.359502
v -0.000000 0.584308 0.366545
v 0.071509 0.584308 0.359502
v 0.140271 0.584308 0.338644
v 0.203642 0.584308 0.304771
v 0.259187 0.584308 0.259187
v 0.304771 0.584308 0.203642
v 0.338644 0.584308 0.140271
v 0.359502 0.584308 0.071509
v 0.366545 0.584308 0.000000
v 0.359502 0.584308 -0.071509
v 0.338644 0.584308 -0.140271
v 0.304771 0.584308 -0.203642
v 0.259187 0.584308 -0.259187
v 0.203642 0.584308 -0.304771
v 0.140271 0.584308 -0.338643
v 0.071509 0.584308 -0.359502
v -0.000000 -0.027673 -0.097918
v -0.019103 -0.027673 -0.096036
v -0.037471 -0.027673 -0.090464
v -0.054400 -0.027673 -0.081416
v -0.069238 -0.027673 -0.069238
v -0.081416 -0.027673 -0.054400
v -0.090464 -0.027673 -0.037472
v -0.096036 -0.027673 -0.019103
v -0.097918 -0.027673 0.000000
v -0.096036 -0.027673 0.019103
v -0.090464 -0.027673 0.037471
v -0.081416 -0.027673 0.054400
v -0.069238 -0.027673 0.069238
v -0.054400 -0.027673 0.081416
v -0.037471 -0.027673 0.090464
v -0.019103 -0.027673 0.096036
v -0.000000 -0.027673 0.097918
v 0.019103 -0.027673 0.096036
v 0.037471 -0.027673 0.090464
v 0.054400 -0.027673 0.081416
v 0.069238 -0.027673 0.069238
v 0.081416 -0.027673 0.054400
v 0.090464 -0.027673 0.037471
v 0.096036 -0.027673 0.019103
v 0.097918 -0.027673 0.000000
v 0.096036 -0.027673 -0.019103
v 0.090464 -0.027673 -0.037472
v 0.081416 -0.027673 -0.054400
v 0.069238 -0.027673 -0.069238
v 0.054400 -0.027673 -0.081416
v 0.037471 -0.027673 -0.090464
v 0.019103 -0.027673 -0.096036
v -0.000000 -0.385414 0.000000
vn -0.0000 1.0000 -0.0000
vn -0.4010 0.9080 -0.1216
vn 0.4010 0.9080 -0.1216
vn -0.4170 0.9080 -0.0411
vn 0.3696 0.9080 -0.1975
vn -0.4170 0.9080 0.0411
vn 0.3239 0.9080 -0.2658
vn -0.4010 0.9080 0.1216
vn 0.2658 0.9080 -0.3239
vn -0.3696 0.9080 0.1975
vn 0.1975 0.9080 -0.3696
vn 0.0411 0.9080 0.4170
vn -0.3239 0.9080 0.2658
vn 0.1216 0.9080 -0.4010
vn 0.1216 0.9080 0.4010
vn -0.2658 0.9080 0.3239
vn 0.0411 0.9080 -0.4170
vn 0.1975 0.9080 0.3696
vn -0.1975 0.9080 0.3696
vn -0.0411 0.9080 -0.4170
vn 0.2658 0.9080 0.3239
vn -0.1216 0.9080 0.4010
vn -0.1216 0.9080 -0.4010
vn 0.3239 0.9080 0.2658
vn -0.0411 0.9080 0.4170
vn -0.1975 0.9080 -0.3696
vn 0.3696 0.9080 0.1975
vn -0.2658 0.9080 -0.3239
vn 0.4010 0.9080 0.1216
vn -0.3239 0.9080 -0.2658
vn 0.4170 0.9080 0.0411
vn -0.3696 0.9080 -0.1975
vn 0.4170 0.9080 -0.0411
vn 0.6678 0.7162 -0.2026
vn -0.6945 0.7162 -0.0684
vn 0.6155 0.7162 -0.3290
vn -0.6945 0.7162 0.0684
vn 0.5395 0.7162 -0.4427
vn -0.6678 0.7162 0.2026
vn 0.4427 0.7162 -0.5395
vn -0.6155 0.7162 0.3290
vn 0.3290 0.7162 -0.6155
vn 0.0684 0.7162 0.6945
vn -0.5395 0.7162 0.4427
vn 0.2026 0.7162 -0.6678
vn 0.2026 0.7162 0.6678
vn -0.4427 0.7162 0.5395
vn 0.0684 0.7162 -0.6945
vn 0.3290 0.7162 0.6155
vn -0.3290 0.7162 0.6155
vn -0.0684 0.7162 -0.6945
vn 0.4427 0.7162 0.5395
vn -0.2026 0.7162 0.6678
vn -0.2026 0.7162 -0.6678
vn 0.5395 0.7162 0.4427
vn -0.0684 0.7162 0.6945
vn -0.3290 0.7162 -0.6155
vn 0.6155 0.7162 0.3290
vn -0.4427 0.7162 -0.5395
vn 0.6678 0.7162 0.2026
vn -0.5395 0.7162 -0.4427
vn 0.6945 0.7162 0.0684
vn -0.6155 0.7162 -0.3290
vn 0.6945 0.7162 -0.0684
vn -0.6678 0.7162 -0.2026
vn -0.6592 0.7249 -0.2000
vn 0.6592 0.7249 -0.2000
vn -0.6855 0.7249 -0.0675
vn 0.6075 0.7249 -0.3247
vn -0.6855 0.7249 0.0675
vn 0.5325 0.7249 -0.4370
vn -0.6592 0.7249 0.2000
vn 0.4370 0.7249 -0.5325
vn -0.6075 0.7249 0.3247
vn 0.3247 0.7249 -0.6075
vn 0.0675 0.7249 0.6855
vn -0.5325 0.7249 0.4370
vn 0.2000 0.7249 -0.6592
vn 0.2000 0.7249 0.6592
vn -0.4370 0.7249 0.5325
vn 0.0675 0.7249 -0.6855
vn 0.3247 0.7249 0.6075
vn -0.3247 0.7249 0.6075
vn -0.0675 0.7249 -0.6855
vn 0.4370 0.7249 0.5325
vn -0.2000 0.7249 0.6592
vn -0.2000 0.7249 -0.6592
vn 0.5325 0.7249 0.4370
vn -0.0675 0.7249 0.6855
vn -0.3247 0.7249 -0.6075
vn 0.6075 0.7249 0.3247
vn -0.4370 0.7249 -0.5325
vn 0.6592 0.7249 0.2000
vn -0.5325 0.7249 -0.4370
vn 0.6855 0.7249 0.0675
vn -0.6075 0.7249 -0.3247
vn 0.6855 0.7249 -0.0675
vn -0.8769 0.4003 0.2660
vn 0.5813 0.4003 -0.7084
vn -0.8082 0.4003 0.4320
vn 0.4320 0.4003 -0.8082
vn 0.0898 0.4003 0.9120
vn -0.7084 0.4003 0.5813
vn 0.2660 0.4003 -0.8769
vn 0.2660 0.4003 0.8769
vn -0.5813 0.4003 0.7084
vn 0.0898 0.4003 -0.9120
vn 0.4320 0.4003 0.8082
vn -0.4320 0.4003 0.8082
vn -0.0898 0.4003 -0.9120
vn 0.5813 0.4003 0.7084
vn -0.2660 0.4003 0.8769
vn -0.2660 0.4003 -0.8769
vn 0.7084 0.4003 0.5813
vn -0.0898 0.4003 0.9120
vn -0.4320 0.4003 -0.8082
vn 0.8082 0.4003 0.4320
vn -0.5813 0.4003 -0.7084
vn 0.8769 0.4003 0.2660
vn -0.7084 0.4003 -0.5813
vn 0.9120 0.4003 0.0898
vn -0.8082 0.4003 -0.4320
vn 0.9120 0.4003 -0.0898
vn -0.8769 0.4003 -0.2660
vn 0.8769 0.4003 -0.2660
vn -0.9120 0.4003 -0.0898
vn 0.8082 0.4003 -0.4320
vn -0.9120 0.4003 0.0898
vn 0.7084 0.4003 -0.5813
vn 0.0946 0.2628 -0.9602
vn 0.4548 0.2628 0.8509
vn -0.4548 0.2628 0.8509
vn -0.0946 0.2628 -0.9602
vn 0.6121 0.2628 0.7458
vn -0.0946 0.2628 0.9602
vn -0.2801 0.2628 -0.9233
vn 0.7458 0.2628 0.6121
vn -0.4548 0.2628 -0.8509
vn 0.8509 0.2628 0.4548
vn -0.6121 0.2628 -0.7458
vn 0.9233 0.2628 0.2801
vn -0.7458 0.2628 -0.6121
vn 0.9602 0.2628 0.0946
vn -0.8509 0.2628 -0.4548
vn 0.9602 0.2628 -0.0946
vn -0.9233 0.2628 -0.2801
vn 0.9233 0.2628 -0.2801
vn -0.2801 0.2628 0.9233
vn -0.9602 0.2628 -0.0946
vn 0.8509 0.2628 -0.4548
vn -0.9602 0.2628 0.0946
vn 0.7458 0.2628 -0.6121
vn -0.9233 0.2628 0.2801
vn 0.6121 0.2628 -0.7458
vn -0.8509 0.2628 0.4548
vn 0.4548 0.2628 -0.8509
vn 0.0946 0.2628 0.9602
vn -0.7458 0.2628 0.6121
vn 0.2801 0.2628 -0.9233
vn 0.2801 0.2628 0.9233
vn -0.6121 0.2628 0.7458
vt 0.000000 0.000000
s 0
usemtl Material
f 24/1/1 2/1/1 25/1/1
f 23/1/1 2/1/1 24/1/1
f 22/1/1 2/1/1 23/1/1
f 21/1/1 2/1/1 22/1/1
f 2/1/1 21/1/1 4/1/1
f 19/1/1 4/1/1 20/1/1
f 21/1/1 20/1/1 4/1/1
f 18/1/1 4/1/1 19/1/1
f 17/1/1 4/1/1 18/1/1
f 16/1/1 4/1/1 17/1/1
f 15/1/1 4/1/1 16/1/1
f 14/1/1 4/1/1 15/1/1
f 13/1/1 4/1/1 14/1/1
f 4/1/1 13/1/1 3/1/1
f 13/1/1 12/1/1 3/1/1
f 11/1/1 3/1/1 12/1/1
f 10/1/1 3/1/1 11/1/1
f 9/1/1 3/1/1 10/1/1
f 8/1/1 3/1/1 9/1/1
f 7/1/1 3/1/1 8/1/1
f 6/1/1 3/1/1 7/1/1
f 5/1/1 3/1/1 6/1/1
f 3/1/1 5/1/1 1/1/1
f 5/1/1 36/1/1 1/1/1
f 35/1/1 1/1/1 36/1/1
f 34/1/1 1/1/1 35/1/1
f 33/1/1 1/1/1 34/1/1
f 32/1/1 1/1/1 33/1/1
f 31/1/1 1/1/1 32/1/1
f 30/1/1 1/1/1 31/1/1
f 29/1/1 1/1/1 30/1/1
f 1/1/1 29/1/1 2/1/1
f 29/1/1 28/1/1 2/1/1
f 27/1/1 2/1/1 28/1/1
f 26/1/1 2/1/1 27/1/1
f 25/1/1 2/1/1 26/1/1
f 27/1/2 28/1/2 60/1/2 59/1/2
f 14/1/3 15/1/3 47/1/3 46/1/3
f 28/1/4 29/1/4 61/1/4 60/1/4
f 15/1/5 16/1/5 48/1/5 47/1/5
f 29/1/6 30/1/6 62/1/6 61/1/6
f 16/1/7 17/1/7 49/1/7 48/1/7
f 30/1/8 31/1/8 63/1/8 62/1/8
f 17/1/9 18/1/9 50/1/9 49/1/9
f 31/1/10 32/1/10 64/1/10 63/1/10
f 18/1/11 19/1/11 51/1/11 50/1/11
f 5/1/12 6/1/12 38/1/12 37/1/12
f 32/1/13 33/1/13 65/1/13 64/1/13
f 19/1/14 20/1/14 52/1/14 51/1/14
f 6/1/15 7/1/15 39/1/15 38/1/15
f 33/1/16 34/1/16 66/1/16 65/1/16
f 20/1/17 21/1/17 53/1/17 52/1/17
f 7/1/18 8/1/18 40/1/18 39/1/18
f 34/1/19 35/1/19 67/1/19 66/1/19
f 21/1/20 22/1/20 54/1/20 53/1/20
f 8/1/21 9/1/21 41/1/21 40/1/21
f 35/1/22 36/1/22 68/1/22 67/1/22
f 22/1/23 23/1/23 55/1/23 54/1/23
f 9/1/24 10/1/24 42/1/24 41/1/24
f 36/1/25 5/1/25 37/1/25 68/1/25
f 23/1/26 24/1/26 56/1/26 55/1/26
f 10/1/27 11/1/27 43/1/27 42/1/27
f 24/1/28 25/1/28 57/1/28 56/1/28
f 11/1/29 12/1/29 44/1/29 43/1/29
f 25/1/30 26/1/30 58/1/30 57/1/30
f 12/1/31 13/1/31 45/1/31 44/1/31
f 26/1/32 27/1/32 59/1/32 58/1/32
f 13/1/33 14/1/33 46/1/33 45/1/33
f 46/1/34 47/1/34 79/1/34 78/1/34
f 60/1/35 61/1/35 93/1/35 92/1/35
f 47/1/36 48/1/36 80/1/36 79/1/36
f 61/1/37 62/1/37 94/1/37 93/1/37
f 48/1/38 49/1/38 81/1/38 80/1/38
f 62/1/39 63/1/39 95/1/39 94/1/39
f 49/1/40 50/1/40 82/1/40 81/1/40
f 63/1/41 64/1/41 96/1/41 95/1/41
f 50/1/42 51/1/42 83/1/42 82/1/42
f 37/1/43 38/1/43 70/1/43 69/1/43
f 64/1/44 65/1/44 97/1/44 96/1/44
f 51/1/45 52/1/45 84/1/45 83/1/45
f 38/1/46 39/1/46 71/1/46 70/1/46
f 65/1/47 66/1/47 98/1/47 97/1/47
f 52/1/48 53/1/48 85/1/48 84/1/48
f 39/1/49 40/1/49 72/1/49 71/1/49
f 66/1/50 67/1/50 99/1/50 98/1/50
f 53/1/51 54/1/51 86/1/51 85/1/51
f 40/1/52 41/1/52 73/1/52 72/1/52
f 67/1/53 68/1/53 100/1/53 99/1/53
f 54/1/54 55/1/54 87/1/54 86/1/54
f 41/1/55 42/1/55 74/1/55 73/1/55
f 68/1/56 37/1/56 69/1/56 100/1/56
f 55/1/57 56/1/57 88/1/57 87/1/57
f 42/1/58 43/1/58 75/1/58 74/1/58
f 56/1/59 57/1/59 89/1/59 88/1/59
f 43/1/60 44/1/60 76/1/60 75/1/60
f 57/1/61 58/1/61 90/1/61 89/1/61
f 44/1/62 45/1/62 77/1/62 76/1/62
f 58/1/63 59/1/63 91/1/63 90/1/63
f 45/1/64 46/1/64 78/1/64 77/1/64
f 59/1/65 60/1/65 92/1/65 91/1/65
f 91/1/66 92/1/66 124/1/66 123/1/66
f 78/1/67 79/1/67 111/1/67 110/1/67
f 92/1/68 93/1/68 125/1/68 124/1/68
f 79/1/69 80/1/69 112/1/69 111/1/69
f 93/1/70 94/1/70 126/1/70 125/1/70
f 80/1/71 81/1/71 113/1/71 112/1/71
f 94/1/72 95/1/72 127/1/72 126/1/72
f 81/1/73 82/1/73 114/1/73 113/1/73
f 95/1/74 96/1/74 128/1/74 127/1/74
f 82/1/75 83/1/75 115/1/75 114/1/75
f 69/1/76 70/1/76 102/1/76 101/1/76
f 96/1/77 97/1/77 129/1/77 128/1/77
f 83/1/78 84/1/78 116/1/78 115/1/78
f 70/1/79 71/1/79 103/1/79 102/1/79
f 97/1/80 98/1/80 130/1/80 129/1/80
f 84/1/81 85/1/81 117/1/81 116/1/81
f 71/1/82 72/1/82 104/1/82 103/1/82
f 98/1/83 99/1/83 131/1/83 130/1/83
f 85/1/84 86/1/84 118/1/84 117/1/84
f 72/1/85 73/1/85 105/1/85 104/1/85
f 99/1/86 100/1/86 132/1/86 131/1/86
f 86/1/87 87/1/87 119/1/87 118/1/87
f 73/1/88 74/1/88 106/1/88 105/1/88
f 100/1/89 69/1/89 101/1/89 132/1/89
f 87/1/90 88/1/90 120/1/90 119/1/90
f 74/1/91 75/1/91 107/1/91 106/1/91
f 88/1/92 89/1/92 121/1/92 120/1/92
f 75/1/93 76/1/93 108/1/93 107/1/93
f 89/1/94 90/1/94 122/1/94 121/1/94
f 76/1/95 77/1/95 109/1/95 108/1/95
f 90/1/96 91/1/96 123/1/96 122/1/96
f 77/1/97 78/1/97 110/1/97 109/1/97
f 126/1/98 127/1/98 159/1/98 158/1/98
f 113/1/99 114/1/99 146/1/99 145/1/99
f 127/1/100 128/1/100 160/1/100 159/1/100
f 114/1/101 115/1/101 147/1/101 146/1/101
f 101/1/102 102/1/102 134/1/102 133/1/102
f 128/1/103 129/1/103 161/1/103 160/1/103
f 115/1/104 116/1/104 148/1/104 147/1/104
f 102/1/105 103/1/105 135/1/105 134/1/105
f 129/1/106 130/1/106 162/1/106 161/1/106
f 116/1/107 117/1/107 149/1/107 148/1/107
f 103/1/108 104/1/108 136/1/108 135/1/108
f 130/1/109 131/1/109 163/1/109 162/1/109
f 117/1/110 118/1/110 150/1/110 149/1/110
f 104/1/111 105/1/111 137/1/111 136/1/111
f 131/1/112 132/1/112 164/1/112 163/1/112
f 118/1/113 119/1/113 151/1/113 150/1/113
f 105/1/114 106/1/114 138/1/114 137/1/114
f 132/1/115 101/1/115 133/1/115 164/1/115
f 119/1/116 120/1/116 152/1/116 151/1/116
f 106/1/117 107/1/117 139/1/117 138/1/117
f 120/1/118 121/1/118 153/1/118 152/1/118
f 107/1/119 108/1/119 140/1/119 139/1/119
f 121/1/120 122/1/120 154/1/120 153/1/120
f 108/1/121 109/1/121 141/1/121 140/1/121
f 122/1/122 123/1/122 155/1/122 154/1/122
f 109/1/123 110/1/123 142/1/123 141/1/123
f 123/1/124 124/1/124 156/1/124 155/1/124
f 110/1/125 111/1/125 143/1/125 142/1/125
f 124/1/126 125/1/126 157/1/126 156/1/126
f 111/1/127 112/1/127 144/1/127 143/1/127
f 125/1/128 126/1/128 158/1/128 157/1/128
f 112/1/129 113/1/129 145/1/129 144/1/129
f 148/1/130 149/1/130 165/1/130
f 135/1/131 136/1/131 165/1/131
f 162/1/132 163/1/132 165/1/132
f 149/1/133 150/1/133 165/1/133
f 136/1/134 137/1/134 165/1/134
f 164/1/135 133/1/135 165/1/135
f 150/1/136 151/1/136 165/1/136
f 137/1/137 138/1/137 165/1/137
f 151/1/138 152/1/138 165/1/138
f 138/1/139 139/1/139 165/1/139
f 152/1/140 153/1/140 165/1/140
f 139/1/141 140/1/141 165/1/141
f 153/1/142 154/1/142 165/1/142
f 140/1/143 141/1/143 165/1/143
f 154/1/144 155/1/144 165/1/144
f 141/1/145 142/1/145 165/1/145
f 155/1/146 156/1/146 165/1/146
f 142/1/147 143/1/147 165/1/147
f 163/1/148 164/1/148 165/1/148
f 156/1/149 157/1/149 165/1/149
f 143/1/150 144/1/150 165/1/150
f 157/1/151 158/1/151 165/1/151
f 144/1/152 145/1/152 165/1/152
f 158/1/153 159/1/153 165/1/153
f 145/1/154 146/1/154 165/1/154
f 159/1/155 160/1/155 165/1/155
f 146/1/156 147/1/156 165/1/156
f 133/1/157 134/1/157 165/1/157
f 160/1/158 161/1/158 165/1/158
f 147/1/159 148/1/159 165/1/159
f 134/1/160 135/1/160 165/1/160
f 161/1/161 162/1/161 165/1/161
