# MagicaVoxel @ Ephtracy

# group
o 

# material
mtllib плитка 1.mtl
usemtl palette

# normals
vn -1 0 0
vn 1 0 0
vn 0 0 1
vn 0 0 -1
vn 0 -1 0
vn 0 1 0

# texcoords
vt 0.974609 0.5
vt 0.978516 0.5
vt 0.982422 0.5
vt 0.986328 0.5

# verts
v -2.5 0 2.5
v -2.5 0 -2.5
v -2.5 4.9 2.5
v -2.5 4.9 1.5
v -2.5 4.9 0.5
v -2.5 4.9 -0.5
v -2.5 4.9 -1.5
v -2.5 4.9 -2.5
v -2.5 5 2.5
v -2.5 5 1.5
v -2.5 5 0.5
v -2.5 5 -0.5
v -2.5 5 -1.5
v -2.5 5 -2.5
v 2.5 0 2.5
v 2.5 0 -2.5
v 2.5 4.9 2.5
v 2.5 4.9 1.5
v 2.5 4.9 0.5
v 2.5 4.9 -0.5
v 2.5 4.9 -1.5
v 2.5 4.9 -2.5
v 2.5 5 2.5
v 2.5 5 1.5
v 2.5 5 0.5
v 2.5 5 -0.5
v 2.5 5 -1.5
v 2.5 5 -2.5
v -2.5 0 2.5
v -2.5 4.9 2.5
v -2.5 5 2.5
v -1.5 4.9 2.5
v -1.5 5 2.5
v -0.5 4.9 2.5
v -0.5 5 2.5
v 0.5 4.9 2.5
v 0.5 5 2.5
v 1.5 4.9 2.5
v 1.5 5 2.5
v 2.5 0 2.5
v 2.5 4.9 2.5
v 2.5 5 2.5
v -2.5 0 -2.5
v -2.5 4.9 -2.5
v -2.5 5 -2.5
v -1.5 4.9 -2.5
v -1.5 5 -2.5
v -0.5 4.9 -2.5
v -0.5 5 -2.5
v 0.5 4.9 -2.5
v 0.5 5 -2.5
v 1.5 4.9 -2.5
v 1.5 5 -2.5
v 2.5 0 -2.5
v 2.5 4.9 -2.5
v 2.5 5 -2.5
v -2.5 0 2.5
v 2.5 0 2.5
v -2.5 0 -2.5
v 2.5 0 -2.5
v -2.5 5 2.5
v -1.5 5 2.5
v -0.5 5 2.5
v 0.5 5 2.5
v 1.5 5 2.5
v 2.5 5 2.5
v -2.4 5 2.4
v -1.6 5 2.4
v -1.4 5 2.4
v -0.6 5 2.4
v -0.4 5 2.4
v 0.4 5 2.4
v 0.6 5 2.4
v 1.4 5 2.4
v 1.6 5 2.4
v 2.4 5 2.4
v -2.4 5 1.6
v -1.6 5 1.6
v -1.4 5 1.6
v -0.6 5 1.6
v -0.4 5 1.6
v 0.4 5 1.6
v 0.6 5 1.6
v 1.4 5 1.6
v 1.6 5 1.6
v 2.4 5 1.6
v -2.5 5 1.5
v -1.5 5 1.5
v -0.5 5 1.5
v 0.5 5 1.5
v 1.5 5 1.5
v 2.5 5 1.5
v -2.4 5 1.4
v -1.6 5 1.4
v -1.4 5 1.4
v -0.6 5 1.4
v -0.4 5 1.4
v 0.4 5 1.4
v 0.6 5 1.4
v 1.4 5 1.4
v 1.6 5 1.4
v 2.4 5 1.4
v -2.4 5 0.6
v -1.6 5 0.6
v -1.4 5 0.6
v -0.6 5 0.6
v -0.4 5 0.6
v 0.4 5 0.6
v 0.6 5 0.6
v 1.4 5 0.6
v 1.6 5 0.6
v 2.4 5 0.6
v -2.5 5 0.5
v -1.5 5 0.5
v -0.5 5 0.5
v 0.5 5 0.5
v 1.5 5 0.5
v 2.5 5 0.5
v -2.4 5 0.4
v -1.6 5 0.4
v -1.4 5 0.4
v -0.6 5 0.4
v -0.4 5 0.4
v 0.4 5 0.4
v 0.6 5 0.4
v 1.4 5 0.4
v 1.6 5 0.4
v 2.4 5 0.4
v -2.4 5 -0.4
v -1.6 5 -0.4
v -1.4 5 -0.4
v -0.6 5 -0.4
v -0.4 5 -0.4
v 0.4 5 -0.4
v 0.6 5 -0.4
v 1.4 5 -0.4
v 1.6 5 -0.4
v 2.4 5 -0.4
v -2.5 5 -0.5
v -1.5 5 -0.5
v -0.5 5 -0.5
v 0.5 5 -0.5
v 1.5 5 -0.5
v 2.5 5 -0.5
v -2.4 5 -0.6
v -1.6 5 -0.6
v -1.4 5 -0.6
v -0.6 5 -0.6
v -0.4 5 -0.6
v 0.4 5 -0.6
v 0.6 5 -0.6
v 1.4 5 -0.6
v 1.6 5 -0.6
v 2.4 5 -0.6
v -2.4 5 -1.4
v -1.6 5 -1.4
v -1.4 5 -1.4
v -0.6 5 -1.4
v -0.4 5 -1.4
v 0.4 5 -1.4
v 0.6 5 -1.4
v 1.4 5 -1.4
v 1.6 5 -1.4
v 2.4 5 -1.4
v -2.5 5 -1.5
v -1.5 5 -1.5
v -0.5 5 -1.5
v 0.5 5 -1.5
v 1.5 5 -1.5
v 2.5 5 -1.5
v -2.4 5 -1.6
v -1.6 5 -1.6
v -1.4 5 -1.6
v -0.6 5 -1.6
v -0.4 5 -1.6
v 0.4 5 -1.6
v 0.6 5 -1.6
v 1.4 5 -1.6
v 1.6 5 -1.6
v 2.4 5 -1.6
v -2.4 5 -2.4
v -1.6 5 -2.4
v -1.4 5 -2.4
v -0.6 5 -2.4
v -0.4 5 -2.4
v 0.4 5 -2.4
v 0.6 5 -2.4
v 1.4 5 -2.4
v 1.6 5 -2.4
v 2.4 5 -2.4
v -2.5 5 -2.5
v -1.5 5 -2.5
v -0.5 5 -2.5
v 0.5 5 -2.5
v 1.5 5 -2.5
v 2.5 5 -2.5

# faces
f 3/3/1 2/3/1 1/3/1
f 4/3/1 2/3/1 3/3/1
f 5/3/1 2/3/1 4/3/1
f 6/3/1 2/3/1 5/3/1
f 7/3/1 2/3/1 6/3/1
f 8/3/1 2/3/1 7/3/1
f 9/2/1 4/2/1 3/2/1
f 10/4/1 5/4/1 4/4/1
f 10/2/1 4/2/1 9/2/1
f 11/2/1 6/2/1 5/2/1
f 11/4/1 5/4/1 10/4/1
f 12/4/1 7/4/1 6/4/1
f 12/2/1 6/2/1 11/2/1
f 13/2/1 8/2/1 7/2/1
f 13/4/1 7/4/1 12/4/1
f 14/2/1 8/2/1 13/2/1
f 15/3/2 16/3/2 17/3/2
f 17/3/2 16/3/2 18/3/2
f 18/3/2 16/3/2 19/3/2
f 19/3/2 16/3/2 20/3/2
f 20/3/2 16/3/2 21/3/2
f 21/3/2 16/3/2 22/3/2
f 17/2/2 18/2/2 23/2/2
f 18/4/2 19/4/2 24/4/2
f 23/2/2 18/2/2 24/2/2
f 19/2/2 20/2/2 25/2/2
f 24/4/2 19/4/2 25/4/2
f 20/4/2 21/4/2 26/4/2
f 25/2/2 20/2/2 26/2/2
f 21/2/2 22/2/2 27/2/2
f 26/4/2 21/4/2 27/4/2
f 27/2/2 22/2/2 28/2/2
f 32/3/3 30/3/3 29/3/3
f 32/2/3 31/2/3 30/2/3
f 33/2/3 31/2/3 32/2/3
f 34/3/3 32/3/3 29/3/3
f 34/4/3 33/4/3 32/4/3
f 35/4/3 33/4/3 34/4/3
f 36/3/3 34/3/3 29/3/3
f 36/2/3 35/2/3 34/2/3
f 37/2/3 35/2/3 36/2/3
f 38/3/3 36/3/3 29/3/3
f 38/4/3 37/4/3 36/4/3
f 39/4/3 37/4/3 38/4/3
f 40/3/3 38/3/3 29/3/3
f 41/2/3 39/2/3 38/2/3
f 41/3/3 38/3/3 40/3/3
f 42/2/3 39/2/3 41/2/3
f 43/3/4 44/3/4 46/3/4
f 44/2/4 45/2/4 46/2/4
f 46/2/4 45/2/4 47/2/4
f 43/3/4 46/3/4 48/3/4
f 46/4/4 47/4/4 48/4/4
f 48/4/4 47/4/4 49/4/4
f 43/3/4 48/3/4 50/3/4
f 48/2/4 49/2/4 50/2/4
f 50/2/4 49/2/4 51/2/4
f 43/3/4 50/3/4 52/3/4
f 50/4/4 51/4/4 52/4/4
f 52/4/4 51/4/4 53/4/4
f 43/3/4 52/3/4 54/3/4
f 52/2/4 53/2/4 55/2/4
f 54/3/4 52/3/4 55/3/4
f 55/2/4 53/2/4 56/2/4
f 59/3/5 58/3/5 57/3/5
f 60/3/5 58/3/5 59/3/5
f 61/2/6 62/2/6 67/2/6
f 67/2/6 62/2/6 68/2/6
f 62/4/6 63/4/6 69/4/6
f 69/4/6 63/4/6 70/4/6
f 63/2/6 64/2/6 71/2/6
f 71/2/6 64/2/6 72/2/6
f 64/4/6 65/4/6 73/4/6
f 73/4/6 65/4/6 74/4/6
f 65/2/6 66/2/6 75/2/6
f 75/2/6 66/2/6 76/2/6
f 61/2/6 67/2/6 77/2/6
f 67/1/6 68/1/6 77/1/6
f 68/2/6 62/2/6 78/2/6
f 77/1/6 68/1/6 78/1/6
f 62/4/6 69/4/6 79/4/6
f 69/3/6 70/3/6 79/3/6
f 70/4/6 63/4/6 80/4/6
f 79/3/6 70/3/6 80/3/6
f 63/2/6 71/2/6 81/2/6
f 71/1/6 72/1/6 81/1/6
f 72/2/6 64/2/6 82/2/6
f 81/1/6 72/1/6 82/1/6
f 64/4/6 73/4/6 83/4/6
f 73/3/6 74/3/6 83/3/6
f 74/4/6 65/4/6 84/4/6
f 83/3/6 74/3/6 84/3/6
f 75/1/6 76/1/6 85/1/6
f 65/2/6 75/2/6 85/2/6
f 76/2/6 66/2/6 86/2/6
f 85/1/6 76/1/6 86/1/6
f 61/2/6 77/2/6 87/2/6
f 77/2/6 78/2/6 87/2/6
f 62/4/6 79/4/6 88/4/6
f 87/2/6 78/2/6 88/2/6
f 78/2/6 62/2/6 88/2/6
f 79/4/6 80/4/6 88/4/6
f 63/2/6 81/2/6 89/2/6
f 88/4/6 80/4/6 89/4/6
f 80/4/6 63/4/6 89/4/6
f 81/2/6 82/2/6 89/2/6
f 64/4/6 83/4/6 90/4/6
f 89/2/6 82/2/6 90/2/6
f 83/4/6 84/4/6 90/4/6
f 82/2/6 64/2/6 90/2/6
f 65/2/6 85/2/6 91/2/6
f 90/4/6 84/4/6 91/4/6
f 84/4/6 65/4/6 91/4/6
f 85/2/6 86/2/6 91/2/6
f 86/2/6 66/2/6 92/2/6
f 91/2/6 86/2/6 92/2/6
f 87/4/6 88/4/6 93/4/6
f 93/4/6 88/4/6 94/4/6
f 88/2/6 89/2/6 95/2/6
f 95/2/6 89/2/6 96/2/6
f 89/4/6 90/4/6 97/4/6
f 97/4/6 90/4/6 98/4/6
f 90/2/6 91/2/6 99/2/6
f 99/2/6 91/2/6 100/2/6
f 91/4/6 92/4/6 101/4/6
f 101/4/6 92/4/6 102/4/6
f 87/4/6 93/4/6 103/4/6
f 93/3/6 94/3/6 103/3/6
f 94/4/6 88/4/6 104/4/6
f 103/3/6 94/3/6 104/3/6
f 88/2/6 95/2/6 105/2/6
f 95/1/6 96/1/6 105/1/6
f 96/2/6 89/2/6 106/2/6
f 105/1/6 96/1/6 106/1/6
f 89/4/6 97/4/6 107/4/6
f 97/3/6 98/3/6 107/3/6
f 98/4/6 90/4/6 108/4/6
f 107/3/6 98/3/6 108/3/6
f 90/2/6 99/2/6 109/2/6
f 99/1/6 100/1/6 109/1/6
f 100/2/6 91/2/6 110/2/6
f 109/1/6 100/1/6 110/1/6
f 101/3/6 102/3/6 111/3/6
f 91/4/6 101/4/6 111/4/6
f 102/4/6 92/4/6 112/4/6
f 111/3/6 102/3/6 112/3/6
f 87/4/6 103/4/6 113/4/6
f 103/4/6 104/4/6 113/4/6
f 88/2/6 105/2/6 114/2/6
f 113/4/6 104/4/6 114/4/6
f 104/4/6 88/4/6 114/4/6
f 105/2/6 106/2/6 114/2/6
f 89/4/6 107/4/6 115/4/6
f 114/2/6 106/2/6 115/2/6
f 106/2/6 89/2/6 115/2/6
f 107/4/6 108/4/6 115/4/6
f 90/2/6 109/2/6 116/2/6
f 115/4/6 108/4/6 116/4/6
f 109/2/6 110/2/6 116/2/6
f 108/4/6 90/4/6 116/4/6
f 91/4/6 111/4/6 117/4/6
f 116/2/6 110/2/6 117/2/6
f 110/2/6 91/2/6 117/2/6
f 111/4/6 112/4/6 117/4/6
f 112/4/6 92/4/6 118/4/6
f 117/4/6 112/4/6 118/4/6
f 113/2/6 114/2/6 119/2/6
f 119/2/6 114/2/6 120/2/6
f 114/4/6 115/4/6 121/4/6
f 121/4/6 115/4/6 122/4/6
f 115/2/6 116/2/6 123/2/6
f 123/2/6 116/2/6 124/2/6
f 116/4/6 117/4/6 125/4/6
f 125/4/6 117/4/6 126/4/6
f 117/2/6 118/2/6 127/2/6
f 127/2/6 118/2/6 128/2/6
f 113/2/6 119/2/6 129/2/6
f 119/1/6 120/1/6 129/1/6
f 120/2/6 114/2/6 130/2/6
f 129/1/6 120/1/6 130/1/6
f 114/4/6 121/4/6 131/4/6
f 121/3/6 122/3/6 131/3/6
f 122/4/6 115/4/6 132/4/6
f 131/3/6 122/3/6 132/3/6
f 115/2/6 123/2/6 133/2/6
f 123/1/6 124/1/6 133/1/6
f 124/2/6 116/2/6 134/2/6
f 133/1/6 124/1/6 134/1/6
f 116/4/6 125/4/6 135/4/6
f 125/3/6 126/3/6 135/3/6
f 126/4/6 117/4/6 136/4/6
f 135/3/6 126/3/6 136/3/6
f 127/1/6 128/1/6 137/1/6
f 117/2/6 127/2/6 137/2/6
f 128/2/6 118/2/6 138/2/6
f 137/1/6 128/1/6 138/1/6
f 113/2/6 129/2/6 139/2/6
f 129/2/6 130/2/6 139/2/6
f 114/4/6 131/4/6 140/4/6
f 139/2/6 130/2/6 140/2/6
f 130/2/6 114/2/6 140/2/6
f 131/4/6 132/4/6 140/4/6
f 115/2/6 133/2/6 141/2/6
f 140/4/6 132/4/6 141/4/6
f 132/4/6 115/4/6 141/4/6
f 133/2/6 134/2/6 141/2/6
f 116/4/6 135/4/6 142/4/6
f 141/2/6 134/2/6 142/2/6
f 135/4/6 136/4/6 142/4/6
f 134/2/6 116/2/6 142/2/6
f 117/2/6 137/2/6 143/2/6
f 142/4/6 136/4/6 143/4/6
f 136/4/6 117/4/6 143/4/6
f 137/2/6 138/2/6 143/2/6
f 138/2/6 118/2/6 144/2/6
f 143/2/6 138/2/6 144/2/6
f 139/4/6 140/4/6 145/4/6
f 145/4/6 140/4/6 146/4/6
f 140/2/6 141/2/6 147/2/6
f 147/2/6 141/2/6 148/2/6
f 141/4/6 142/4/6 149/4/6
f 149/4/6 142/4/6 150/4/6
f 142/2/6 143/2/6 151/2/6
f 151/2/6 143/2/6 152/2/6
f 143/4/6 144/4/6 153/4/6
f 153/4/6 144/4/6 154/4/6
f 139/4/6 145/4/6 155/4/6
f 145/3/6 146/3/6 155/3/6
f 146/4/6 140/4/6 156/4/6
f 155/3/6 146/3/6 156/3/6
f 140/2/6 147/2/6 157/2/6
f 147/1/6 148/1/6 157/1/6
f 148/2/6 141/2/6 158/2/6
f 157/1/6 148/1/6 158/1/6
f 141/4/6 149/4/6 159/4/6
f 149/3/6 150/3/6 159/3/6
f 150/4/6 142/4/6 160/4/6
f 159/3/6 150/3/6 160/3/6
f 142/2/6 151/2/6 161/2/6
f 151/1/6 152/1/6 161/1/6
f 152/2/6 143/2/6 162/2/6
f 161/1/6 152/1/6 162/1/6
f 153/3/6 154/3/6 163/3/6
f 143/4/6 153/4/6 163/4/6
f 154/4/6 144/4/6 164/4/6
f 163/3/6 154/3/6 164/3/6
f 139/4/6 155/4/6 165/4/6
f 155/4/6 156/4/6 165/4/6
f 140/2/6 157/2/6 166/2/6
f 165/4/6 156/4/6 166/4/6
f 156/4/6 140/4/6 166/4/6
f 157/2/6 158/2/6 166/2/6
f 141/4/6 159/4/6 167/4/6
f 166/2/6 158/2/6 167/2/6
f 158/2/6 141/2/6 167/2/6
f 159/4/6 160/4/6 167/4/6
f 142/2/6 161/2/6 168/2/6
f 167/4/6 160/4/6 168/4/6
f 161/2/6 162/2/6 168/2/6
f 160/4/6 142/4/6 168/4/6
f 143/4/6 163/4/6 169/4/6
f 168/2/6 162/2/6 169/2/6
f 162/2/6 143/2/6 169/2/6
f 163/4/6 164/4/6 169/4/6
f 164/4/6 144/4/6 170/4/6
f 169/4/6 164/4/6 170/4/6
f 165/2/6 166/2/6 171/2/6
f 171/2/6 166/2/6 172/2/6
f 166/4/6 167/4/6 173/4/6
f 173/4/6 167/4/6 174/4/6
f 167/2/6 168/2/6 175/2/6
f 175/2/6 168/2/6 176/2/6
f 168/4/6 169/4/6 177/4/6
f 177/4/6 169/4/6 178/4/6
f 169/2/6 170/2/6 179/2/6
f 179/2/6 170/2/6 180/2/6
f 165/2/6 171/2/6 181/2/6
f 171/1/6 172/1/6 181/1/6
f 172/2/6 166/2/6 182/2/6
f 181/1/6 172/1/6 182/1/6
f 166/4/6 173/4/6 183/4/6
f 173/3/6 174/3/6 183/3/6
f 174/4/6 167/4/6 184/4/6
f 183/3/6 174/3/6 184/3/6
f 167/2/6 175/2/6 185/2/6
f 175/1/6 176/1/6 185/1/6
f 176/2/6 168/2/6 186/2/6
f 185/1/6 176/1/6 186/1/6
f 168/4/6 177/4/6 187/4/6
f 177/3/6 178/3/6 187/3/6
f 178/4/6 169/4/6 188/4/6
f 187/3/6 178/3/6 188/3/6
f 179/1/6 180/1/6 189/1/6
f 169/2/6 179/2/6 189/2/6
f 180/2/6 170/2/6 190/2/6
f 189/1/6 180/1/6 190/1/6
f 165/2/6 181/2/6 191/2/6
f 181/2/6 182/2/6 191/2/6
f 166/4/6 183/4/6 192/4/6
f 191/2/6 182/2/6 192/2/6
f 182/2/6 166/2/6 192/2/6
f 183/4/6 184/4/6 192/4/6
f 167/2/6 185/2/6 193/2/6
f 192/4/6 184/4/6 193/4/6
f 184/4/6 167/4/6 193/4/6
f 185/2/6 186/2/6 193/2/6
f 168/4/6 187/4/6 194/4/6
f 193/2/6 186/2/6 194/2/6
f 187/4/6 188/4/6 194/4/6
f 186/2/6 168/2/6 194/2/6
f 169/2/6 189/2/6 195/2/6
f 194/4/6 188/4/6 195/4/6
f 188/4/6 169/4/6 195/4/6
f 189/2/6 190/2/6 195/2/6
f 190/2/6 170/2/6 196/2/6
f 195/2/6 190/2/6 196/2/6
