# MagicaVoxel @ Ephtracy

# group
o 

# material
mtllib волна5.mtl
usemtl palette

# normals
vn -1 0 0
vn 1 0 0
vn 0 0 1
vn 0 0 -1
vn 0 -1 0
vn 0 1 0

# texcoords
vt 0.751953 0.5
vt 0.958984 0.5

# verts
v -2.5 0 -1.3
v -2.5 0 -1.5
v -2.5 0.2 -1.3
v -2.5 0.2 -1.5
v -2.4 0 -1.5
v -2.4 0 -1.6
v -2.4 0.2 -1.5
v -2.4 0.2 -1.6
v -2.3 0 -1.6
v -2.3 0 -1.7
v -2.3 0.1 -1.4
v -2.3 0.1 -1.5
v -2.3 0.2 -1.4
v -2.3 0.2 -1.5
v -2.3 0.2 -1.6
v -2.3 0.2 -1.7
v -2.1 0 -1.7
v -2.1 0 -1.8
v -2.1 0.2 -1.7
v -2.1 0.2 -1.8
v -2 0.1 -1.5
v -2 0.1 -1.6
v -2 0.2 -1.5
v -2 0.2 -1.6
v -1.7 0 -1.4
v -1.7 0 -1.5
v -1.7 0.2 -1.4
v -1.7 0.2 -1.5
v -1.6 0.1 -1.6
v -1.6 0.1 -1.7
v -1.6 0.2 -1.6
v -1.6 0.2 -1.7
v -1.4 0 -1.3
v -1.4 0 -1.4
v -1.4 0.1 -1.5
v -1.4 0.1 -1.6
v -1.4 0.2 -1.3
v -1.4 0.2 -1.4
v -1.4 0.2 -1.5
v -1.4 0.2 -1.6
v -1.3 0.1 -1.4
v -1.3 0.1 -1.5
v -1.3 0.2 -1.4
v -1.3 0.2 -1.5
v -2.4 0.1 -1.4
v -2.4 0.1 -1.5
v -2.4 0.2 -1.4
v -2.4 0.2 -1.5
v -2.3 0 -1.3
v -2.3 0 -1.4
v -2.3 0.1 -1.5
v -2.3 0.1 -1.6
v -2.3 0.2 -1.3
v -2.3 0.2 -1.4
v -2.3 0.2 -1.5
v -2.3 0.2 -1.6
v -2.1 0.1 -1.6
v -2.1 0.1 -1.7
v -2.1 0.2 -1.6
v -2.1 0.2 -1.7
v -2 0 -1.4
v -2 0 -1.5
v -2 0.2 -1.4
v -2 0.2 -1.5
v -1.7 0.1 -1.5
v -1.7 0.1 -1.6
v -1.7 0.2 -1.5
v -1.7 0.2 -1.6
v -1.6 0 -1.7
v -1.6 0 -1.8
v -1.6 0.2 -1.7
v -1.6 0.2 -1.8
v -1.4 0 -1.6
v -1.4 0 -1.7
v -1.4 0.1 -1.4
v -1.4 0.1 -1.5
v -1.4 0.2 -1.4
v -1.4 0.2 -1.5
v -1.4 0.2 -1.6
v -1.4 0.2 -1.7
v -1.3 0 -1.5
v -1.3 0 -1.6
v -1.3 0.2 -1.5
v -1.3 0.2 -1.6
v -1.2 0 -1.3
v -1.2 0 -1.5
v -1.2 0.2 -1.3
v -1.2 0.2 -1.5
v -2.5 0 -1.3
v -2.5 0.2 -1.3
v -2.4 0 -1.3
v -2.4 0.2 -1.3
v -2.3 0 -1.3
v -2.3 0.2 -1.3
v -1.4 0 -1.3
v -1.4 0.2 -1.3
v -1.3 0 -1.3
v -1.3 0.2 -1.3
v -1.2 0 -1.3
v -1.2 0.2 -1.3
v -2.3 0 -1.4
v -2.3 0.2 -1.4
v -2 0 -1.4
v -2 0.2 -1.4
v -1.7 0 -1.4
v -1.7 0.2 -1.4
v -1.4 0 -1.4
v -1.4 0.2 -1.4
v -2.4 0.1 -1.5
v -2.4 0.2 -1.5
v -2.3 0.1 -1.5
v -2.3 0.2 -1.5
v -2 0 -1.5
v -2 0.2 -1.5
v -1.7 0 -1.5
v -1.7 0.2 -1.5
v -1.4 0.1 -1.5
v -1.4 0.2 -1.5
v -1.3 0.1 -1.5
v -1.3 0.2 -1.5
v -2.3 0.1 -1.6
v -2.3 0.2 -1.6
v -2.1 0.1 -1.6
v -2.1 0.2 -1.6
v -1.6 0.1 -1.6
v -1.6 0.2 -1.6
v -1.4 0.1 -1.6
v -1.4 0.2 -1.6
v -2.1 0.1 -1.7
v -2.1 0.2 -1.7
v -1.6 0.1 -1.7
v -1.6 0.2 -1.7
v -2.4 0.1 -1.4
v -2.4 0.2 -1.4
v -2.3 0.1 -1.4
v -2.3 0.2 -1.4
v -1.4 0.1 -1.4
v -1.4 0.2 -1.4
v -1.3 0.1 -1.4
v -1.3 0.2 -1.4
v -2.5 0 -1.5
v -2.5 0.2 -1.5
v -2.4 0 -1.5
v -2.4 0.2 -1.5
v -2.3 0.1 -1.5
v -2.3 0.2 -1.5
v -2 0.1 -1.5
v -2 0.2 -1.5
v -1.7 0.1 -1.5
v -1.7 0.2 -1.5
v -1.4 0.1 -1.5
v -1.4 0.2 -1.5
v -1.3 0 -1.5
v -1.3 0.2 -1.5
v -1.2 0 -1.5
v -1.2 0.2 -1.5
v -2.4 0 -1.6
v -2.4 0.2 -1.6
v -2.3 0 -1.6
v -2.3 0.2 -1.6
v -2 0.1 -1.6
v -2 0.2 -1.6
v -1.7 0.1 -1.6
v -1.7 0.2 -1.6
v -1.4 0 -1.6
v -1.4 0.2 -1.6
v -1.3 0 -1.6
v -1.3 0.2 -1.6
v -2.3 0 -1.7
v -2.3 0.2 -1.7
v -2.1 0 -1.7
v -2.1 0.2 -1.7
v -1.6 0 -1.7
v -1.6 0.2 -1.7
v -1.4 0 -1.7
v -1.4 0.2 -1.7
v -2.1 0 -1.8
v -2.1 0.2 -1.8
v -1.6 0 -1.8
v -1.6 0.2 -1.8
v -2.5 0 -1.3
v -2.4 0 -1.3
v -2.3 0 -1.3
v -1.4 0 -1.3
v -1.3 0 -1.3
v -1.2 0 -1.3
v -2.3 0 -1.4
v -2 0 -1.4
v -1.7 0 -1.4
v -1.4 0 -1.4
v -2.5 0 -1.5
v -2.4 0 -1.5
v -2.3 0 -1.5
v -2 0 -1.5
v -1.7 0 -1.5
v -1.4 0 -1.5
v -1.3 0 -1.5
v -1.2 0 -1.5
v -2.4 0 -1.6
v -2.3 0 -1.6
v -2.1 0 -1.6
v -1.6 0 -1.6
v -1.4 0 -1.6
v -1.3 0 -1.6
v -2.3 0 -1.7
v -2.1 0 -1.7
v -1.6 0 -1.7
v -1.4 0 -1.7
v -2.1 0 -1.8
v -1.6 0 -1.8
v -2.4 0.1 -1.4
v -2.3 0.1 -1.4
v -1.4 0.1 -1.4
v -1.3 0.1 -1.4
v -2.4 0.1 -1.5
v -2.3 0.1 -1.5
v -2 0.1 -1.5
v -1.7 0.1 -1.5
v -1.4 0.1 -1.5
v -1.3 0.1 -1.5
v -2.3 0.1 -1.6
v -2.1 0.1 -1.6
v -2 0.1 -1.6
v -1.7 0.1 -1.6
v -1.6 0.1 -1.6
v -1.4 0.1 -1.6
v -2.1 0.1 -1.7
v -1.6 0.1 -1.7
v -2.5 0.2 -1.3
v -2.4 0.2 -1.3
v -2.3 0.2 -1.3
v -1.4 0.2 -1.3
v -1.3 0.2 -1.3
v -1.2 0.2 -1.3
v -2.4 0.2 -1.4
v -2.3 0.2 -1.4
v -2 0.2 -1.4
v -1.7 0.2 -1.4
v -1.4 0.2 -1.4
v -1.3 0.2 -1.4
v -2.5 0.2 -1.5
v -2.4 0.2 -1.5
v -2.3 0.2 -1.5
v -2 0.2 -1.5
v -1.7 0.2 -1.5
v -1.4 0.2 -1.5
v -1.3 0.2 -1.5
v -1.2 0.2 -1.5
v -2.4 0.2 -1.6
v -2.3 0.2 -1.6
v -2.1 0.2 -1.6
v -2 0.2 -1.6
v -1.7 0.2 -1.6
v -1.6 0.2 -1.6
v -1.4 0.2 -1.6
v -1.3 0.2 -1.6
v -2.3 0.2 -1.7
v -2.1 0.2 -1.7
v -1.6 0.2 -1.7
v -1.4 0.2 -1.7
v -2.1 0.2 -1.8
v -1.6 0.2 -1.8

# faces
f 3/2/1 2/2/1 1/2/1
f 4/2/1 2/2/1 3/2/1
f 7/2/1 6/2/1 5/2/1
f 8/2/1 6/2/1 7/2/1
f 13/1/1 12/1/1 11/1/1
f 14/1/1 12/1/1 13/1/1
f 15/2/1 10/2/1 9/2/1
f 16/2/1 10/2/1 15/2/1
f 19/2/1 18/2/1 17/2/1
f 20/2/1 18/2/1 19/2/1
f 23/1/1 22/1/1 21/1/1
f 24/1/1 22/1/1 23/1/1
f 27/1/1 26/1/1 25/1/1
f 28/1/1 26/1/1 27/1/1
f 31/2/1 30/2/1 29/2/1
f 32/2/1 30/2/1 31/2/1
f 37/1/1 34/1/1 33/1/1
f 38/1/1 34/1/1 37/1/1
f 39/2/1 36/2/1 35/2/1
f 40/2/1 36/2/1 39/2/1
f 43/2/1 42/2/1 41/2/1
f 44/2/1 42/2/1 43/2/1
f 45/2/2 46/2/2 47/2/2
f 47/2/2 46/2/2 48/2/2
f 49/1/2 50/1/2 53/1/2
f 53/1/2 50/1/2 54/1/2
f 51/2/2 52/2/2 55/2/2
f 55/2/2 52/2/2 56/2/2
f 57/2/2 58/2/2 59/2/2
f 59/2/2 58/2/2 60/2/2
f 61/1/2 62/1/2 63/1/2
f 63/1/2 62/1/2 64/1/2
f 65/1/2 66/1/2 67/1/2
f 67/1/2 66/1/2 68/1/2
f 69/2/2 70/2/2 71/2/2
f 71/2/2 70/2/2 72/2/2
f 75/1/2 76/1/2 77/1/2
f 77/1/2 76/1/2 78/1/2
f 73/2/2 74/2/2 79/2/2
f 79/2/2 74/2/2 80/2/2
f 81/2/2 82/2/2 83/2/2
f 83/2/2 82/2/2 84/2/2
f 85/2/2 86/2/2 87/2/2
f 87/2/2 86/2/2 88/2/2
f 91/2/3 90/2/3 89/2/3
f 92/2/3 90/2/3 91/2/3
f 93/1/3 92/1/3 91/1/3
f 94/1/3 92/1/3 93/1/3
f 97/1/3 96/1/3 95/1/3
f 98/1/3 96/1/3 97/1/3
f 99/2/3 98/2/3 97/2/3
f 100/2/3 98/2/3 99/2/3
f 103/1/3 102/1/3 101/1/3
f 104/1/3 102/1/3 103/1/3
f 107/1/3 106/1/3 105/1/3
f 108/1/3 106/1/3 107/1/3
f 111/2/3 110/2/3 109/2/3
f 112/2/3 110/2/3 111/2/3
f 115/1/3 114/1/3 113/1/3
f 116/1/3 114/1/3 115/1/3
f 119/2/3 118/2/3 117/2/3
f 120/2/3 118/2/3 119/2/3
f 123/2/3 122/2/3 121/2/3
f 124/2/3 122/2/3 123/2/3
f 127/2/3 126/2/3 125/2/3
f 128/2/3 126/2/3 127/2/3
f 131/2/3 130/2/3 129/2/3
f 132/2/3 130/2/3 131/2/3
f 133/1/4 134/1/4 135/1/4
f 135/1/4 134/1/4 136/1/4
f 137/1/4 138/1/4 139/1/4
f 139/1/4 138/1/4 140/1/4
f 141/2/4 142/2/4 143/2/4
f 143/2/4 142/2/4 144/2/4
f 145/1/4 146/1/4 147/1/4
f 147/1/4 146/1/4 148/1/4
f 149/1/4 150/1/4 151/1/4
f 151/1/4 150/1/4 152/1/4
f 153/2/4 154/2/4 155/2/4
f 155/2/4 154/2/4 156/2/4
f 157/2/4 158/2/4 159/2/4
f 159/2/4 158/2/4 160/2/4
f 161/1/4 162/1/4 163/1/4
f 163/1/4 162/1/4 164/1/4
f 165/2/4 166/2/4 167/2/4
f 167/2/4 166/2/4 168/2/4
f 169/2/4 170/2/4 171/2/4
f 171/2/4 170/2/4 172/2/4
f 173/2/4 174/2/4 175/2/4
f 175/2/4 174/2/4 176/2/4
f 177/2/4 178/2/4 179/2/4
f 179/2/4 178/2/4 180/2/4
f 187/1/5 183/1/5 182/1/5
f 190/1/5 185/1/5 184/1/5
f 191/2/5 182/2/5 181/2/5
f 192/1/5 188/1/5 187/1/5
f 192/2/5 182/2/5 191/2/5
f 192/1/5 187/1/5 182/1/5
f 193/1/5 188/1/5 192/1/5
f 194/1/5 188/1/5 193/1/5
f 195/1/5 190/1/5 189/1/5
f 196/1/5 185/1/5 190/1/5
f 196/1/5 190/1/5 195/1/5
f 197/2/5 186/2/5 185/2/5
f 197/1/5 185/1/5 196/1/5
f 198/2/5 186/2/5 197/2/5
f 199/2/5 193/2/5 192/2/5
f 200/1/5 194/1/5 193/1/5
f 200/2/5 193/2/5 199/2/5
f 200/1/5 196/1/5 195/1/5
f 200/1/5 195/1/5 194/1/5
f 201/1/5 196/1/5 200/1/5
f 202/1/5 196/1/5 201/1/5
f 203/2/5 197/2/5 196/2/5
f 203/1/5 196/1/5 202/1/5
f 204/2/5 197/2/5 203/2/5
f 205/2/5 201/2/5 200/2/5
f 206/1/5 202/1/5 201/1/5
f 206/2/5 201/2/5 205/2/5
f 207/2/5 203/2/5 202/2/5
f 207/1/5 202/1/5 206/1/5
f 208/2/5 203/2/5 207/2/5
f 209/2/5 207/2/5 206/2/5
f 210/2/5 207/2/5 209/2/5
f 211/1/6 212/1/6 215/1/6
f 215/1/6 212/1/6 216/1/6
f 213/1/6 214/1/6 219/1/6
f 219/1/6 214/1/6 220/1/6
f 216/1/6 217/1/6 221/1/6
f 221/1/6 217/1/6 222/1/6
f 222/1/6 217/1/6 223/1/6
f 218/1/6 219/1/6 224/1/6
f 224/1/6 219/1/6 225/1/6
f 225/1/6 219/1/6 226/1/6
f 222/1/6 223/1/6 227/1/6
f 224/1/6 225/1/6 227/1/6
f 223/1/6 224/1/6 227/1/6
f 227/1/6 225/1/6 228/1/6
f 229/2/6 230/2/6 235/2/6
f 230/1/6 231/1/6 235/1/6
f 235/1/6 231/1/6 236/1/6
f 232/1/6 233/1/6 239/1/6
f 233/2/6 234/2/6 240/2/6
f 239/1/6 233/1/6 240/1/6
f 229/2/6 235/2/6 241/2/6
f 241/2/6 235/2/6 242/2/6
f 236/1/6 237/1/6 243/1/6
f 243/1/6 237/1/6 244/1/6
f 238/1/6 239/1/6 245/1/6
f 245/1/6 239/1/6 246/1/6
f 240/2/6 234/2/6 247/2/6
f 247/2/6 234/2/6 248/2/6
f 242/2/6 243/2/6 249/2/6
f 249/2/6 243/2/6 250/2/6
f 244/1/6 245/1/6 252/1/6
f 252/1/6 245/1/6 253/1/6
f 246/2/6 247/2/6 255/2/6
f 255/2/6 247/2/6 256/2/6
f 250/2/6 251/2/6 257/2/6
f 257/2/6 251/2/6 258/2/6
f 254/2/6 255/2/6 259/2/6
f 259/2/6 255/2/6 260/2/6
f 258/2/6 259/2/6 261/2/6
f 261/2/6 259/2/6 262/2/6
