# MagicaVoxel @ Ephtracy

# group
o 

# material
mtllib exite1 (stone5).mtl
usemtl palette

# normals
vn -1 0 0
vn 1 0 0
vn 0 0 1
vn 0 0 -1
vn 0 -1 0
vn 0 1 0

# texcoords
vt 0.146484 0.5
vt 0.173828 0.5

# verts
v -2.4 0 12.1
v -2.4 0 11.8
v -2.4 0.2 12.2
v -2.4 0.2 12.1
v -2.4 0.2 11.8
v -2.4 0.2 11.7
v -2.4 0.3 12.2
v -2.4 0.3 12.1
v -2.4 0.3 11.8
v -2.4 0.3 11.7
v -2.4 0.4 12.1
v -2.4 0.4 12
v -2.4 0.4 11.9
v -2.4 0.4 11.8
v -2.4 0.5 12
v -2.4 0.5 11.9
v -2.3 0 12.2
v -2.3 0 12.1
v -2.3 0 11.8
v -2.3 0 11.7
v -2.3 0.2 12.2
v -2.3 0.2 12.1
v -2.3 0.2 11.8
v -2.3 0.2 11.7
v -2.3 0.3 12.2
v -2.3 0.3 12.1
v -2.3 0.3 11.8
v -2.3 0.3 11.7
v -2.3 0.4 12.2
v -2.3 0.4 12.1
v -2.3 0.4 12
v -2.3 0.4 11.9
v -2.3 0.4 11.8
v -2.3 0.4 11.7
v -2.3 0.5 12.1
v -2.3 0.5 12
v -2.3 0.5 11.9
v -2.3 0.5 11.8
v -2.2 0.4 12.2
v -2.2 0.4 12.1
v -2.2 0.4 11.8
v -2.2 0.4 11.7
v -2.2 0.5 12.2
v -2.2 0.5 12.1
v -2.2 0.5 11.8
v -2.2 0.5 11.7
v -1.9 0.4 13.5
v -1.9 0.4 13.2
v -1.9 0.7 13.5
v -1.9 0.7 13.2
v -1.8 0.3 13.5
v -1.8 0.3 13.2
v -1.8 0.4 13.6
v -1.8 0.4 13.5
v -1.8 0.4 13.2
v -1.8 0.4 13.1
v -1.8 0.7 13.6
v -1.8 0.7 13.5
v -1.8 0.7 13.2
v -1.8 0.7 13.1
v -1.8 0.8 13.5
v -1.8 0.8 13.2
v -1.7 0.2 13.5
v -1.7 0.2 13.2
v -1.7 0.3 13.6
v -1.7 0.3 13.5
v -1.7 0.3 13.2
v -1.7 0.3 13.1
v -1.7 0.4 13.7
v -1.7 0.4 13.6
v -1.7 0.4 13.5
v -1.7 0.4 13.2
v -1.7 0.4 13.1
v -1.7 0.4 13
v -1.7 0.7 13.7
v -1.7 0.7 13.6
v -1.7 0.7 13.5
v -1.7 0.7 13.2
v -1.7 0.7 13.1
v -1.7 0.7 13
v -1.7 0.8 13.6
v -1.7 0.8 13.5
v -1.7 0.8 13.2
v -1.7 0.8 13.1
v -1.7 0.9 13.5
v -1.7 0.9 13.2
v -2.1 0.4 12.2
v -2.1 0.4 12.1
v -2.1 0.4 11.8
v -2.1 0.4 11.7
v -2.1 0.5 12.2
v -2.1 0.5 12.1
v -2.1 0.5 11.8
v -2.1 0.5 11.7
v -2 0 12.2
v -2 0 12.1
v -2 0 11.8
v -2 0 11.7
v -2 0.2 12.2
v -2 0.2 12.1
v -2 0.2 11.8
v -2 0.2 11.7
v -2 0.3 12.2
v -2 0.3 12.1
v -2 0.3 11.8
v -2 0.3 11.7
v -2 0.4 12.2
v -2 0.4 12.1
v -2 0.4 12
v -2 0.4 11.9
v -2 0.4 11.8
v -2 0.4 11.7
v -2 0.5 12.1
v -2 0.5 12
v -2 0.5 11.9
v -2 0.5 11.8
v -1.9 0 12.1
v -1.9 0 11.8
v -1.9 0.2 12.2
v -1.9 0.2 12.1
v -1.9 0.2 11.8
v -1.9 0.2 11.7
v -1.9 0.3 12.2
v -1.9 0.3 12.1
v -1.9 0.3 11.8
v -1.9 0.3 11.7
v -1.9 0.4 12.1
v -1.9 0.4 12
v -1.9 0.4 11.9
v -1.9 0.4 11.8
v -1.9 0.5 12
v -1.9 0.5 11.9
v -1.4 0.2 13.5
v -1.4 0.2 13.2
v -1.4 0.3 13.6
v -1.4 0.3 13.5
v -1.4 0.3 13.2
v -1.4 0.3 13.1
v -1.4 0.4 13.7
v -1.4 0.4 13.6
v -1.4 0.4 13.5
v -1.4 0.4 13.2
v -1.4 0.4 13.1
v -1.4 0.4 13
v -1.4 0.7 13.7
v -1.4 0.7 13.6
v -1.4 0.7 13.5
v -1.4 0.7 13.2
v -1.4 0.7 13.1
v -1.4 0.7 13
v -1.4 0.8 13.6
v -1.4 0.8 13.5
v -1.4 0.8 13.2
v -1.4 0.8 13.1
v -1.4 0.9 13.5
v -1.4 0.9 13.2
v -1.3 0.3 13.5
v -1.3 0.3 13.2
v -1.3 0.4 13.6
v -1.3 0.4 13.5
v -1.3 0.4 13.2
v -1.3 0.4 13.1
v -1.3 0.7 13.6
v -1.3 0.7 13.5
v -1.3 0.7 13.2
v -1.3 0.7 13.1
v -1.3 0.8 13.5
v -1.3 0.8 13.2
v -1.2 0.4 13.5
v -1.2 0.4 13.2
v -1.2 0.7 13.5
v -1.2 0.7 13.2
v -1.7 0.4 13.7
v -1.7 0.7 13.7
v -1.4 0.4 13.7
v -1.4 0.7 13.7
v -1.8 0.4 13.6
v -1.8 0.7 13.6
v -1.7 0.3 13.6
v -1.7 0.4 13.6
v -1.7 0.7 13.6
v -1.7 0.8 13.6
v -1.4 0.3 13.6
v -1.4 0.4 13.6
v -1.4 0.7 13.6
v -1.4 0.8 13.6
v -1.3 0.4 13.6
v -1.3 0.7 13.6
v -1.9 0.4 13.5
v -1.9 0.7 13.5
v -1.8 0.3 13.5
v -1.8 0.4 13.5
v -1.8 0.7 13.5
v -1.8 0.8 13.5
v -1.7 0.2 13.5
v -1.7 0.3 13.5
v -1.7 0.4 13.5
v -1.7 0.7 13.5
v -1.7 0.8 13.5
v -1.7 0.9 13.5
v -1.4 0.2 13.5
v -1.4 0.3 13.5
v -1.4 0.4 13.5
v -1.4 0.7 13.5
v -1.4 0.8 13.5
v -1.4 0.9 13.5
v -1.3 0.3 13.5
v -1.3 0.4 13.5
v -1.3 0.7 13.5
v -1.3 0.8 13.5
v -1.2 0.4 13.5
v -1.2 0.7 13.5
v -2.4 0.2 12.2
v -2.4 0.3 12.2
v -2.3 0 12.2
v -2.3 0.2 12.2
v -2.3 0.3 12.2
v -2.3 0.4 12.2
v -2.2 0.4 12.2
v -2.2 0.5 12.2
v -2.1 0.4 12.2
v -2.1 0.5 12.2
v -2 0 12.2
v -2 0.2 12.2
v -2 0.3 12.2
v -2 0.4 12.2
v -1.9 0.2 12.2
v -1.9 0.3 12.2
v -2.4 0 12.1
v -2.4 0.2 12.1
v -2.4 0.3 12.1
v -2.4 0.4 12.1
v -2.3 0 12.1
v -2.3 0.2 12.1
v -2.3 0.3 12.1
v -2.3 0.4 12.1
v -2.3 0.5 12.1
v -2.2 0.4 12.1
v -2.2 0.5 12.1
v -2.1 0.4 12.1
v -2.1 0.5 12.1
v -2 0 12.1
v -2 0.2 12.1
v -2 0.3 12.1
v -2 0.4 12.1
v -2 0.5 12.1
v -1.9 0 12.1
v -1.9 0.2 12.1
v -1.9 0.3 12.1
v -1.9 0.4 12.1
v -2.4 0.4 12
v -2.4 0.5 12
v -2.3 0.4 12
v -2.3 0.5 12
v -2 0.4 12
v -2 0.5 12
v -1.9 0.4 12
v -1.9 0.5 12
v -1.9 0.4 13.2
v -1.9 0.7 13.2
v -1.8 0.3 13.2
v -1.8 0.4 13.2
v -1.8 0.7 13.2
v -1.8 0.8 13.2
v -1.7 0.2 13.2
v -1.7 0.3 13.2
v -1.7 0.4 13.2
v -1.7 0.7 13.2
v -1.7 0.8 13.2
v -1.7 0.9 13.2
v -1.4 0.2 13.2
v -1.4 0.3 13.2
v -1.4 0.4 13.2
v -1.4 0.7 13.2
v -1.4 0.8 13.2
v -1.4 0.9 13.2
v -1.3 0.3 13.2
v -1.3 0.4 13.2
v -1.3 0.7 13.2
v -1.3 0.8 13.2
v -1.2 0.4 13.2
v -1.2 0.7 13.2
v -1.8 0.4 13.1
v -1.8 0.7 13.1
v -1.7 0.3 13.1
v -1.7 0.4 13.1
v -1.7 0.7 13.1
v -1.7 0.8 13.1
v -1.4 0.3 13.1
v -1.4 0.4 13.1
v -1.4 0.7 13.1
v -1.4 0.8 13.1
v -1.3 0.4 13.1
v -1.3 0.7 13.1
v -1.7 0.4 13
v -1.7 0.7 13
v -1.4 0.4 13
v -1.4 0.7 13
v -2.4 0.4 11.9
v -2.4 0.5 11.9
v -2.3 0.4 11.9
v -2.3 0.5 11.9
v -2 0.4 11.9
v -2 0.5 11.9
v -1.9 0.4 11.9
v -1.9 0.5 11.9
v -2.4 0 11.8
v -2.4 0.2 11.8
v -2.4 0.3 11.8
v -2.4 0.4 11.8
v -2.3 0 11.8
v -2.3 0.2 11.8
v -2.3 0.3 11.8
v -2.3 0.4 11.8
v -2.3 0.5 11.8
v -2.2 0.4 11.8
v -2.2 0.5 11.8
v -2.1 0.4 11.8
v -2.1 0.5 11.8
v -2 0 11.8
v -2 0.2 11.8
v -2 0.3 11.8
v -2 0.4 11.8
v -2 0.5 11.8
v -1.9 0 11.8
v -1.9 0.2 11.8
v -1.9 0.3 11.8
v -1.9 0.4 11.8
v -2.4 0.2 11.7
v -2.4 0.3 11.7
v -2.3 0 11.7
v -2.3 0.2 11.7
v -2.3 0.3 11.7
v -2.3 0.4 11.7
v -2.2 0.4 11.7
v -2.2 0.5 11.7
v -2.1 0.4 11.7
v -2.1 0.5 11.7
v -2 0 11.7
v -2 0.2 11.7
v -2 0.3 11.7
v -2 0.4 11.7
v -1.9 0.2 11.7
v -1.9 0.3 11.7
v -2.3 0 12.2
v -2 0 12.2
v -2.4 0 12.1
v -2.3 0 12.1
v -2 0 12.1
v -1.9 0 12.1
v -2.4 0 11.8
v -2.3 0 11.8
v -2 0 11.8
v -1.9 0 11.8
v -2.3 0 11.7
v -2 0 11.7
v -1.7 0.2 13.5
v -1.4 0.2 13.5
v -1.7 0.2 13.2
v -1.4 0.2 13.2
v -2.4 0.2 12.2
v -2.3 0.2 12.2
v -2 0.2 12.2
v -1.9 0.2 12.2
v -2.4 0.2 12.1
v -2.3 0.2 12.1
v -2 0.2 12.1
v -1.9 0.2 12.1
v -2.4 0.2 11.8
v -2.3 0.2 11.8
v -2 0.2 11.8
v -1.9 0.2 11.8
v -2.4 0.2 11.7
v -2.3 0.2 11.7
v -2 0.2 11.7
v -1.9 0.2 11.7
v -1.7 0.3 13.6
v -1.4 0.3 13.6
v -1.8 0.3 13.5
v -1.7 0.3 13.5
v -1.4 0.3 13.5
v -1.3 0.3 13.5
v -1.8 0.3 13.2
v -1.7 0.3 13.2
v -1.4 0.3 13.2
v -1.3 0.3 13.2
v -1.7 0.3 13.1
v -1.4 0.3 13.1
v -1.7 0.4 13.7
v -1.4 0.4 13.7
v -1.8 0.4 13.6
v -1.7 0.4 13.6
v -1.4 0.4 13.6
v -1.3 0.4 13.6
v -1.9 0.4 13.5
v -1.8 0.4 13.5
v -1.7 0.4 13.5
v -1.4 0.4 13.5
v -1.3 0.4 13.5
v -1.2 0.4 13.5
v -1.9 0.4 13.2
v -1.8 0.4 13.2
v -1.7 0.4 13.2
v -1.4 0.4 13.2
v -1.3 0.4 13.2
v -1.2 0.4 13.2
v -1.8 0.4 13.1
v -1.7 0.4 13.1
v -1.4 0.4 13.1
v -1.3 0.4 13.1
v -1.7 0.4 13
v -1.4 0.4 13
v -2.4 0.3 12.2
v -2.3 0.3 12.2
v -2 0.3 12.2
v -1.9 0.3 12.2
v -2.4 0.3 12.1
v -2.3 0.3 12.1
v -2 0.3 12.1
v -1.9 0.3 12.1
v -2.4 0.3 11.8
v -2.3 0.3 11.8
v -2 0.3 11.8
v -1.9 0.3 11.8
v -2.4 0.3 11.7
v -2.3 0.3 11.7
v -2 0.3 11.7
v -1.9 0.3 11.7
v -2.3 0.4 12.2
v -2.2 0.4 12.2
v -2.1 0.4 12.2
v -2 0.4 12.2
v -2.4 0.4 12.1
v -2.3 0.4 12.1
v -2.2 0.4 12.1
v -2.1 0.4 12.1
v -2 0.4 12.1
v -1.9 0.4 12.1
v -2.4 0.4 12
v -2.3 0.4 12
v -2 0.4 12
v -1.9 0.4 12
v -2.4 0.4 11.9
v -2.3 0.4 11.9
v -2 0.4 11.9
v -1.9 0.4 11.9
v -2.4 0.4 11.8
v -2.3 0.4 11.8
v -2.2 0.4 11.8
v -2.1 0.4 11.8
v -2 0.4 11.8
v -1.9 0.4 11.8
v -2.3 0.4 11.7
v -2.2 0.4 11.7
v -2.1 0.4 11.7
v -2 0.4 11.7
v -2.2 0.5 12.2
v -2.1 0.5 12.2
v -2.3 0.5 12.1
v -2.2 0.5 12.1
v -2.1 0.5 12.1
v -2 0.5 12.1
v -2.4 0.5 12
v -2.3 0.5 12
v -2 0.5 12
v -1.9 0.5 12
v -2.4 0.5 11.9
v -2.3 0.5 11.9
v -2 0.5 11.9
v -1.9 0.5 11.9
v -2.3 0.5 11.8
v -2.2 0.5 11.8
v -2.1 0.5 11.8
v -2 0.5 11.8
v -2.2 0.5 11.7
v -2.1 0.5 11.7
v -1.7 0.7 13.7
v -1.4 0.7 13.7
v -1.8 0.7 13.6
v -1.7 0.7 13.6
v -1.4 0.7 13.6
v -1.3 0.7 13.6
v -1.9 0.7 13.5
v -1.8 0.7 13.5
v -1.7 0.7 13.5
v -1.4 0.7 13.5
v -1.3 0.7 13.5
v -1.2 0.7 13.5
v -1.9 0.7 13.2
v -1.8 0.7 13.2
v -1.7 0.7 13.2
v -1.4 0.7 13.2
v -1.3 0.7 13.2
v -1.2 0.7 13.2
v -1.8 0.7 13.1
v -1.7 0.7 13.1
v -1.4 0.7 13.1
v -1.3 0.7 13.1
v -1.7 0.7 13
v -1.4 0.7 13
v -1.7 0.8 13.6
v -1.4 0.8 13.6
v -1.8 0.8 13.5
v -1.7 0.8 13.5
v -1.4 0.8 13.5
v -1.3 0.8 13.5
v -1.8 0.8 13.2
v -1.7 0.8 13.2
v -1.4 0.8 13.2
v -1.3 0.8 13.2
v -1.7 0.8 13.1
v -1.4 0.8 13.1
v -1.7 0.9 13.5
v -1.4 0.9 13.5
v -1.7 0.9 13.2
v -1.4 0.9 13.2

# faces
f 4/2/1 2/2/1 1/2/1
f 5/2/1 2/2/1 4/2/1
f 7/2/1 4/2/1 3/2/1
f 7/2/1 6/2/1 5/2/1
f 7/2/1 5/2/1 4/2/1
f 8/2/1 6/2/1 7/2/1
f 9/2/1 6/2/1 8/2/1
f 10/2/1 6/2/1 9/2/1
f 11/2/1 9/2/1 8/2/1
f 12/2/1 9/2/1 11/2/1
f 13/2/1 9/2/1 12/2/1
f 14/2/1 9/2/1 13/2/1
f 15/2/1 13/2/1 12/2/1
f 16/2/1 13/2/1 15/2/1
f 21/2/1 18/2/1 17/2/1
f 22/2/1 18/2/1 21/2/1
f 23/2/1 20/2/1 19/2/1
f 24/2/1 20/2/1 23/2/1
f 29/2/1 26/2/1 25/2/1
f 30/2/1 26/2/1 29/2/1
f 33/2/1 28/2/1 27/2/1
f 34/2/1 28/2/1 33/2/1
f 35/2/1 31/2/1 30/2/1
f 36/2/1 31/2/1 35/2/1
f 37/2/1 33/2/1 32/2/1
f 38/2/1 33/2/1 37/2/1
f 43/2/1 40/2/1 39/2/1
f 44/2/1 40/2/1 43/2/1
f 45/2/1 42/2/1 41/2/1
f 46/2/1 42/2/1 45/2/1
f 49/1/1 48/1/1 47/1/1
f 50/1/1 48/1/1 49/1/1
f 54/1/1 52/1/1 51/1/1
f 55/1/1 52/1/1 54/1/1
f 57/1/1 54/1/1 53/1/1
f 58/1/1 54/1/1 57/1/1
f 59/1/1 56/1/1 55/1/1
f 60/1/1 56/1/1 59/1/1
f 61/1/1 59/1/1 58/1/1
f 62/1/1 59/1/1 61/1/1
f 66/1/1 64/1/1 63/1/1
f 67/1/1 64/1/1 66/1/1
f 70/1/1 66/1/1 65/1/1
f 71/1/1 66/1/1 70/1/1
f 72/1/1 68/1/1 67/1/1
f 73/1/1 68/1/1 72/1/1
f 75/1/1 70/1/1 69/1/1
f 76/1/1 70/1/1 75/1/1
f 79/1/1 74/1/1 73/1/1
f 80/1/1 74/1/1 79/1/1
f 81/1/1 77/1/1 76/1/1
f 82/1/1 77/1/1 81/1/1
f 83/1/1 79/1/1 78/1/1
f 84/1/1 79/1/1 83/1/1
f 85/1/1 83/1/1 82/1/1
f 86/1/1 83/1/1 85/1/1
f 87/2/2 88/2/2 91/2/2
f 91/2/2 88/2/2 92/2/2
f 89/2/2 90/2/2 93/2/2
f 93/2/2 90/2/2 94/2/2
f 95/2/2 96/2/2 99/2/2
f 99/2/2 96/2/2 100/2/2
f 97/2/2 98/2/2 101/2/2
f 101/2/2 98/2/2 102/2/2
f 103/2/2 104/2/2 107/2/2
f 107/2/2 104/2/2 108/2/2
f 105/2/2 106/2/2 111/2/2
f 111/2/2 106/2/2 112/2/2
f 108/2/2 109/2/2 113/2/2
f 113/2/2 109/2/2 114/2/2
f 110/2/2 111/2/2 115/2/2
f 115/2/2 111/2/2 116/2/2
f 117/2/2 118/2/2 120/2/2
f 120/2/2 118/2/2 121/2/2
f 119/2/2 120/2/2 123/2/2
f 121/2/2 122/2/2 123/2/2
f 120/2/2 121/2/2 123/2/2
f 123/2/2 122/2/2 124/2/2
f 124/2/2 122/2/2 125/2/2
f 125/2/2 122/2/2 126/2/2
f 124/2/2 125/2/2 127/2/2
f 127/2/2 125/2/2 128/2/2
f 128/2/2 125/2/2 129/2/2
f 129/2/2 125/2/2 130/2/2
f 128/2/2 129/2/2 131/2/2
f 131/2/2 129/2/2 132/2/2
f 133/1/2 134/1/2 136/1/2
f 136/1/2 134/1/2 137/1/2
f 135/1/2 136/1/2 140/1/2
f 140/1/2 136/1/2 141/1/2
f 137/1/2 138/1/2 142/1/2
f 142/1/2 138/1/2 143/1/2
f 139/1/2 140/1/2 145/1/2
f 145/1/2 140/1/2 146/1/2
f 143/1/2 144/1/2 149/1/2
f 149/1/2 144/1/2 150/1/2
f 146/1/2 147/1/2 151/1/2
f 151/1/2 147/1/2 152/1/2
f 148/1/2 149/1/2 153/1/2
f 153/1/2 149/1/2 154/1/2
f 152/1/2 153/1/2 155/1/2
f 155/1/2 153/1/2 156/1/2
f 157/1/2 158/1/2 160/1/2
f 160/1/2 158/1/2 161/1/2
f 159/1/2 160/1/2 163/1/2
f 163/1/2 160/1/2 164/1/2
f 161/1/2 162/1/2 165/1/2
f 165/1/2 162/1/2 166/1/2
f 164/1/2 165/1/2 167/1/2
f 167/1/2 165/1/2 168/1/2
f 169/1/2 170/1/2 171/1/2
f 171/1/2 170/1/2 172/1/2
f 175/1/3 174/1/3 173/1/3
f 176/1/3 174/1/3 175/1/3
f 180/1/3 178/1/3 177/1/3
f 181/1/3 178/1/3 180/1/3
f 183/1/3 180/1/3 179/1/3
f 184/1/3 180/1/3 183/1/3
f 185/1/3 182/1/3 181/1/3
f 186/1/3 182/1/3 185/1/3
f 187/1/3 185/1/3 184/1/3
f 188/1/3 185/1/3 187/1/3
f 192/1/3 190/1/3 189/1/3
f 193/1/3 190/1/3 192/1/3
f 196/1/3 192/1/3 191/1/3
f 197/1/3 192/1/3 196/1/3
f 198/1/3 194/1/3 193/1/3
f 199/1/3 194/1/3 198/1/3
f 201/1/3 196/1/3 195/1/3
f 202/1/3 196/1/3 201/1/3
f 205/1/3 200/1/3 199/1/3
f 206/1/3 200/1/3 205/1/3
f 207/1/3 203/1/3 202/1/3
f 208/1/3 203/1/3 207/1/3
f 209/1/3 205/1/3 204/1/3
f 210/1/3 205/1/3 209/1/3
f 211/1/3 209/1/3 208/1/3
f 212/1/3 209/1/3 211/1/3
f 216/2/3 214/2/3 213/2/3
f 217/2/3 214/2/3 216/2/3
f 219/2/3 216/2/3 215/2/3
f 219/2/3 218/2/3 217/2/3
f 219/2/3 217/2/3 216/2/3
f 221/2/3 219/2/3 215/2/3
f 221/2/3 220/2/3 219/2/3
f 222/2/3 220/2/3 221/2/3
f 223/2/3 221/2/3 215/2/3
f 224/2/3 221/2/3 223/2/3
f 225/2/3 221/2/3 224/2/3
f 226/2/3 221/2/3 225/2/3
f 227/2/3 225/2/3 224/2/3
f 228/2/3 225/2/3 227/2/3
f 233/2/3 230/2/3 229/2/3
f 234/2/3 230/2/3 233/2/3
f 235/2/3 232/2/3 231/2/3
f 236/2/3 232/2/3 235/2/3
f 238/2/3 237/2/3 236/2/3
f 239/2/3 237/2/3 238/2/3
f 245/2/3 241/2/3 240/2/3
f 246/2/3 241/2/3 245/2/3
f 247/2/3 243/2/3 242/2/3
f 248/2/3 243/2/3 247/2/3
f 249/2/3 245/2/3 244/2/3
f 250/2/3 245/2/3 249/2/3
f 253/2/3 252/2/3 251/2/3
f 254/2/3 252/2/3 253/2/3
f 257/2/3 256/2/3 255/2/3
f 258/2/3 256/2/3 257/2/3
f 259/1/4 260/1/4 262/1/4
f 262/1/4 260/1/4 263/1/4
f 261/1/4 262/1/4 266/1/4
f 266/1/4 262/1/4 267/1/4
f 263/1/4 264/1/4 268/1/4
f 268/1/4 264/1/4 269/1/4
f 265/1/4 266/1/4 271/1/4
f 271/1/4 266/1/4 272/1/4
f 269/1/4 270/1/4 275/1/4
f 275/1/4 270/1/4 276/1/4
f 272/1/4 273/1/4 277/1/4
f 277/1/4 273/1/4 278/1/4
f 274/1/4 275/1/4 279/1/4
f 279/1/4 275/1/4 280/1/4
f 278/1/4 279/1/4 281/1/4
f 281/1/4 279/1/4 282/1/4
f 283/1/4 284/1/4 286/1/4
f 286/1/4 284/1/4 287/1/4
f 285/1/4 286/1/4 289/1/4
f 289/1/4 286/1/4 290/1/4
f 287/1/4 288/1/4 291/1/4
f 291/1/4 288/1/4 292/1/4
f 290/1/4 291/1/4 293/1/4
f 293/1/4 291/1/4 294/1/4
f 295/1/4 296/1/4 297/1/4
f 297/1/4 296/1/4 298/1/4
f 299/2/4 300/2/4 301/2/4
f 301/2/4 300/2/4 302/2/4
f 303/2/4 304/2/4 305/2/4
f 305/2/4 304/2/4 306/2/4
f 307/2/4 308/2/4 311/2/4
f 311/2/4 308/2/4 312/2/4
f 309/2/4 310/2/4 313/2/4
f 313/2/4 310/2/4 314/2/4
f 314/2/4 315/2/4 316/2/4
f 316/2/4 315/2/4 317/2/4
f 318/2/4 319/2/4 323/2/4
f 323/2/4 319/2/4 324/2/4
f 320/2/4 321/2/4 325/2/4
f 325/2/4 321/2/4 326/2/4
f 322/2/4 323/2/4 327/2/4
f 327/2/4 323/2/4 328/2/4
f 329/2/4 330/2/4 332/2/4
f 332/2/4 330/2/4 333/2/4
f 331/2/4 332/2/4 335/2/4
f 333/2/4 334/2/4 335/2/4
f 332/2/4 333/2/4 335/2/4
f 331/2/4 335/2/4 337/2/4
f 335/2/4 336/2/4 337/2/4
f 337/2/4 336/2/4 338/2/4
f 331/2/4 337/2/4 339/2/4
f 339/2/4 337/2/4 340/2/4
f 340/2/4 337/2/4 341/2/4
f 341/2/4 337/2/4 342/2/4
f 340/2/4 341/2/4 343/2/4
f 343/2/4 341/2/4 344/2/4
f 348/2/5 346/2/5 345/2/5
f 349/2/5 346/2/5 348/2/5
f 351/2/5 348/2/5 347/2/5
f 351/2/5 350/2/5 349/2/5
f 351/2/5 349/2/5 348/2/5
f 352/2/5 350/2/5 351/2/5
f 353/2/5 350/2/5 352/2/5
f 354/2/5 350/2/5 353/2/5
f 355/2/5 353/2/5 352/2/5
f 356/2/5 353/2/5 355/2/5
f 359/1/5 358/1/5 357/1/5
f 360/1/5 358/1/5 359/1/5
f 365/2/5 362/2/5 361/2/5
f 366/2/5 362/2/5 365/2/5
f 367/2/5 364/2/5 363/2/5
f 368/2/5 364/2/5 367/2/5
f 373/2/5 370/2/5 369/2/5
f 374/2/5 370/2/5 373/2/5
f 375/2/5 372/2/5 371/2/5
f 376/2/5 372/2/5 375/2/5
f 380/1/5 378/1/5 377/1/5
f 381/1/5 378/1/5 380/1/5
f 383/1/5 380/1/5 379/1/5
f 384/1/5 380/1/5 383/1/5
f 385/1/5 382/1/5 381/1/5
f 386/1/5 382/1/5 385/1/5
f 387/1/5 385/1/5 384/1/5
f 388/1/5 385/1/5 387/1/5
f 392/1/5 390/1/5 389/1/5
f 393/1/5 390/1/5 392/1/5
f 396/1/5 392/1/5 391/1/5
f 397/1/5 392/1/5 396/1/5
f 398/1/5 394/1/5 393/1/5
f 399/1/5 394/1/5 398/1/5
f 401/1/5 396/1/5 395/1/5
f 402/1/5 396/1/5 401/1/5
f 405/1/5 400/1/5 399/1/5
f 406/1/5 400/1/5 405/1/5
f 407/1/5 403/1/5 402/1/5
f 408/1/5 403/1/5 407/1/5
f 409/1/5 405/1/5 404/1/5
f 410/1/5 405/1/5 409/1/5
f 411/1/5 409/1/5 408/1/5
f 412/1/5 409/1/5 411/1/5
f 413/2/6 414/2/6 417/2/6
f 417/2/6 414/2/6 418/2/6
f 415/2/6 416/2/6 419/2/6
f 419/2/6 416/2/6 420/2/6
f 421/2/6 422/2/6 425/2/6
f 425/2/6 422/2/6 426/2/6
f 423/2/6 424/2/6 427/2/6
f 427/2/6 424/2/6 428/2/6
f 429/2/6 430/2/6 434/2/6
f 434/2/6 430/2/6 435/2/6
f 431/2/6 432/2/6 436/2/6
f 436/2/6 432/2/6 437/2/6
f 433/2/6 434/2/6 439/2/6
f 439/2/6 434/2/6 440/2/6
f 437/2/6 438/2/6 441/2/6
f 441/2/6 438/2/6 442/2/6
f 443/2/6 444/2/6 447/2/6
f 447/2/6 444/2/6 448/2/6
f 445/2/6 446/2/6 451/2/6
f 451/2/6 446/2/6 452/2/6
f 448/2/6 449/2/6 453/2/6
f 453/2/6 449/2/6 454/2/6
f 450/2/6 451/2/6 455/2/6
f 455/2/6 451/2/6 456/2/6
f 457/2/6 458/2/6 460/2/6
f 460/2/6 458/2/6 461/2/6
f 459/2/6 460/2/6 464/2/6
f 461/2/6 462/2/6 464/2/6
f 460/2/6 461/2/6 464/2/6
f 464/2/6 462/2/6 465/2/6
f 463/2/6 464/2/6 467/2/6
f 465/2/6 466/2/6 467/2/6
f 464/2/6 465/2/6 467/2/6
f 467/2/6 466/2/6 468/2/6
f 468/2/6 466/2/6 469/2/6
f 469/2/6 466/2/6 470/2/6
f 468/2/6 469/2/6 471/2/6
f 471/2/6 469/2/6 472/2/6
f 472/2/6 469/2/6 473/2/6
f 473/2/6 469/2/6 474/2/6
f 472/2/6 473/2/6 475/2/6
f 475/2/6 473/2/6 476/2/6
f 477/1/6 478/1/6 480/1/6
f 480/1/6 478/1/6 481/1/6
f 479/1/6 480/1/6 484/1/6
f 484/1/6 480/1/6 485/1/6
f 481/1/6 482/1/6 486/1/6
f 486/1/6 482/1/6 487/1/6
f 483/1/6 484/1/6 489/1/6
f 489/1/6 484/1/6 490/1/6
f 487/1/6 488/1/6 493/1/6
f 493/1/6 488/1/6 494/1/6
f 490/1/6 491/1/6 495/1/6
f 495/1/6 491/1/6 496/1/6
f 492/1/6 493/1/6 497/1/6
f 497/1/6 493/1/6 498/1/6
f 496/1/6 497/1/6 499/1/6
f 499/1/6 497/1/6 500/1/6
f 501/1/6 502/1/6 504/1/6
f 504/1/6 502/1/6 505/1/6
f 503/1/6 504/1/6 507/1/6
f 507/1/6 504/1/6 508/1/6
f 505/1/6 506/1/6 509/1/6
f 509/1/6 506/1/6 510/1/6
f 508/1/6 509/1/6 511/1/6
f 511/1/6 509/1/6 512/1/6
f 513/1/6 514/1/6 515/1/6
f 515/1/6 514/1/6 516/1/6
