# MagicaVoxel @ Ephtracy

# group
o 

# material
mtllib rails 2.mtl
usemtl palette

# normals
vn -1 0 0
vn 1 0 0
vn 0 0 1
vn 0 0 -1
vn 0 -1 0
vn 0 1 0

# texcoords
vt 0.310547 0.5
vt 0.970703 0.5
vt 0.974609 0.5

# verts
v -2.5 0 3.8
v -2.5 0 3.4
v -2.5 0 3
v -2.5 0 2.6
v -2.5 0 2.3
v -2.5 0 1.9
v -2.5 0 1.5
v -2.5 0 1.1
v -2.5 0 0.8
v -2.5 0 0.4
v -2.5 0 0
v -2.5 0 -0.4
v -2.5 0.1 3.8
v -2.5 0.1 3.4
v -2.5 0.1 3
v -2.5 0.1 2.6
v -2.5 0.1 2.3
v -2.5 0.1 1.9
v -2.5 0.1 1.5
v -2.5 0.1 1.1
v -2.5 0.1 0.8
v -2.5 0.1 0.4
v -2.5 0.1 0
v -2.5 0.1 -0.4
v -1.8 0.1 4.2
v -1.8 0.1 3.8
v -1.8 0.1 3.4
v -1.8 0.1 3
v -1.8 0.1 2.6
v -1.8 0.1 2.3
v -1.8 0.1 1.9
v -1.8 0.1 1.5
v -1.8 0.1 1.1
v -1.8 0.1 0.8
v -1.8 0.1 0.4
v -1.8 0.1 0
v -1.8 0.1 -0.4
v -1.8 0.1 -0.8
v -1.8 0.2 4.2
v -1.8 0.2 -0.8
v 1.4 0.1 4.2
v 1.4 0.1 3.8
v 1.4 0.1 3.4
v 1.4 0.1 3
v 1.4 0.1 2.6
v 1.4 0.1 2.3
v 1.4 0.1 1.9
v 1.4 0.1 1.5
v 1.4 0.1 1.1
v 1.4 0.1 0.8
v 1.4 0.1 0.4
v 1.4 0.1 0
v 1.4 0.1 -0.4
v 1.4 0.1 -0.8
v 1.4 0.2 4.2
v 1.4 0.2 -0.8
v -1.4 0.1 4.2
v -1.4 0.1 3.8
v -1.4 0.1 3.4
v -1.4 0.1 3
v -1.4 0.1 2.6
v -1.4 0.1 2.3
v -1.4 0.1 1.9
v -1.4 0.1 1.5
v -1.4 0.1 1.1
v -1.4 0.1 0.8
v -1.4 0.1 0.4
v -1.4 0.1 0
v -1.4 0.1 -0.4
v -1.4 0.1 -0.8
v -1.4 0.2 4.2
v -1.4 0.2 -0.8
v 1.8 0.1 4.2
v 1.8 0.1 3.8
v 1.8 0.1 3.4
v 1.8 0.1 3
v 1.8 0.1 2.6
v 1.8 0.1 2.3
v 1.8 0.1 1.9
v 1.8 0.1 1.5
v 1.8 0.1 1.1
v 1.8 0.1 0.8
v 1.8 0.1 0.4
v 1.8 0.1 0
v 1.8 0.1 -0.4
v 1.8 0.1 -0.8
v 1.8 0.2 4.2
v 1.8 0.2 -0.8
v 2.5 0 3.8
v 2.5 0 3.4
v 2.5 0 3
v 2.5 0 2.6
v 2.5 0 2.3
v 2.5 0 1.9
v 2.5 0 1.5
v 2.5 0 1.1
v 2.5 0 0.8
v 2.5 0 0.4
v 2.5 0 0
v 2.5 0 -0.4
v 2.5 0.1 3.8
v 2.5 0.1 3.4
v 2.5 0.1 3
v 2.5 0.1 2.6
v 2.5 0.1 2.3
v 2.5 0.1 1.9
v 2.5 0.1 1.5
v 2.5 0.1 1.1
v 2.5 0.1 0.8
v 2.5 0.1 0.4
v 2.5 0.1 0
v 2.5 0.1 -0.4
v -1.8 0.1 4.2
v -1.8 0.2 4.2
v -1.7 0.1 4.2
v -1.7 0.2 4.2
v -1.5 0.1 4.2
v -1.5 0.2 4.2
v -1.4 0.1 4.2
v -1.4 0.2 4.2
v 1.4 0.1 4.2
v 1.4 0.2 4.2
v 1.5 0.1 4.2
v 1.5 0.2 4.2
v 1.7 0.1 4.2
v 1.7 0.2 4.2
v 1.8 0.1 4.2
v 1.8 0.2 4.2
v -2.5 0 3.8
v -2.5 0.1 3.8
v -1.8 0.1 3.8
v -1.7 0.1 3.8
v -1.5 0.1 3.8
v -1.4 0.1 3.8
v 1.4 0.1 3.8
v 1.5 0.1 3.8
v 1.7 0.1 3.8
v 1.8 0.1 3.8
v 2.5 0 3.8
v 2.5 0.1 3.8
v -2.5 0 3
v -2.5 0.1 3
v -1.8 0.1 3
v -1.7 0.1 3
v -1.5 0.1 3
v -1.4 0.1 3
v 1.4 0.1 3
v 1.5 0.1 3
v 1.7 0.1 3
v 1.8 0.1 3
v 2.5 0 3
v 2.5 0.1 3
v -2.5 0 2.3
v -2.5 0.1 2.3
v -1.8 0.1 2.3
v -1.7 0.1 2.3
v -1.5 0.1 2.3
v -1.4 0.1 2.3
v 1.4 0.1 2.3
v 1.5 0.1 2.3
v 1.7 0.1 2.3
v 1.8 0.1 2.3
v 2.5 0 2.3
v 2.5 0.1 2.3
v -2.5 0 1.5
v -2.5 0.1 1.5
v -1.8 0.1 1.5
v -1.7 0.1 1.5
v -1.5 0.1 1.5
v -1.4 0.1 1.5
v 1.4 0.1 1.5
v 1.5 0.1 1.5
v 1.7 0.1 1.5
v 1.8 0.1 1.5
v 2.5 0 1.5
v 2.5 0.1 1.5
v -2.5 0 0.8
v -2.5 0.1 0.8
v -1.8 0.1 0.8
v -1.7 0.1 0.8
v -1.5 0.1 0.8
v -1.4 0.1 0.8
v 1.4 0.1 0.8
v 1.5 0.1 0.8
v 1.7 0.1 0.8
v 1.8 0.1 0.8
v 2.5 0 0.8
v 2.5 0.1 0.8
v -2.5 0 0
v -2.5 0.1 0
v -1.8 0.1 0
v -1.7 0.1 0
v -1.5 0.1 0
v -1.4 0.1 0
v 1.4 0.1 0
v 1.5 0.1 0
v 1.7 0.1 0
v 1.8 0.1 0
v 2.5 0 0
v 2.5 0.1 0
v -2.5 0 3.4
v -2.5 0.1 3.4
v -1.8 0.1 3.4
v -1.7 0.1 3.4
v -1.5 0.1 3.4
v -1.4 0.1 3.4
v 1.4 0.1 3.4
v 1.5 0.1 3.4
v 1.7 0.1 3.4
v 1.8 0.1 3.4
v 2.5 0 3.4
v 2.5 0.1 3.4
v -2.5 0 2.6
v -2.5 0.1 2.6
v -1.8 0.1 2.6
v -1.7 0.1 2.6
v -1.5 0.1 2.6
v -1.4 0.1 2.6
v 1.4 0.1 2.6
v 1.5 0.1 2.6
v 1.7 0.1 2.6
v 1.8 0.1 2.6
v 2.5 0 2.6
v 2.5 0.1 2.6
v -2.5 0 1.9
v -2.5 0.1 1.9
v -1.8 0.1 1.9
v -1.7 0.1 1.9
v -1.5 0.1 1.9
v -1.4 0.1 1.9
v 1.4 0.1 1.9
v 1.5 0.1 1.9
v 1.7 0.1 1.9
v 1.8 0.1 1.9
v 2.5 0 1.9
v 2.5 0.1 1.9
v -2.5 0 1.1
v -2.5 0.1 1.1
v -1.8 0.1 1.1
v -1.7 0.1 1.1
v -1.5 0.1 1.1
v -1.4 0.1 1.1
v 1.4 0.1 1.1
v 1.5 0.1 1.1
v 1.7 0.1 1.1
v 1.8 0.1 1.1
v 2.5 0 1.1
v 2.5 0.1 1.1
v -2.5 0 0.4
v -2.5 0.1 0.4
v -1.8 0.1 0.4
v -1.7 0.1 0.4
v -1.5 0.1 0.4
v -1.4 0.1 0.4
v 1.4 0.1 0.4
v 1.5 0.1 0.4
v 1.7 0.1 0.4
v 1.8 0.1 0.4
v 2.5 0 0.4
v 2.5 0.1 0.4
v -2.5 0 -0.4
v -2.5 0.1 -0.4
v -1.8 0.1 -0.4
v -1.7 0.1 -0.4
v -1.5 0.1 -0.4
v -1.4 0.1 -0.4
v 1.4 0.1 -0.4
v 1.5 0.1 -0.4
v 1.7 0.1 -0.4
v 1.8 0.1 -0.4
v 2.5 0 -0.4
v 2.5 0.1 -0.4
v -1.8 0.1 -0.8
v -1.8 0.2 -0.8
v -1.7 0.1 -0.8
v -1.7 0.2 -0.8
v -1.5 0.1 -0.8
v -1.5 0.2 -0.8
v -1.4 0.1 -0.8
v -1.4 0.2 -0.8
v 1.4 0.1 -0.8
v 1.4 0.2 -0.8
v 1.5 0.1 -0.8
v 1.5 0.2 -0.8
v 1.7 0.1 -0.8
v 1.7 0.2 -0.8
v 1.8 0.1 -0.8
v 1.8 0.2 -0.8
v -2.5 0 3.8
v 2.5 0 3.8
v -2.5 0 3.4
v 2.5 0 3.4
v -2.5 0 3
v 2.5 0 3
v -2.5 0 2.6
v 2.5 0 2.6
v -2.5 0 2.3
v 2.5 0 2.3
v -2.5 0 1.9
v 2.5 0 1.9
v -2.5 0 1.5
v 2.5 0 1.5
v -2.5 0 1.1
v 2.5 0 1.1
v -2.5 0 0.8
v 2.5 0 0.8
v -2.5 0 0.4
v 2.5 0 0.4
v -2.5 0 0
v 2.5 0 0
v -2.5 0 -0.4
v 2.5 0 -0.4
v -1.8 0.1 4.2
v -1.7 0.1 4.2
v -1.5 0.1 4.2
v -1.4 0.1 4.2
v 1.4 0.1 4.2
v 1.5 0.1 4.2
v 1.7 0.1 4.2
v 1.8 0.1 4.2
v -1.8 0.1 3.8
v -1.7 0.1 3.8
v -1.5 0.1 3.8
v -1.4 0.1 3.8
v 1.4 0.1 3.8
v 1.5 0.1 3.8
v 1.7 0.1 3.8
v 1.8 0.1 3.8
v -1.8 0.1 3.4
v -1.7 0.1 3.4
v -1.5 0.1 3.4
v -1.4 0.1 3.4
v 1.4 0.1 3.4
v 1.5 0.1 3.4
v 1.7 0.1 3.4
v 1.8 0.1 3.4
v -1.8 0.1 3
v -1.7 0.1 3
v -1.5 0.1 3
v -1.4 0.1 3
v 1.4 0.1 3
v 1.5 0.1 3
v 1.7 0.1 3
v 1.8 0.1 3
v -1.8 0.1 2.6
v -1.7 0.1 2.6
v -1.5 0.1 2.6
v -1.4 0.1 2.6
v 1.4 0.1 2.6
v 1.5 0.1 2.6
v 1.7 0.1 2.6
v 1.8 0.1 2.6
v -1.8 0.1 2.3
v -1.7 0.1 2.3
v -1.5 0.1 2.3
v -1.4 0.1 2.3
v 1.4 0.1 2.3
v 1.5 0.1 2.3
v 1.7 0.1 2.3
v 1.8 0.1 2.3
v -1.8 0.1 1.9
v -1.7 0.1 1.9
v -1.5 0.1 1.9
v -1.4 0.1 1.9
v 1.4 0.1 1.9
v 1.5 0.1 1.9
v 1.7 0.1 1.9
v 1.8 0.1 1.9
v -1.8 0.1 1.5
v -1.7 0.1 1.5
v -1.5 0.1 1.5
v -1.4 0.1 1.5
v 1.4 0.1 1.5
v 1.5 0.1 1.5
v 1.7 0.1 1.5
v 1.8 0.1 1.5
v -1.8 0.1 1.1
v -1.7 0.1 1.1
v -1.5 0.1 1.1
v -1.4 0.1 1.1
v 1.4 0.1 1.1
v 1.5 0.1 1.1
v 1.7 0.1 1.1
v 1.8 0.1 1.1
v -1.8 0.1 0.8
v -1.7 0.1 0.8
v -1.5 0.1 0.8
v -1.4 0.1 0.8
v 1.4 0.1 0.8
v 1.5 0.1 0.8
v 1.7 0.1 0.8
v 1.8 0.1 0.8
v -1.8 0.1 0.4
v -1.7 0.1 0.4
v -1.5 0.1 0.4
v -1.4 0.1 0.4
v 1.4 0.1 0.4
v 1.5 0.1 0.4
v 1.7 0.1 0.4
v 1.8 0.1 0.4
v -1.8 0.1 0
v -1.7 0.1 0
v -1.5 0.1 0
v -1.4 0.1 0
v 1.4 0.1 0
v 1.5 0.1 0
v 1.7 0.1 0
v 1.8 0.1 0
v -1.8 0.1 -0.4
v -1.7 0.1 -0.4
v -1.5 0.1 -0.4
v -1.4 0.1 -0.4
v 1.4 0.1 -0.4
v 1.5 0.1 -0.4
v 1.7 0.1 -0.4
v 1.8 0.1 -0.4
v -1.8 0.1 -0.8
v -1.7 0.1 -0.8
v -1.5 0.1 -0.8
v -1.4 0.1 -0.8
v 1.4 0.1 -0.8
v 1.5 0.1 -0.8
v 1.7 0.1 -0.8
v 1.8 0.1 -0.8
v -2.5 0.1 3.8
v -1.8 0.1 3.8
v -1.4 0.1 3.8
v 1.4 0.1 3.8
v 1.8 0.1 3.8
v 2.5 0.1 3.8
v -2.5 0.1 3.4
v -1.8 0.1 3.4
v -1.4 0.1 3.4
v 1.4 0.1 3.4
v 1.8 0.1 3.4
v 2.5 0.1 3.4
v -2.5 0.1 3
v -1.8 0.1 3
v -1.4 0.1 3
v 1.4 0.1 3
v 1.8 0.1 3
v 2.5 0.1 3
v -2.5 0.1 2.6
v -1.8 0.1 2.6
v -1.4 0.1 2.6
v 1.4 0.1 2.6
v 1.8 0.1 2.6
v 2.5 0.1 2.6
v -2.5 0.1 2.3
v -1.8 0.1 2.3
v -1.4 0.1 2.3
v 1.4 0.1 2.3
v 1.8 0.1 2.3
v 2.5 0.1 2.3
v -2.5 0.1 1.9
v -1.8 0.1 1.9
v -1.4 0.1 1.9
v 1.4 0.1 1.9
v 1.8 0.1 1.9
v 2.5 0.1 1.9
v -2.5 0.1 1.5
v -1.8 0.1 1.5
v -1.4 0.1 1.5
v 1.4 0.1 1.5
v 1.8 0.1 1.5
v 2.5 0.1 1.5
v -2.5 0.1 1.1
v -1.8 0.1 1.1
v -1.4 0.1 1.1
v 1.4 0.1 1.1
v 1.8 0.1 1.1
v 2.5 0.1 1.1
v -2.5 0.1 0.8
v -1.8 0.1 0.8
v -1.4 0.1 0.8
v 1.4 0.1 0.8
v 1.8 0.1 0.8
v 2.5 0.1 0.8
v -2.5 0.1 0.4
v -1.8 0.1 0.4
v -1.4 0.1 0.4
v 1.4 0.1 0.4
v 1.8 0.1 0.4
v 2.5 0.1 0.4
v -2.5 0.1 0
v -1.8 0.1 0
v -1.4 0.1 0
v 1.4 0.1 0
v 1.8 0.1 0
v 2.5 0.1 0
v -2.5 0.1 -0.4
v -1.8 0.1 -0.4
v -1.4 0.1 -0.4
v 1.4 0.1 -0.4
v 1.8 0.1 -0.4
v 2.5 0.1 -0.4
v -1.8 0.2 4.2
v -1.7 0.2 4.2
v -1.5 0.2 4.2
v -1.4 0.2 4.2
v 1.4 0.2 4.2
v 1.5 0.2 4.2
v 1.7 0.2 4.2
v 1.8 0.2 4.2
v -1.8 0.2 -0.8
v -1.7 0.2 -0.8
v -1.5 0.2 -0.8
v -1.4 0.2 -0.8
v 1.4 0.2 -0.8
v 1.5 0.2 -0.8
v 1.7 0.2 -0.8
v 1.8 0.2 -0.8

# faces
f 13/1/1 2/1/1 1/1/1
f 14/1/1 2/1/1 13/1/1
f 15/1/1 4/1/1 3/1/1
f 16/1/1 4/1/1 15/1/1
f 17/1/1 6/1/1 5/1/1
f 18/1/1 6/1/1 17/1/1
f 19/1/1 8/1/1 7/1/1
f 20/1/1 8/1/1 19/1/1
f 21/1/1 10/1/1 9/1/1
f 22/1/1 10/1/1 21/1/1
f 23/1/1 12/1/1 11/1/1
f 24/1/1 12/1/1 23/1/1
f 39/2/1 26/2/1 25/2/1
f 39/2/1 38/2/1 37/2/1
f 39/2/1 37/2/1 36/2/1
f 39/2/1 36/2/1 35/2/1
f 39/2/1 35/2/1 34/2/1
f 39/2/1 34/2/1 33/2/1
f 39/2/1 33/2/1 32/2/1
f 39/2/1 32/2/1 31/2/1
f 39/2/1 31/2/1 30/2/1
f 39/2/1 30/2/1 29/2/1
f 39/2/1 29/2/1 28/2/1
f 39/2/1 28/2/1 27/2/1
f 39/2/1 27/2/1 26/2/1
f 40/2/1 38/2/1 39/2/1
f 55/2/1 42/2/1 41/2/1
f 55/2/1 54/2/1 53/2/1
f 55/2/1 53/2/1 52/2/1
f 55/2/1 52/2/1 51/2/1
f 55/2/1 51/2/1 50/2/1
f 55/2/1 50/2/1 49/2/1
f 55/2/1 49/2/1 48/2/1
f 55/2/1 48/2/1 47/2/1
f 55/2/1 47/2/1 46/2/1
f 55/2/1 46/2/1 45/2/1
f 55/2/1 45/2/1 44/2/1
f 55/2/1 44/2/1 43/2/1
f 55/2/1 43/2/1 42/2/1
f 56/2/1 54/2/1 55/2/1
f 57/2/2 58/2/2 71/2/2
f 69/2/2 70/2/2 71/2/2
f 68/2/2 69/2/2 71/2/2
f 67/2/2 68/2/2 71/2/2
f 66/2/2 67/2/2 71/2/2
f 65/2/2 66/2/2 71/2/2
f 64/2/2 65/2/2 71/2/2
f 63/2/2 64/2/2 71/2/2
f 62/2/2 63/2/2 71/2/2
f 61/2/2 62/2/2 71/2/2
f 60/2/2 61/2/2 71/2/2
f 59/2/2 60/2/2 71/2/2
f 58/2/2 59/2/2 71/2/2
f 71/2/2 70/2/2 72/2/2
f 73/2/2 74/2/2 87/2/2
f 85/2/2 86/2/2 87/2/2
f 84/2/2 85/2/2 87/2/2
f 83/2/2 84/2/2 87/2/2
f 82/2/2 83/2/2 87/2/2
f 81/2/2 82/2/2 87/2/2
f 80/2/2 81/2/2 87/2/2
f 79/2/2 80/2/2 87/2/2
f 78/2/2 79/2/2 87/2/2
f 77/2/2 78/2/2 87/2/2
f 76/2/2 77/2/2 87/2/2
f 75/2/2 76/2/2 87/2/2
f 74/2/2 75/2/2 87/2/2
f 87/2/2 86/2/2 88/2/2
f 89/1/2 90/1/2 101/1/2
f 101/1/2 90/1/2 102/1/2
f 91/1/2 92/1/2 103/1/2
f 103/1/2 92/1/2 104/1/2
f 93/1/2 94/1/2 105/1/2
f 105/1/2 94/1/2 106/1/2
f 95/1/2 96/1/2 107/1/2
f 107/1/2 96/1/2 108/1/2
f 97/1/2 98/1/2 109/1/2
f 109/1/2 98/1/2 110/1/2
f 99/1/2 100/1/2 111/1/2
f 111/1/2 100/1/2 112/1/2
f 115/2/3 114/2/3 113/2/3
f 116/2/3 114/2/3 115/2/3
f 117/3/3 116/3/3 115/3/3
f 118/3/3 116/3/3 117/3/3
f 119/2/3 118/2/3 117/2/3
f 120/2/3 118/2/3 119/2/3
f 123/2/3 122/2/3 121/2/3
f 124/2/3 122/2/3 123/2/3
f 125/3/3 124/3/3 123/3/3
f 126/3/3 124/3/3 125/3/3
f 127/2/3 126/2/3 125/2/3
f 128/2/3 126/2/3 127/2/3
f 131/1/3 130/1/3 129/1/3
f 132/1/3 131/1/3 129/1/3
f 133/1/3 132/1/3 129/1/3
f 134/1/3 133/1/3 129/1/3
f 135/1/3 134/1/3 129/1/3
f 136/1/3 135/1/3 129/1/3
f 137/1/3 136/1/3 129/1/3
f 138/1/3 137/1/3 129/1/3
f 139/1/3 138/1/3 129/1/3
f 140/1/3 138/1/3 139/1/3
f 143/1/3 142/1/3 141/1/3
f 144/1/3 143/1/3 141/1/3
f 145/1/3 144/1/3 141/1/3
f 146/1/3 145/1/3 141/1/3
f 147/1/3 146/1/3 141/1/3
f 148/1/3 147/1/3 141/1/3
f 149/1/3 148/1/3 141/1/3
f 150/1/3 149/1/3 141/1/3
f 151/1/3 150/1/3 141/1/3
f 152/1/3 150/1/3 151/1/3
f 155/1/3 154/1/3 153/1/3
f 156/1/3 155/1/3 153/1/3
f 157/1/3 156/1/3 153/1/3
f 158/1/3 157/1/3 153/1/3
f 159/1/3 158/1/3 153/1/3
f 160/1/3 159/1/3 153/1/3
f 161/1/3 160/1/3 153/1/3
f 162/1/3 161/1/3 153/1/3
f 163/1/3 162/1/3 153/1/3
f 164/1/3 162/1/3 163/1/3
f 167/1/3 166/1/3 165/1/3
f 168/1/3 167/1/3 165/1/3
f 169/1/3 168/1/3 165/1/3
f 170/1/3 169/1/3 165/1/3
f 171/1/3 170/1/3 165/1/3
f 172/1/3 171/1/3 165/1/3
f 173/1/3 172/1/3 165/1/3
f 174/1/3 173/1/3 165/1/3
f 175/1/3 174/1/3 165/1/3
f 176/1/3 174/1/3 175/1/3
f 179/1/3 178/1/3 177/1/3
f 180/1/3 179/1/3 177/1/3
f 181/1/3 180/1/3 177/1/3
f 182/1/3 181/1/3 177/1/3
f 183/1/3 182/1/3 177/1/3
f 184/1/3 183/1/3 177/1/3
f 185/1/3 184/1/3 177/1/3
f 186/1/3 185/1/3 177/1/3
f 187/1/3 186/1/3 177/1/3
f 188/1/3 186/1/3 187/1/3
f 191/1/3 190/1/3 189/1/3
f 192/1/3 191/1/3 189/1/3
f 193/1/3 192/1/3 189/1/3
f 194/1/3 193/1/3 189/1/3
f 195/1/3 194/1/3 189/1/3
f 196/1/3 195/1/3 189/1/3
f 197/1/3 196/1/3 189/1/3
f 198/1/3 197/1/3 189/1/3
f 199/1/3 198/1/3 189/1/3
f 200/1/3 198/1/3 199/1/3
f 201/1/4 202/1/4 203/1/4
f 201/1/4 203/1/4 204/1/4
f 201/1/4 204/1/4 205/1/4
f 201/1/4 205/1/4 206/1/4
f 201/1/4 206/1/4 207/1/4
f 201/1/4 207/1/4 208/1/4
f 201/1/4 208/1/4 209/1/4
f 201/1/4 209/1/4 210/1/4
f 201/1/4 210/1/4 211/1/4
f 211/1/4 210/1/4 212/1/4
f 213/1/4 214/1/4 215/1/4
f 213/1/4 215/1/4 216/1/4
f 213/1/4 216/1/4 217/1/4
f 213/1/4 217/1/4 218/1/4
f 213/1/4 218/1/4 219/1/4
f 213/1/4 219/1/4 220/1/4
f 213/1/4 220/1/4 221/1/4
f 213/1/4 221/1/4 222/1/4
f 213/1/4 222/1/4 223/1/4
f 223/1/4 222/1/4 224/1/4
f 225/1/4 226/1/4 227/1/4
f 225/1/4 227/1/4 228/1/4
f 225/1/4 228/1/4 229/1/4
f 225/1/4 229/1/4 230/1/4
f 225/1/4 230/1/4 231/1/4
f 225/1/4 231/1/4 232/1/4
f 225/1/4 232/1/4 233/1/4
f 225/1/4 233/1/4 234/1/4
f 225/1/4 234/1/4 235/1/4
f 235/1/4 234/1/4 236/1/4
f 237/1/4 238/1/4 239/1/4
f 237/1/4 239/1/4 240/1/4
f 237/1/4 240/1/4 241/1/4
f 237/1/4 241/1/4 242/1/4
f 237/1/4 242/1/4 243/1/4
f 237/1/4 243/1/4 244/1/4
f 237/1/4 244/1/4 245/1/4
f 237/1/4 245/1/4 246/1/4
f 237/1/4 246/1/4 247/1/4
f 247/1/4 246/1/4 248/1/4
f 249/1/4 250/1/4 251/1/4
f 249/1/4 251/1/4 252/1/4
f 249/1/4 252/1/4 253/1/4
f 249/1/4 253/1/4 254/1/4
f 249/1/4 254/1/4 255/1/4
f 249/1/4 255/1/4 256/1/4
f 249/1/4 256/1/4 257/1/4
f 249/1/4 257/1/4 258/1/4
f 249/1/4 258/1/4 259/1/4
f 259/1/4 258/1/4 260/1/4
f 261/1/4 262/1/4 263/1/4
f 261/1/4 263/1/4 264/1/4
f 261/1/4 264/1/4 265/1/4
f 261/1/4 265/1/4 266/1/4
f 261/1/4 266/1/4 267/1/4
f 261/1/4 267/1/4 268/1/4
f 261/1/4 268/1/4 269/1/4
f 261/1/4 269/1/4 270/1/4
f 261/1/4 270/1/4 271/1/4
f 271/1/4 270/1/4 272/1/4
f 273/2/4 274/2/4 275/2/4
f 275/2/4 274/2/4 276/2/4
f 275/3/4 276/3/4 277/3/4
f 277/3/4 276/3/4 278/3/4
f 277/2/4 278/2/4 279/2/4
f 279/2/4 278/2/4 280/2/4
f 281/2/4 282/2/4 283/2/4
f 283/2/4 282/2/4 284/2/4
f 283/3/4 284/3/4 285/3/4
f 285/3/4 284/3/4 286/3/4
f 285/2/4 286/2/4 287/2/4
f 287/2/4 286/2/4 288/2/4
f 291/1/5 290/1/5 289/1/5
f 292/1/5 290/1/5 291/1/5
f 295/1/5 294/1/5 293/1/5
f 296/1/5 294/1/5 295/1/5
f 299/1/5 298/1/5 297/1/5
f 300/1/5 298/1/5 299/1/5
f 303/1/5 302/1/5 301/1/5
f 304/1/5 302/1/5 303/1/5
f 307/1/5 306/1/5 305/1/5
f 308/1/5 306/1/5 307/1/5
f 311/1/5 310/1/5 309/1/5
f 312/1/5 310/1/5 311/1/5
f 321/2/5 314/2/5 313/2/5
f 322/3/5 315/3/5 314/3/5
f 322/2/5 314/2/5 321/2/5
f 323/2/5 316/2/5 315/2/5
f 323/3/5 315/3/5 322/3/5
f 324/2/5 316/2/5 323/2/5
f 325/2/5 318/2/5 317/2/5
f 326/3/5 319/3/5 318/3/5
f 326/2/5 318/2/5 325/2/5
f 327/2/5 320/2/5 319/2/5
f 327/3/5 319/3/5 326/3/5
f 328/2/5 320/2/5 327/2/5
f 337/2/5 330/2/5 329/2/5
f 338/3/5 331/3/5 330/3/5
f 338/2/5 330/2/5 337/2/5
f 339/2/5 332/2/5 331/2/5
f 339/3/5 331/3/5 338/3/5
f 340/2/5 332/2/5 339/2/5
f 341/2/5 334/2/5 333/2/5
f 342/3/5 335/3/5 334/3/5
f 342/2/5 334/2/5 341/2/5
f 343/2/5 336/2/5 335/2/5
f 343/3/5 335/3/5 342/3/5
f 344/2/5 336/2/5 343/2/5
f 353/2/5 346/2/5 345/2/5
f 354/3/5 347/3/5 346/3/5
f 354/2/5 346/2/5 353/2/5
f 355/2/5 348/2/5 347/2/5
f 355/3/5 347/3/5 354/3/5
f 356/2/5 348/2/5 355/2/5
f 357/2/5 350/2/5 349/2/5
f 358/3/5 351/3/5 350/3/5
f 358/2/5 350/2/5 357/2/5
f 359/2/5 352/2/5 351/2/5
f 359/3/5 351/3/5 358/3/5
f 360/2/5 352/2/5 359/2/5
f 369/2/5 362/2/5 361/2/5
f 370/3/5 363/3/5 362/3/5
f 370/2/5 362/2/5 369/2/5
f 371/2/5 364/2/5 363/2/5
f 371/3/5 363/3/5 370/3/5
f 372/2/5 364/2/5 371/2/5
f 373/2/5 366/2/5 365/2/5
f 374/3/5 367/3/5 366/3/5
f 374/2/5 366/2/5 373/2/5
f 375/2/5 368/2/5 367/2/5
f 375/3/5 367/3/5 374/3/5
f 376/2/5 368/2/5 375/2/5
f 385/2/5 378/2/5 377/2/5
f 386/3/5 379/3/5 378/3/5
f 386/2/5 378/2/5 385/2/5
f 387/2/5 380/2/5 379/2/5
f 387/3/5 379/3/5 386/3/5
f 388/2/5 380/2/5 387/2/5
f 389/2/5 382/2/5 381/2/5
f 390/3/5 383/3/5 382/3/5
f 390/2/5 382/2/5 389/2/5
f 391/2/5 384/2/5 383/2/5
f 391/3/5 383/3/5 390/3/5
f 392/2/5 384/2/5 391/2/5
f 401/2/5 394/2/5 393/2/5
f 402/3/5 395/3/5 394/3/5
f 402/2/5 394/2/5 401/2/5
f 403/2/5 396/2/5 395/2/5
f 403/3/5 395/3/5 402/3/5
f 404/2/5 396/2/5 403/2/5
f 405/2/5 398/2/5 397/2/5
f 406/3/5 399/3/5 398/3/5
f 406/2/5 398/2/5 405/2/5
f 407/2/5 400/2/5 399/2/5
f 407/3/5 399/3/5 406/3/5
f 408/2/5 400/2/5 407/2/5
f 417/2/5 410/2/5 409/2/5
f 418/3/5 411/3/5 410/3/5
f 418/2/5 410/2/5 417/2/5
f 419/2/5 412/2/5 411/2/5
f 419/3/5 411/3/5 418/3/5
f 420/2/5 412/2/5 419/2/5
f 421/2/5 414/2/5 413/2/5
f 422/3/5 415/3/5 414/3/5
f 422/2/5 414/2/5 421/2/5
f 423/2/5 416/2/5 415/2/5
f 423/3/5 415/3/5 422/3/5
f 424/2/5 416/2/5 423/2/5
f 425/1/6 426/1/6 431/1/6
f 431/1/6 426/1/6 432/1/6
f 427/1/6 428/1/6 433/1/6
f 433/1/6 428/1/6 434/1/6
f 429/1/6 430/1/6 435/1/6
f 435/1/6 430/1/6 436/1/6
f 437/1/6 438/1/6 443/1/6
f 443/1/6 438/1/6 444/1/6
f 439/1/6 440/1/6 445/1/6
f 445/1/6 440/1/6 446/1/6
f 441/1/6 442/1/6 447/1/6
f 447/1/6 442/1/6 448/1/6
f 449/1/6 450/1/6 455/1/6
f 455/1/6 450/1/6 456/1/6
f 451/1/6 452/1/6 457/1/6
f 457/1/6 452/1/6 458/1/6
f 453/1/6 454/1/6 459/1/6
f 459/1/6 454/1/6 460/1/6
f 461/1/6 462/1/6 467/1/6
f 467/1/6 462/1/6 468/1/6
f 463/1/6 464/1/6 469/1/6
f 469/1/6 464/1/6 470/1/6
f 465/1/6 466/1/6 471/1/6
f 471/1/6 466/1/6 472/1/6
f 473/1/6 474/1/6 479/1/6
f 479/1/6 474/1/6 480/1/6
f 475/1/6 476/1/6 481/1/6
f 481/1/6 476/1/6 482/1/6
f 477/1/6 478/1/6 483/1/6
f 483/1/6 478/1/6 484/1/6
f 485/1/6 486/1/6 491/1/6
f 491/1/6 486/1/6 492/1/6
f 487/1/6 488/1/6 493/1/6
f 493/1/6 488/1/6 494/1/6
f 489/1/6 490/1/6 495/1/6
f 495/1/6 490/1/6 496/1/6
f 497/2/6 498/2/6 505/2/6
f 498/3/6 499/3/6 506/3/6
f 505/2/6 498/2/6 506/2/6
f 499/2/6 500/2/6 507/2/6
f 506/3/6 499/3/6 507/3/6
f 507/2/6 500/2/6 508/2/6
f 501/2/6 502/2/6 509/2/6
f 502/3/6 503/3/6 510/3/6
f 509/2/6 502/2/6 510/2/6
f 503/2/6 504/2/6 511/2/6
f 510/3/6 503/3/6 511/3/6
f 511/2/6 504/2/6 512/2/6
