# MagicaVoxel @ Ephtracy

# group
o 

# material
mtllib wood bridge ошметек 4.mtl
usemtl palette

# normals
vn -1 0 0
vn 1 0 0
vn 0 0 1
vn 0 0 -1
vn 0 -1 0
vn 0 1 0

# texcoords
vt 0.306641 0.5
vt 0.310547 0.5

# verts
v 0.7 0.9 -3.1
v 0.7 0.9 -3.3
v 0.7 1 -2.9
v 0.7 1 -3
v 0.7 1 -3.2
v 0.7 1 -3.3
v 0.7 1.1 -2.9
v 0.7 1.1 -3
v 0.7 1.1 -3.1
v 0.7 1.1 -3.2
v 0.7 1.2 -2.9
v 0.7 1.2 -3.2
v 0.7 1.4 -2.9
v 0.7 1.4 -3.2
v 0.7 1.5 -2.9
v 0.7 1.5 -3.2
v 0.8 0.9 -2.9
v 0.8 0.9 -3
v 0.8 1 -2.9
v 0.8 1 -3
v 0.8 1 -3.2
v 0.8 1 -3.3
v 0.8 1.1 -3.2
v 0.8 1.1 -3.3
v 0.8 1.2 -3.2
v 0.8 1.4 -3.2
v 0.8 1.4 -3.3
v 1.1 1.2 -2.9
v 1.1 1.2 -3.4
v 1.1 1.4 -2.9
v 1.1 1.4 -3.4
v 1.2 0.9 -2.8
v 1.2 0.9 -2.9
v 1.2 1.1 -2.8
v 1.2 1.1 -2.9
v 1.2 1.1 -3
v 1.2 1.1 -3.1
v 1.2 1.1 -3.3
v 1.2 1.1 -3.4
v 1.2 1.2 -2.8
v 1.2 1.2 -2.9
v 1.2 1.2 -3.4
v 1.2 1.4 -2.8
v 1.2 1.4 -2.9
v 1.2 1.4 -3.4
v 1.2 1.5 -2.8
v 1.2 1.5 -3.4
v 1.6 1.2 -2.8
v 1.6 1.2 -3.4
v 1.6 1.4 -2.8
v 1.6 1.4 -3.4
v 1.7 1.1 -2.8
v 1.7 1.1 -3
v 1.7 1.1 -3.1
v 1.7 1.1 -3.3
v 1.7 1.1 -3.4
v 1.7 1.2 -2.8
v 1.7 1.2 -3.4
v 1.7 1.4 -2.8
v 1.7 1.4 -3.4
v 1.7 1.5 -2.8
v 1.7 1.5 -3.4
v 0.9 1.1 -2.9
v 0.9 1.1 -3
v 0.9 1.1 -3.1
v 0.9 1.1 -3.3
v 0.9 1.2 -2.9
v 0.9 1.2 -3.3
v 0.9 1.4 -2.9
v 0.9 1.4 -3.2
v 0.9 1.5 -2.9
v 0.9 1.5 -3.2
v 1 1.2 -2.9
v 1 1.2 -3.3
v 1 1.4 -2.9
v 1 1.4 -3.3
v 1.4 1.1 -2.8
v 1.4 1.1 -3
v 1.4 1.1 -3.1
v 1.4 1.1 -3.3
v 1.4 1.1 -3.4
v 1.4 1.2 -2.8
v 1.4 1.2 -3.4
v 1.4 1.4 -2.8
v 1.4 1.4 -3.4
v 1.4 1.5 -2.8
v 1.4 1.5 -3.4
v 1.5 1.2 -2.8
v 1.5 1.2 -3.4
v 1.5 1.4 -2.8
v 1.5 1.4 -3.4
v 1.9 1.1 -2.8
v 1.9 1.1 -3
v 1.9 1.1 -3.1
v 1.9 1.1 -3.3
v 1.9 1.1 -3.4
v 1.9 1.2 -2.8
v 1.9 1.2 -3.4
v 1.9 1.4 -2.8
v 1.9 1.4 -3.4
v 1.9 1.5 -2.8
v 1.9 1.5 -3.4
v 2 0.9 -2.8
v 2 0.9 -3
v 2 0.9 -3.1
v 2 0.9 -3.3
v 2 1.1 -2.8
v 2 1.1 -3
v 2 1.1 -3.1
v 2 1.1 -3.3
v 2 1.2 -2.8
v 2 1.2 -3.4
v 2 1.4 -2.8
v 2 1.4 -3.4
v 1.2 0.9 -2.8
v 1.2 1.1 -2.8
v 1.2 1.2 -2.8
v 1.2 1.4 -2.8
v 1.2 1.5 -2.8
v 1.4 1.1 -2.8
v 1.4 1.2 -2.8
v 1.4 1.4 -2.8
v 1.4 1.5 -2.8
v 1.5 1.2 -2.8
v 1.5 1.4 -2.8
v 1.6 1.2 -2.8
v 1.6 1.4 -2.8
v 1.7 1.1 -2.8
v 1.7 1.2 -2.8
v 1.7 1.4 -2.8
v 1.7 1.5 -2.8
v 1.9 1.1 -2.8
v 1.9 1.2 -2.8
v 1.9 1.4 -2.8
v 1.9 1.5 -2.8
v 2 0.9 -2.8
v 2 1.1 -2.8
v 2 1.2 -2.8
v 2 1.4 -2.8
v 0.7 1 -2.9
v 0.7 1.1 -2.9
v 0.7 1.2 -2.9
v 0.7 1.4 -2.9
v 0.7 1.5 -2.9
v 0.8 0.9 -2.9
v 0.8 1 -2.9
v 0.8 1.2 -2.9
v 0.8 1.4 -2.9
v 0.9 1.1 -2.9
v 0.9 1.2 -2.9
v 0.9 1.4 -2.9
v 0.9 1.5 -2.9
v 1 1.2 -2.9
v 1 1.4 -2.9
v 1.1 1.2 -2.9
v 1.1 1.4 -2.9
v 1.2 0.9 -2.9
v 1.2 1.1 -2.9
v 1.2 1.2 -2.9
v 1.2 1.4 -2.9
v 0.7 0.9 -3.1
v 0.7 1.1 -3.1
v 0.9 1.1 -3.1
v 1.2 1.1 -3.1
v 1.4 1.1 -3.1
v 1.7 1.1 -3.1
v 1.9 1.1 -3.1
v 2 0.9 -3.1
v 2 1.1 -3.1
v 0.7 1 -3
v 0.7 1.1 -3
v 0.8 0.9 -3
v 0.8 1 -3
v 0.9 1.1 -3
v 1.2 1.1 -3
v 1.4 1.1 -3
v 1.7 1.1 -3
v 1.9 1.1 -3
v 2 0.9 -3
v 2 1.1 -3
v 0.7 1 -3.2
v 0.7 1.1 -3.2
v 0.7 1.2 -3.2
v 0.7 1.4 -3.2
v 0.7 1.5 -3.2
v 0.8 1 -3.2
v 0.8 1.1 -3.2
v 0.8 1.2 -3.2
v 0.8 1.4 -3.2
v 0.9 1.4 -3.2
v 0.9 1.5 -3.2
v 0.7 0.9 -3.3
v 0.7 1 -3.3
v 0.8 1 -3.3
v 0.8 1.1 -3.3
v 0.8 1.4 -3.3
v 0.9 1.1 -3.3
v 0.9 1.2 -3.3
v 1 1.2 -3.3
v 1 1.4 -3.3
v 1.2 1.1 -3.3
v 1.4 1.1 -3.3
v 1.7 1.1 -3.3
v 1.9 1.1 -3.3
v 2 0.9 -3.3
v 2 1.1 -3.3
v 1.1 1.2 -3.4
v 1.1 1.4 -3.4
v 1.2 1.1 -3.4
v 1.2 1.2 -3.4
v 1.2 1.4 -3.4
v 1.2 1.5 -3.4
v 1.4 1.1 -3.4
v 1.4 1.2 -3.4
v 1.4 1.4 -3.4
v 1.4 1.5 -3.4
v 1.5 1.2 -3.4
v 1.5 1.4 -3.4
v 1.6 1.2 -3.4
v 1.6 1.4 -3.4
v 1.7 1.1 -3.4
v 1.7 1.2 -3.4
v 1.7 1.4 -3.4
v 1.7 1.5 -3.4
v 1.9 1.1 -3.4
v 1.9 1.2 -3.4
v 1.9 1.4 -3.4
v 1.9 1.5 -3.4
v 2 1.2 -3.4
v 2 1.4 -3.4
v 1.2 0.9 -2.8
v 2 0.9 -2.8
v 0.8 0.9 -2.9
v 1.2 0.9 -2.9
v 0.8 0.9 -3
v 2 0.9 -3
v 0.7 0.9 -3.1
v 2 0.9 -3.1
v 0.7 0.9 -3.3
v 2 0.9 -3.3
v 0.7 1 -2.9
v 0.8 1 -2.9
v 0.7 1 -3
v 0.8 1 -3
v 0.7 1.1 -3
v 0.9 1.1 -3
v 1.2 1.1 -3
v 1.4 1.1 -3
v 1.7 1.1 -3
v 1.9 1.1 -3
v 0.7 1.1 -3.1
v 0.9 1.1 -3.1
v 1.2 1.1 -3.1
v 1.4 1.1 -3.1
v 1.7 1.1 -3.1
v 1.9 1.1 -3.1
v 1.2 1.1 -3.3
v 1.4 1.1 -3.3
v 1.7 1.1 -3.3
v 1.9 1.1 -3.3
v 1.2 1.1 -3.4
v 1.4 1.1 -3.4
v 1.7 1.1 -3.4
v 1.9 1.1 -3.4
v 1.4 1.2 -2.8
v 1.5 1.2 -2.8
v 1.6 1.2 -2.8
v 1.7 1.2 -2.8
v 1.9 1.2 -2.8
v 2 1.2 -2.8
v 0.9 1.2 -2.9
v 1 1.2 -2.9
v 1.1 1.2 -2.9
v 1.2 1.2 -2.9
v 0.9 1.2 -3.3
v 1 1.2 -3.3
v 1.1 1.2 -3.4
v 1.2 1.2 -3.4
v 1.4 1.2 -3.4
v 1.5 1.2 -3.4
v 1.6 1.2 -3.4
v 1.7 1.2 -3.4
v 1.9 1.2 -3.4
v 2 1.2 -3.4
v 0.7 1 -3.2
v 0.8 1 -3.2
v 0.7 1 -3.3
v 0.8 1 -3.3
v 1.4 1.1 -2.8
v 1.7 1.1 -2.8
v 1.9 1.1 -2.8
v 2 1.1 -2.8
v 0.9 1.1 -2.9
v 1.2 1.1 -2.9
v 0.9 1.1 -3
v 1.2 1.1 -3
v 1.4 1.1 -3
v 1.7 1.1 -3
v 1.9 1.1 -3
v 2 1.1 -3
v 0.9 1.1 -3.1
v 1.2 1.1 -3.1
v 1.4 1.1 -3.1
v 1.7 1.1 -3.1
v 1.9 1.1 -3.1
v 2 1.1 -3.1
v 0.9 1.1 -3.3
v 1.2 1.1 -3.3
v 1.4 1.1 -3.3
v 1.7 1.1 -3.3
v 1.9 1.1 -3.3
v 2 1.1 -3.3
v 1.4 1.4 -2.8
v 1.5 1.4 -2.8
v 1.6 1.4 -2.8
v 1.7 1.4 -2.8
v 1.9 1.4 -2.8
v 2 1.4 -2.8
v 0.9 1.4 -2.9
v 1 1.4 -2.9
v 1.1 1.4 -2.9
v 1.2 1.4 -2.9
v 0.8 1.4 -3.2
v 0.9 1.4 -3.2
v 0.8 1.4 -3.3
v 1 1.4 -3.3
v 1.1 1.4 -3.4
v 1.2 1.4 -3.4
v 1.4 1.4 -3.4
v 1.5 1.4 -3.4
v 1.6 1.4 -3.4
v 1.7 1.4 -3.4
v 1.9 1.4 -3.4
v 2 1.4 -3.4
v 1.2 1.5 -2.8
v 1.4 1.5 -2.8
v 1.7 1.5 -2.8
v 1.9 1.5 -2.8
v 0.7 1.5 -2.9
v 0.9 1.5 -2.9
v 0.7 1.5 -3.2
v 0.9 1.5 -3.2
v 1.2 1.5 -3.4
v 1.4 1.5 -3.4
v 1.7 1.5 -3.4
v 1.9 1.5 -3.4

# faces
f 5/2/1 2/2/1 1/2/1
f 6/2/1 2/2/1 5/2/1
f 7/2/1 4/2/1 3/2/1
f 8/2/1 4/2/1 7/2/1
f 9/2/1 5/2/1 1/2/1
f 10/2/1 5/2/1 9/2/1
f 11/1/1 8/1/1 7/1/1
f 11/1/1 9/1/1 8/1/1
f 11/1/1 10/1/1 9/1/1
f 12/1/1 10/1/1 11/1/1
f 13/2/1 12/2/1 11/2/1
f 14/2/1 12/2/1 13/2/1
f 15/1/1 14/1/1 13/1/1
f 16/1/1 14/1/1 15/1/1
f 19/2/1 18/2/1 17/2/1
f 20/2/1 18/2/1 19/2/1
f 23/2/1 22/2/1 21/2/1
f 24/2/1 22/2/1 23/2/1
f 25/1/1 24/1/1 23/1/1
f 26/1/1 24/1/1 25/1/1
f 27/1/1 24/1/1 26/1/1
f 30/1/1 29/1/1 28/1/1
f 31/1/1 29/1/1 30/1/1
f 34/2/1 33/2/1 32/2/1
f 35/2/1 33/2/1 34/2/1
f 40/1/1 35/1/1 34/1/1
f 40/1/1 39/1/1 38/1/1
f 40/1/1 38/1/1 37/1/1
f 40/1/1 37/1/1 36/1/1
f 40/1/1 36/1/1 35/1/1
f 41/1/1 39/1/1 40/1/1
f 42/1/1 39/1/1 41/1/1
f 43/2/1 41/2/1 40/2/1
f 44/2/1 41/2/1 43/2/1
f 46/1/1 44/1/1 43/1/1
f 46/1/1 45/1/1 44/1/1
f 47/1/1 45/1/1 46/1/1
f 50/1/1 49/1/1 48/1/1
f 51/1/1 49/1/1 50/1/1
f 57/1/1 53/1/1 52/1/1
f 57/1/1 56/1/1 55/1/1
f 57/1/1 55/1/1 54/1/1
f 57/1/1 54/1/1 53/1/1
f 58/1/1 56/1/1 57/1/1
f 61/1/1 60/1/1 59/1/1
f 62/1/1 60/1/1 61/1/1
f 63/1/2 64/1/2 67/1/2
f 65/1/2 66/1/2 67/1/2
f 64/1/2 65/1/2 67/1/2
f 67/1/2 66/1/2 68/1/2
f 69/1/2 70/1/2 71/1/2
f 71/1/2 70/1/2 72/1/2
f 73/1/2 74/1/2 75/1/2
f 75/1/2 74/1/2 76/1/2
f 77/1/2 78/1/2 82/1/2
f 80/1/2 81/1/2 82/1/2
f 79/1/2 80/1/2 82/1/2
f 78/1/2 79/1/2 82/1/2
f 82/1/2 81/1/2 83/1/2
f 84/1/2 85/1/2 86/1/2
f 86/1/2 85/1/2 87/1/2
f 88/1/2 89/1/2 90/1/2
f 90/1/2 89/1/2 91/1/2
f 92/1/2 93/1/2 97/1/2
f 95/1/2 96/1/2 97/1/2
f 94/1/2 95/1/2 97/1/2
f 93/1/2 94/1/2 97/1/2
f 97/1/2 96/1/2 98/1/2
f 99/1/2 100/1/2 101/1/2
f 101/1/2 100/1/2 102/1/2
f 103/2/2 104/2/2 107/2/2
f 107/2/2 104/2/2 108/2/2
f 105/2/2 106/2/2 109/2/2
f 109/2/2 106/2/2 110/2/2
f 111/1/2 112/1/2 113/1/2
f 113/1/2 112/1/2 114/1/2
f 120/2/3 116/2/3 115/2/3
f 120/1/3 117/1/3 116/1/3
f 121/2/3 118/2/3 117/2/3
f 121/1/3 117/1/3 120/1/3
f 122/1/3 119/1/3 118/1/3
f 122/2/3 118/2/3 121/2/3
f 123/1/3 119/1/3 122/1/3
f 124/1/3 122/1/3 121/1/3
f 125/1/3 122/1/3 124/1/3
f 128/2/3 120/2/3 115/2/3
f 129/1/3 127/1/3 126/1/3
f 130/1/3 127/1/3 129/1/3
f 132/2/3 128/2/3 115/2/3
f 132/1/3 129/1/3 128/1/3
f 133/2/3 130/2/3 129/2/3
f 133/1/3 129/1/3 132/1/3
f 134/1/3 131/1/3 130/1/3
f 134/2/3 130/2/3 133/2/3
f 135/1/3 131/1/3 134/1/3
f 136/2/3 132/2/3 115/2/3
f 137/2/3 132/2/3 136/2/3
f 138/1/3 134/1/3 133/1/3
f 139/1/3 134/1/3 138/1/3
f 146/2/3 141/2/3 140/2/3
f 147/1/3 142/1/3 141/1/3
f 147/2/3 143/2/3 142/2/3
f 148/1/3 144/1/3 143/1/3
f 148/2/3 143/2/3 147/2/3
f 149/1/3 147/1/3 141/1/3
f 149/2/3 146/2/3 145/2/3
f 149/1/3 148/1/3 147/1/3
f 149/2/3 141/2/3 146/2/3
f 150/1/3 148/1/3 149/1/3
f 151/1/3 144/1/3 148/1/3
f 151/1/3 148/1/3 150/1/3
f 152/1/3 144/1/3 151/1/3
f 153/1/3 151/1/3 150/1/3
f 154/1/3 151/1/3 153/1/3
f 157/2/3 149/2/3 145/2/3
f 158/2/3 149/2/3 157/2/3
f 159/1/3 156/1/3 155/1/3
f 160/1/3 156/1/3 159/1/3
f 163/2/3 162/2/3 161/2/3
f 164/2/3 163/2/3 161/2/3
f 165/2/3 164/2/3 161/2/3
f 166/2/3 165/2/3 161/2/3
f 167/2/3 166/2/3 161/2/3
f 168/2/3 167/2/3 161/2/3
f 169/2/3 167/2/3 168/2/3
f 170/2/4 171/2/4 173/2/4
f 173/2/4 171/2/4 174/2/4
f 172/2/4 173/2/4 174/2/4
f 172/2/4 174/2/4 175/2/4
f 172/2/4 175/2/4 176/2/4
f 172/2/4 176/2/4 177/2/4
f 172/2/4 177/2/4 178/2/4
f 172/2/4 178/2/4 179/2/4
f 179/2/4 178/2/4 180/2/4
f 181/2/4 182/2/4 186/2/4
f 182/1/4 183/1/4 187/1/4
f 186/2/4 182/2/4 187/2/4
f 183/2/4 184/2/4 188/2/4
f 187/1/4 183/1/4 188/1/4
f 184/1/4 185/1/4 189/1/4
f 188/2/4 184/2/4 189/2/4
f 189/1/4 185/1/4 190/1/4
f 190/1/4 185/1/4 191/1/4
f 192/2/4 193/2/4 194/2/4
f 194/2/4 195/2/4 197/2/4
f 195/1/4 196/1/4 197/1/4
f 197/1/4 196/1/4 198/1/4
f 198/1/4 196/1/4 199/1/4
f 199/1/4 196/1/4 200/1/4
f 194/2/4 197/2/4 201/2/4
f 194/2/4 201/2/4 202/2/4
f 194/2/4 202/2/4 203/2/4
f 194/2/4 203/2/4 204/2/4
f 192/2/4 194/2/4 205/2/4
f 194/2/4 204/2/4 205/2/4
f 205/2/4 204/2/4 206/2/4
f 207/1/4 208/1/4 210/1/4
f 210/1/4 208/1/4 211/1/4
f 209/1/4 210/1/4 213/1/4
f 211/1/4 212/1/4 213/1/4
f 210/1/4 211/1/4 213/1/4
f 213/1/4 212/1/4 214/1/4
f 214/1/4 212/1/4 215/1/4
f 215/1/4 212/1/4 216/1/4
f 214/1/4 215/1/4 217/1/4
f 217/1/4 215/1/4 218/1/4
f 219/1/4 220/1/4 222/1/4
f 222/1/4 220/1/4 223/1/4
f 222/1/4 223/1/4 225/1/4
f 223/1/4 224/1/4 225/1/4
f 221/1/4 222/1/4 225/1/4
f 225/1/4 224/1/4 226/1/4
f 226/1/4 224/1/4 227/1/4
f 227/1/4 224/1/4 228/1/4
f 226/1/4 227/1/4 229/1/4
f 229/1/4 227/1/4 230/1/4
f 234/2/5 232/2/5 231/2/5
f 235/2/5 234/2/5 233/2/5
f 236/2/5 232/2/5 234/2/5
f 236/2/5 234/2/5 235/2/5
f 239/2/5 238/2/5 237/2/5
f 240/2/5 238/2/5 239/2/5
f 243/2/5 242/2/5 241/2/5
f 244/2/5 242/2/5 243/2/5
f 251/1/5 246/1/5 245/1/5
f 252/1/5 246/1/5 251/1/5
f 253/1/5 248/1/5 247/1/5
f 254/1/5 248/1/5 253/1/5
f 255/1/5 250/1/5 249/1/5
f 256/1/5 250/1/5 255/1/5
f 261/1/5 258/1/5 257/1/5
f 262/1/5 258/1/5 261/1/5
f 263/1/5 260/1/5 259/1/5
f 264/1/5 260/1/5 263/1/5
f 275/1/5 272/1/5 271/1/5
f 276/1/5 272/1/5 275/1/5
f 277/1/5 274/1/5 273/1/5
f 278/1/5 274/1/5 277/1/5
f 279/1/5 266/1/5 265/1/5
f 280/1/5 266/1/5 279/1/5
f 281/1/5 268/1/5 267/1/5
f 282/1/5 268/1/5 281/1/5
f 283/1/5 270/1/5 269/1/5
f 284/1/5 270/1/5 283/1/5
f 285/2/6 286/2/6 287/2/6
f 287/2/6 286/2/6 288/2/6
f 293/2/6 294/2/6 295/2/6
f 295/2/6 294/2/6 296/2/6
f 289/2/6 290/2/6 297/2/6
f 297/2/6 290/2/6 298/2/6
f 291/2/6 292/2/6 299/2/6
f 299/2/6 292/2/6 300/2/6
f 301/2/6 302/2/6 307/2/6
f 307/2/6 302/2/6 308/2/6
f 303/2/6 304/2/6 309/2/6
f 309/2/6 304/2/6 310/2/6
f 305/2/6 306/2/6 311/2/6
f 311/2/6 306/2/6 312/2/6
f 319/1/6 320/1/6 324/1/6
f 323/1/6 324/1/6 325/1/6
f 324/1/6 320/1/6 326/1/6
f 325/1/6 324/1/6 326/1/6
f 321/1/6 322/1/6 327/1/6
f 327/1/6 322/1/6 328/1/6
f 313/1/6 314/1/6 329/1/6
f 329/1/6 314/1/6 330/1/6
f 315/1/6 316/1/6 331/1/6
f 331/1/6 316/1/6 332/1/6
f 317/1/6 318/1/6 333/1/6
f 333/1/6 318/1/6 334/1/6
f 339/1/6 340/1/6 341/1/6
f 341/1/6 340/1/6 342/1/6
f 335/1/6 336/1/6 343/1/6
f 343/1/6 336/1/6 344/1/6
f 337/1/6 338/1/6 345/1/6
f 345/1/6 338/1/6 346/1/6
