# MagicaVoxel @ Ephtracy

# group
o 

# material
mtllib wood bridge ошметек 5.mtl
usemtl palette

# normals
vn -1 0 0
vn 1 0 0
vn 0 0 1
vn 0 0 -1
vn 0 -1 0
vn 0 1 0

# texcoords
vt 0.306641 0.5
vt 0.310547 0.5

# verts
v -0.5 0.9 0.5
v -0.5 0.9 0.3
v -0.5 0.9 0.2
v -0.5 0.9 0
v -0.5 0.9 -0.1
v -0.5 0.9 -0.2
v -0.5 1.1 0.5
v -0.5 1.1 0.3
v -0.5 1.1 0.2
v -0.5 1.1 0
v -0.5 1.1 -0.1
v -0.5 1.1 -0.2
v -0.4 0.9 1.4
v -0.4 0.9 1.2
v -0.4 0.9 1.1
v -0.4 0.9 0.9
v -0.4 0.9 0.8
v -0.4 0.9 0.6
v -0.4 1.1 1.4
v -0.4 1.1 1.2
v -0.4 1.1 1.1
v -0.4 1.1 0.9
v -0.4 1.1 0.8
v -0.4 1.1 0.6
v -0.4 1.2 1.4
v -0.4 1.2 -0.2
v -0.4 1.4 1.4
v -0.4 1.4 -0.2
v -0.3 1.1 1.6
v -0.3 1.1 1.4
v -0.3 1.1 1.2
v -0.3 1.1 1.1
v -0.3 1.1 0.9
v -0.3 1.1 0.8
v -0.3 1.1 0.6
v -0.3 1.1 0.5
v -0.3 1.1 0.3
v -0.3 1.1 0.2
v -0.3 1.1 0
v -0.3 1.1 -0.1
v -0.3 1.1 -0.2
v -0.3 1.2 1.5
v -0.3 1.2 1.4
v -0.3 1.2 -0.2
v -0.3 1.4 1.5
v -0.3 1.4 1.4
v -0.3 1.4 -0.2
v -0.3 1.5 1.6
v -0.3 1.5 -0.2
v -0.2 0.9 -0.2
v -0.2 0.9 -0.3
v -0.2 1.1 -0.2
v -0.2 1.1 -0.3
v -0.2 1.2 -0.2
v -0.2 1.2 -0.3
v -0.2 1.4 -0.2
v -0.2 1.4 -0.3
v -0.2 1.5 -0.2
v -0.2 1.5 -0.3
v 0.0999998 1.2 1.6
v 0.0999998 1.2 -0.3
v 0.0999998 1.4 1.6
v 0.0999998 1.4 -0.3
v 0.2 1.1 1.6
v 0.2 1.1 1.4
v 0.2 1.1 1.2
v 0.2 1.1 1.1
v 0.2 1.1 0.9
v 0.2 1.1 0.8
v 0.2 1.1 0.6
v 0.2 1.1 0.5
v 0.2 1.1 0.3
v 0.2 1.1 0.2
v 0.2 1.1 0
v 0.2 1.1 -0.1
v 0.2 1.1 -0.3
v 0.2 1.2 1.6
v 0.2 1.2 -0.3
v 0.2 1.4 1.6
v 0.2 1.4 -0.3
v 0.2 1.5 1.6
v 0.2 1.5 -0.3
v 0.3 1.2 -0.3
v 0.3 1.2 -0.4
v 0.3 1.4 -0.3
v 0.3 1.4 -0.4
v 0.3 1.5 -0.3
v 0.3 1.5 -0.4
v 0.6 1.2 1.6
v 0.6 1.2 -0.4
v 0.6 1.4 1.6
v 0.6 1.4 -0.4
v 0.7 1.1 1.6
v 0.7 1.1 1.4
v 0.7 1.1 1.2
v 0.7 1.1 1.1
v 0.7 1.1 0.9
v 0.7 1.1 0.8
v 0.7 1.1 0.6
v 0.7 1.1 0.5
v 0.7 1.1 0.3
v 0.7 1.1 0.2
v 0.7 1.1 0
v 0.7 1.1 -0.1
v 0.7 1.1 -0.3
v 0.7 1.1 -0.4
v 0.7 1.2 1.6
v 0.7 1.2 -0.4
v 0.7 1.4 1.6
v 0.7 1.4 -0.4
v 0.7 1.5 1.6
v 0.7 1.5 -0.4
v 0.9 0.9 -0.4
v 0.9 0.9 -0.5
v 0.9 1.1 -0.4
v 0.9 1.1 -0.5
v 0.9 1.2 -0.4
v 0.9 1.2 -0.5
v 0.9 1.4 -0.4
v 0.9 1.4 -0.5
v -0.1 1.1 1.6
v -0.1 1.1 1.4
v -0.1 1.1 1.2
v -0.1 1.1 1.1
v -0.1 1.1 0.9
v -0.1 1.1 0.8
v -0.1 1.1 0.6
v -0.1 1.1 0.5
v -0.1 1.1 0.3
v -0.1 1.1 0.2
v -0.1 1.1 0
v -0.1 1.1 -0.1
v -0.1 1.1 -0.3
v -0.1 1.2 1.6
v -0.1 1.2 -0.3
v -0.1 1.4 1.6
v -0.1 1.4 -0.3
v -0.1 1.5 1.6
v -0.1 1.5 -0.3
v -1.19209e-07 1.2 1.6
v -1.19209e-07 1.2 -0.3
v -1.19209e-07 1.4 1.6
v -1.19209e-07 1.4 -0.3
v 0.4 1.1 1.6
v 0.4 1.1 1.4
v 0.4 1.1 1.2
v 0.4 1.1 1.1
v 0.4 1.1 0.9
v 0.4 1.1 0.8
v 0.4 1.1 0.6
v 0.4 1.1 0.5
v 0.4 1.1 0.3
v 0.4 1.1 0.2
v 0.4 1.1 0
v 0.4 1.1 -0.1
v 0.4 1.1 -0.3
v 0.4 1.2 1.6
v 0.4 1.2 -0.3
v 0.4 1.4 1.6
v 0.4 1.4 -0.4
v 0.4 1.5 1.6
v 0.4 1.5 -0.4
v 0.5 1.2 1.6
v 0.5 1.2 -0.4
v 0.5 1.4 1.6
v 0.5 1.4 -0.4
v 0.9 1.1 1.6
v 0.9 1.1 1.4
v 0.9 1.1 1.2
v 0.9 1.1 1.1
v 0.9 1.1 0.9
v 0.9 1.1 0.8
v 0.9 1.1 0.6
v 0.9 1.1 0.5
v 0.9 1.1 0.3
v 0.9 1.1 0.2
v 0.9 1.1 0
v 0.9 1.1 -0.1
v 0.9 1.1 -0.3
v 0.9 1.1 -0.4
v 0.9 1.2 1.6
v 0.9 1.2 -0.4
v 0.9 1.4 1.6
v 0.9 1.4 -0.4
v 0.9 1.5 1.6
v 0.9 1.5 -0.4
v 1 1.2 1.6
v 1 1.2 -0.5
v 1 1.4 1.6
v 1 1.4 -0.5
v 1.1 0.9 1.4
v 1.1 0.9 1.2
v 1.1 0.9 1.1
v 1.1 0.9 0.9
v 1.1 0.9 0.8
v 1.1 0.9 0.6
v 1.1 0.9 0.5
v 1.1 0.9 0.3
v 1.1 0.9 0.2
v 1.1 0.9 0
v 1.1 0.9 -0.1
v 1.1 0.9 -0.3
v 1.1 0.9 -0.4
v 1.1 0.9 -0.5
v 1.1 1.1 1.4
v 1.1 1.1 1.2
v 1.1 1.1 1.1
v 1.1 1.1 0.9
v 1.1 1.1 0.8
v 1.1 1.1 0.6
v 1.1 1.1 0.5
v 1.1 1.1 0.3
v 1.1 1.1 0.2
v 1.1 1.1 0
v 1.1 1.1 -0.1
v 1.1 1.1 -0.3
v 1.1 1.1 -0.4
v 1.1 1.1 -0.5
v -0.3 1.1 1.6
v -0.3 1.5 1.6
v -0.1 1.1 1.6
v -0.1 1.2 1.6
v -0.1 1.4 1.6
v -0.1 1.5 1.6
v -1.19209e-07 1.2 1.6
v -1.19209e-07 1.4 1.6
v 0.0999998 1.2 1.6
v 0.0999998 1.4 1.6
v 0.2 1.1 1.6
v 0.2 1.2 1.6
v 0.2 1.4 1.6
v 0.2 1.5 1.6
v 0.4 1.1 1.6
v 0.4 1.2 1.6
v 0.4 1.4 1.6
v 0.4 1.5 1.6
v 0.5 1.2 1.6
v 0.5 1.4 1.6
v 0.6 1.2 1.6
v 0.6 1.4 1.6
v 0.7 1.1 1.6
v 0.7 1.2 1.6
v 0.7 1.4 1.6
v 0.7 1.5 1.6
v 0.9 1.1 1.6
v 0.9 1.2 1.6
v 0.9 1.4 1.6
v 0.9 1.5 1.6
v 1 1.2 1.6
v 1 1.4 1.6
v -0.4 0.9 1.4
v -0.4 1.1 1.4
v -0.4 1.2 1.4
v -0.4 1.4 1.4
v -0.3 1.1 1.4
v -0.3 1.2 1.4
v -0.3 1.4 1.4
v -0.1 1.1 1.4
v 0.2 1.1 1.4
v 0.4 1.1 1.4
v 0.7 1.1 1.4
v 0.9 1.1 1.4
v 1.1 0.9 1.4
v 1.1 1.1 1.4
v -0.4 0.9 1.1
v -0.4 1.1 1.1
v -0.3 1.1 1.1
v -0.1 1.1 1.1
v 0.2 1.1 1.1
v 0.4 1.1 1.1
v 0.7 1.1 1.1
v 0.9 1.1 1.1
v 1.1 0.9 1.1
v 1.1 1.1 1.1
v -0.4 0.9 0.8
v -0.4 1.1 0.8
v -0.3 1.1 0.8
v -0.1 1.1 0.8
v 0.2 1.1 0.8
v 0.4 1.1 0.8
v 0.7 1.1 0.8
v 0.9 1.1 0.8
v 1.1 0.9 0.8
v 1.1 1.1 0.8
v -0.5 0.9 0.5
v -0.5 1.1 0.5
v -0.3 1.1 0.5
v -0.1 1.1 0.5
v 0.2 1.1 0.5
v 0.4 1.1 0.5
v 0.7 1.1 0.5
v 0.9 1.1 0.5
v 1.1 0.9 0.5
v 1.1 1.1 0.5
v -0.5 0.9 0.2
v -0.5 1.1 0.2
v -0.3 1.1 0.2
v -0.1 1.1 0.2
v 0.2 1.1 0.2
v 0.4 1.1 0.2
v 0.7 1.1 0.2
v 0.9 1.1 0.2
v 1.1 0.9 0.2
v 1.1 1.1 0.2
v -0.5 0.9 -0.1
v -0.5 1.1 -0.1
v -0.3 1.1 -0.1
v -0.1 1.1 -0.1
v 0.2 1.1 -0.1
v 0.4 1.1 -0.1
v 0.7 1.1 -0.1
v 0.9 1.1 -0.1
v 1.1 0.9 -0.1
v 1.1 1.1 -0.1
v 0.9 0.9 -0.4
v 0.9 1.1 -0.4
v 1.1 0.9 -0.4
v 1.1 1.1 -0.4
v -0.4 0.9 1.2
v -0.4 1.1 1.2
v -0.3 1.1 1.2
v -0.1 1.1 1.2
v 0.2 1.1 1.2
v 0.4 1.1 1.2
v 0.7 1.1 1.2
v 0.9 1.1 1.2
v 1.1 0.9 1.2
v 1.1 1.1 1.2
v -0.4 0.9 0.9
v -0.4 1.1 0.9
v -0.3 1.1 0.9
v -0.1 1.1 0.9
v 0.2 1.1 0.9
v 0.4 1.1 0.9
v 0.7 1.1 0.9
v 0.9 1.1 0.9
v 1.1 0.9 0.9
v 1.1 1.1 0.9
v -0.4 0.9 0.6
v -0.4 1.1 0.6
v -0.3 1.1 0.6
v -0.1 1.1 0.6
v 0.2 1.1 0.6
v 0.4 1.1 0.6
v 0.7 1.1 0.6
v 0.9 1.1 0.6
v 1.1 0.9 0.6
v 1.1 1.1 0.6
v -0.5 0.9 0.3
v -0.5 1.1 0.3
v -0.3 1.1 0.3
v -0.1 1.1 0.3
v 0.2 1.1 0.3
v 0.4 1.1 0.3
v 0.7 1.1 0.3
v 0.9 1.1 0.3
v 1.1 0.9 0.3
v 1.1 1.1 0.3
v -0.5 0.9 0
v -0.5 1.1 0
v -0.3 1.1 0
v -0.1 1.1 0
v 0.2 1.1 0
v 0.4 1.1 0
v 0.7 1.1 0
v 0.9 1.1 0
v 1.1 0.9 0
v 1.1 1.1 0
v -0.5 0.9 -0.2
v -0.5 1.1 -0.2
v -0.4 1.2 -0.2
v -0.4 1.4 -0.2
v -0.3 1.1 -0.2
v -0.3 1.2 -0.2
v -0.3 1.4 -0.2
v -0.3 1.5 -0.2
v -0.2 0.9 -0.2
v -0.2 1.1 -0.2
v -0.2 1.2 -0.2
v -0.2 1.4 -0.2
v -0.2 1.5 -0.2
v -0.2 0.9 -0.3
v -0.2 1.1 -0.3
v -0.2 1.2 -0.3
v -0.2 1.4 -0.3
v -0.2 1.5 -0.3
v -0.1 1.1 -0.3
v -0.1 1.2 -0.3
v -0.1 1.4 -0.3
v -0.1 1.5 -0.3
v -1.19209e-07 1.2 -0.3
v -1.19209e-07 1.4 -0.3
v 0.0999998 1.2 -0.3
v 0.0999998 1.4 -0.3
v 0.2 1.1 -0.3
v 0.2 1.2 -0.3
v 0.2 1.4 -0.3
v 0.2 1.5 -0.3
v 0.3 1.2 -0.3
v 0.3 1.4 -0.3
v 0.3 1.5 -0.3
v 0.4 1.1 -0.3
v 0.4 1.2 -0.3
v 0.7 1.1 -0.3
v 0.9 1.1 -0.3
v 1.1 0.9 -0.3
v 1.1 1.1 -0.3
v 0.3 1.2 -0.4
v 0.3 1.4 -0.4
v 0.3 1.5 -0.4
v 0.4 1.2 -0.4
v 0.4 1.4 -0.4
v 0.4 1.5 -0.4
v 0.5 1.2 -0.4
v 0.5 1.4 -0.4
v 0.6 1.2 -0.4
v 0.6 1.4 -0.4
v 0.7 1.1 -0.4
v 0.7 1.2 -0.4
v 0.7 1.4 -0.4
v 0.7 1.5 -0.4
v 0.8 1.2 -0.4
v 0.8 1.4 -0.4
v 0.9 1.1 -0.4
v 0.9 1.2 -0.4
v 0.9 1.4 -0.4
v 0.9 1.5 -0.4
v 0.9 0.9 -0.5
v 0.9 1.1 -0.5
v 0.9 1.2 -0.5
v 0.9 1.4 -0.5
v 1 1.2 -0.5
v 1 1.4 -0.5
v 1.1 0.9 -0.5
v 1.1 1.1 -0.5
v -0.4 0.9 1.4
v 1.1 0.9 1.4
v -0.4 0.9 1.2
v 1.1 0.9 1.2
v -0.4 0.9 1.1
v 1.1 0.9 1.1
v -0.4 0.9 0.9
v 1.1 0.9 0.9
v -0.4 0.9 0.8
v 1.1 0.9 0.8
v -0.4 0.9 0.6
v 1.1 0.9 0.6
v -0.5 0.9 0.5
v 1.1 0.9 0.5
v -0.5 0.9 0.3
v 1.1 0.9 0.3
v -0.5 0.9 0.2
v 1.1 0.9 0.2
v -0.5 0.9 0
v 1.1 0.9 0
v -0.5 0.9 -0.1
v 1.1 0.9 -0.1
v -0.5 0.9 -0.2
v -0.2 0.9 -0.2
v -0.2 0.9 -0.3
v 1.1 0.9 -0.3
v 0.9 0.9 -0.4
v 1.1 0.9 -0.4
v 0.9 0.9 -0.5
v 1.1 0.9 -0.5
v -0.3 1.1 1.6
v -0.1 1.1 1.6
v 0.2 1.1 1.6
v 0.4 1.1 1.6
v 0.7 1.1 1.6
v 0.9 1.1 1.6
v -0.3 1.1 1.4
v -0.1 1.1 1.4
v 0.2 1.1 1.4
v 0.4 1.1 1.4
v 0.7 1.1 1.4
v 0.9 1.1 1.4
v -0.3 1.1 1.2
v -0.1 1.1 1.2
v 0.2 1.1 1.2
v 0.4 1.1 1.2
v 0.7 1.1 1.2
v 0.9 1.1 1.2
v -0.3 1.1 1.1
v -0.1 1.1 1.1
v 0.2 1.1 1.1
v 0.4 1.1 1.1
v 0.7 1.1 1.1
v 0.9 1.1 1.1
v -0.3 1.1 0.9
v -0.1 1.1 0.9
v 0.2 1.1 0.9
v 0.4 1.1 0.9
v 0.7 1.1 0.9
v 0.9 1.1 0.9
v -0.3 1.1 0.8
v -0.1 1.1 0.8
v 0.2 1.1 0.8
v 0.4 1.1 0.8
v 0.7 1.1 0.8
v 0.9 1.1 0.8
v -0.3 1.1 0.6
v -0.1 1.1 0.6
v 0.2 1.1 0.6
v 0.4 1.1 0.6
v 0.7 1.1 0.6
v 0.9 1.1 0.6
v -0.3 1.1 0.5
v -0.1 1.1 0.5
v 0.2 1.1 0.5
v 0.4 1.1 0.5
v 0.7 1.1 0.5
v 0.9 1.1 0.5
v -0.3 1.1 0.3
v -0.1 1.1 0.3
v 0.2 1.1 0.3
v 0.4 1.1 0.3
v 0.7 1.1 0.3
v 0.9 1.1 0.3
v -0.3 1.1 0.2
v -0.1 1.1 0.2
v 0.2 1.1 0.2
v 0.4 1.1 0.2
v 0.7 1.1 0.2
v 0.9 1.1 0.2
v -0.3 1.1 0
v -0.1 1.1 0
v 0.2 1.1 0
v 0.4 1.1 0
v 0.7 1.1 0
v 0.9 1.1 0
v -0.3 1.1 -0.1
v -0.1 1.1 -0.1
v 0.2 1.1 -0.1
v 0.4 1.1 -0.1
v 0.7 1.1 -0.1
v 0.9 1.1 -0.1
v 0.7 1.1 -0.3
v 0.9 1.1 -0.3
v 0.7 1.1 -0.4
v 0.9 1.1 -0.4
v -0.1 1.2 1.6
v -1.19209e-07 1.2 1.6
v 0.0999998 1.2 1.6
v 0.2 1.2 1.6
v 0.4 1.2 1.6
v 0.5 1.2 1.6
v 0.6 1.2 1.6
v 0.7 1.2 1.6
v 0.9 1.2 1.6
v 1 1.2 1.6
v -0.4 1.2 1.4
v -0.3 1.2 1.4
v -0.4 1.2 -0.2
v -0.3 1.2 -0.2
v -0.1 1.2 -0.3
v -1.19209e-07 1.2 -0.3
v 0.0999998 1.2 -0.3
v 0.2 1.2 -0.3
v 0.3 1.2 -0.3
v 0.4 1.2 -0.3
v 0.3 1.2 -0.4
v 0.4 1.2 -0.4
v 0.5 1.2 -0.4
v 0.6 1.2 -0.4
v 0.7 1.2 -0.4
v 0.9 1.2 -0.4
v 0.9 1.2 -0.5
v 1 1.2 -0.5
v -0.4 1.1 1.4
v -0.3 1.1 1.4
v -0.1 1.1 1.4
v 0.2 1.1 1.4
v 0.4 1.1 1.4
v 0.7 1.1 1.4
v 0.9 1.1 1.4
v 1.1 1.1 1.4
v -0.4 1.1 1.2
v -0.3 1.1 1.2
v -0.1 1.1 1.2
v 0.2 1.1 1.2
v 0.4 1.1 1.2
v 0.7 1.1 1.2
v 0.9 1.1 1.2
v 1.1 1.1 1.2
v -0.4 1.1 1.1
v -0.3 1.1 1.1
v -0.1 1.1 1.1
v 0.2 1.1 1.1
v 0.4 1.1 1.1
v 0.7 1.1 1.1
v 0.9 1.1 1.1
v 1.1 1.1 1.1
v -0.4 1.1 0.9
v -0.3 1.1 0.9
v -0.1 1.1 0.9
v 0.2 1.1 0.9
v 0.4 1.1 0.9
v 0.7 1.1 0.9
v 0.9 1.1 0.9
v 1.1 1.1 0.9
v -0.4 1.1 0.8
v -0.3 1.1 0.8
v -0.1 1.1 0.8
v 0.2 1.1 0.8
v 0.4 1.1 0.8
v 0.7 1.1 0.8
v 0.9 1.1 0.8
v 1.1 1.1 0.8
v -0.4 1.1 0.6
v -0.3 1.1 0.6
v -0.1 1.1 0.6
v 0.2 1.1 0.6
v 0.4 1.1 0.6
v 0.7 1.1 0.6
v 0.9 1.1 0.6
v 1.1 1.1 0.6
v -0.5 1.1 0.5
v -0.3 1.1 0.5
v -0.1 1.1 0.5
v 0.2 1.1 0.5
v 0.4 1.1 0.5
v 0.7 1.1 0.5
v 0.9 1.1 0.5
v 1.1 1.1 0.5
v -0.5 1.1 0.3
v -0.3 1.1 0.3
v -0.1 1.1 0.3
v 0.2 1.1 0.3
v 0.4 1.1 0.3
v 0.7 1.1 0.3
v 0.9 1.1 0.3
v 1.1 1.1 0.3
v -0.5 1.1 0.2
v -0.3 1.1 0.2
v -0.1 1.1 0.2
v 0.2 1.1 0.2
v 0.4 1.1 0.2
v 0.7 1.1 0.2
v 0.9 1.1 0.2
v 1.1 1.1 0.2
v -0.5 1.1 0
v -0.3 1.1 0
v -0.1 1.1 0
v 0.2 1.1 0
v 0.4 1.1 0
v 0.7 1.1 0
v 0.9 1.1 0
v 1.1 1.1 0
v -0.5 1.1 -0.1
v -0.3 1.1 -0.1
v -0.1 1.1 -0.1
v 0.2 1.1 -0.1
v 0.4 1.1 -0.1
v 0.7 1.1 -0.1
v 0.9 1.1 -0.1
v 1.1 1.1 -0.1
v -0.5 1.1 -0.2
v -0.3 1.1 -0.2
v -0.1 1.1 -0.3
v 0.2 1.1 -0.3
v 0.4 1.1 -0.3
v 0.7 1.1 -0.3
v 0.9 1.1 -0.3
v 1.1 1.1 -0.3
v 0.9 1.1 -0.4
v 1.1 1.1 -0.4
v 0.9 1.1 -0.5
v 1.1 1.1 -0.5
v -0.1 1.4 1.6
v -1.19209e-07 1.4 1.6
v 0.0999998 1.4 1.6
v 0.2 1.4 1.6
v 0.4 1.4 1.6
v 0.5 1.4 1.6
v 0.6 1.4 1.6
v 0.7 1.4 1.6
v 0.9 1.4 1.6
v 1 1.4 1.6
v -0.4 1.4 1.4
v -0.3 1.4 1.4
v -0.4 1.4 -0.2
v -0.3 1.4 -0.2
v -0.1 1.4 -0.3
v -1.19209e-07 1.4 -0.3
v 0.0999998 1.4 -0.3
v 0.2 1.4 -0.3
v 0.4 1.4 -0.4
v 0.5 1.4 -0.4
v 0.6 1.4 -0.4
v 0.7 1.4 -0.4
v 0.9 1.4 -0.4
v 0.9 1.4 -0.5
v 1 1.4 -0.5
v -0.3 1.5 1.6
v -0.1 1.5 1.6
v 0.2 1.5 1.6
v 0.4 1.5 1.6
v 0.7 1.5 1.6
v 0.9 1.5 1.6
v -0.3 1.5 -0.2
v -0.2 1.5 -0.2
v -0.2 1.5 -0.3
v -0.1 1.5 -0.3
v 0.2 1.5 -0.3
v 0.3 1.5 -0.3
v 0.3 1.5 -0.4
v 0.4 1.5 -0.4
v 0.7 1.5 -0.4
v 0.9 1.5 -0.4

# faces
f 7/2/1 2/2/1 1/2/1
f 8/2/1 2/2/1 7/2/1
f 9/2/1 4/2/1 3/2/1
f 10/2/1 4/2/1 9/2/1
f 11/2/1 6/2/1 5/2/1
f 12/2/1 6/2/1 11/2/1
f 19/2/1 14/2/1 13/2/1
f 20/2/1 14/2/1 19/2/1
f 21/2/1 16/2/1 15/2/1
f 22/2/1 16/2/1 21/2/1
f 23/2/1 18/2/1 17/2/1
f 24/2/1 18/2/1 23/2/1
f 27/1/1 26/1/1 25/1/1
f 28/1/1 26/1/1 27/1/1
f 42/1/1 30/1/1 29/1/1
f 42/1/1 41/1/1 40/1/1
f 42/1/1 40/1/1 39/1/1
f 42/1/1 39/1/1 38/1/1
f 42/1/1 38/1/1 37/1/1
f 42/1/1 37/1/1 36/1/1
f 42/1/1 36/1/1 35/1/1
f 42/1/1 35/1/1 34/1/1
f 42/1/1 34/1/1 33/1/1
f 42/1/1 33/1/1 32/1/1
f 42/1/1 32/1/1 31/1/1
f 42/1/1 31/1/1 30/1/1
f 43/1/1 41/1/1 42/1/1
f 44/1/1 41/1/1 43/1/1
f 45/1/1 42/1/1 29/1/1
f 45/2/1 43/2/1 42/2/1
f 46/2/1 43/2/1 45/2/1
f 48/1/1 45/1/1 29/1/1
f 48/1/1 47/1/1 46/1/1
f 48/1/1 46/1/1 45/1/1
f 49/1/1 47/1/1 48/1/1
f 52/2/1 51/2/1 50/2/1
f 53/2/1 51/2/1 52/2/1
f 54/1/1 53/1/1 52/1/1
f 55/1/1 53/1/1 54/1/1
f 56/2/1 55/2/1 54/2/1
f 57/2/1 55/2/1 56/2/1
f 58/1/1 57/1/1 56/1/1
f 59/1/1 57/1/1 58/1/1
f 62/1/1 61/1/1 60/1/1
f 63/1/1 61/1/1 62/1/1
f 77/1/1 65/1/1 64/1/1
f 77/1/1 76/1/1 75/1/1
f 77/1/1 75/1/1 74/1/1
f 77/1/1 74/1/1 73/1/1
f 77/1/1 73/1/1 72/1/1
f 77/1/1 72/1/1 71/1/1
f 77/1/1 71/1/1 70/1/1
f 77/1/1 70/1/1 69/1/1
f 77/1/1 69/1/1 68/1/1
f 77/1/1 68/1/1 67/1/1
f 77/1/1 67/1/1 66/1/1
f 77/1/1 66/1/1 65/1/1
f 78/1/1 76/1/1 77/1/1
f 81/1/1 80/1/1 79/1/1
f 82/1/1 80/1/1 81/1/1
f 85/2/1 84/2/1 83/2/1
f 86/2/1 84/2/1 85/2/1
f 87/1/1 86/1/1 85/1/1
f 88/1/1 86/1/1 87/1/1
f 91/1/1 90/1/1 89/1/1
f 92/1/1 90/1/1 91/1/1
f 107/1/1 94/1/1 93/1/1
f 107/1/1 106/1/1 105/1/1
f 107/1/1 105/1/1 104/1/1
f 107/1/1 104/1/1 103/1/1
f 107/1/1 103/1/1 102/1/1
f 107/1/1 102/1/1 101/1/1
f 107/1/1 101/1/1 100/1/1
f 107/1/1 100/1/1 99/1/1
f 107/1/1 99/1/1 98/1/1
f 107/1/1 98/1/1 97/1/1
f 107/1/1 97/1/1 96/1/1
f 107/1/1 96/1/1 95/1/1
f 107/1/1 95/1/1 94/1/1
f 108/1/1 106/1/1 107/1/1
f 111/1/1 110/1/1 109/1/1
f 112/1/1 110/1/1 111/1/1
f 115/2/1 114/2/1 113/2/1
f 116/2/1 114/2/1 115/2/1
f 119/1/1 118/1/1 117/1/1
f 120/1/1 118/1/1 119/1/1
f 121/1/2 122/1/2 134/1/2
f 132/1/2 133/1/2 134/1/2
f 131/1/2 132/1/2 134/1/2
f 130/1/2 131/1/2 134/1/2
f 129/1/2 130/1/2 134/1/2
f 128/1/2 129/1/2 134/1/2
f 127/1/2 128/1/2 134/1/2
f 126/1/2 127/1/2 134/1/2
f 125/1/2 126/1/2 134/1/2
f 124/1/2 125/1/2 134/1/2
f 123/1/2 124/1/2 134/1/2
f 122/1/2 123/1/2 134/1/2
f 134/1/2 133/1/2 135/1/2
f 136/1/2 137/1/2 138/1/2
f 138/1/2 137/1/2 139/1/2
f 140/1/2 141/1/2 142/1/2
f 142/1/2 141/1/2 143/1/2
f 144/1/2 145/1/2 157/1/2
f 155/1/2 156/1/2 157/1/2
f 154/1/2 155/1/2 157/1/2
f 153/1/2 154/1/2 157/1/2
f 152/1/2 153/1/2 157/1/2
f 151/1/2 152/1/2 157/1/2
f 150/1/2 151/1/2 157/1/2
f 149/1/2 150/1/2 157/1/2
f 148/1/2 149/1/2 157/1/2
f 147/1/2 148/1/2 157/1/2
f 146/1/2 147/1/2 157/1/2
f 145/1/2 146/1/2 157/1/2
f 157/1/2 156/1/2 158/1/2
f 159/1/2 160/1/2 161/1/2
f 161/1/2 160/1/2 162/1/2
f 163/1/2 164/1/2 165/1/2
f 165/1/2 164/1/2 166/1/2
f 167/1/2 168/1/2 181/1/2
f 179/1/2 180/1/2 181/1/2
f 178/1/2 179/1/2 181/1/2
f 177/1/2 178/1/2 181/1/2
f 176/1/2 177/1/2 181/1/2
f 175/1/2 176/1/2 181/1/2
f 174/1/2 175/1/2 181/1/2
f 173/1/2 174/1/2 181/1/2
f 172/1/2 173/1/2 181/1/2
f 171/1/2 172/1/2 181/1/2
f 170/1/2 171/1/2 181/1/2
f 169/1/2 170/1/2 181/1/2
f 168/1/2 169/1/2 181/1/2
f 181/1/2 180/1/2 182/1/2
f 183/1/2 184/1/2 185/1/2
f 185/1/2 184/1/2 186/1/2
f 187/1/2 188/1/2 189/1/2
f 189/1/2 188/1/2 190/1/2
f 191/2/2 192/2/2 205/2/2
f 205/2/2 192/2/2 206/2/2
f 193/2/2 194/2/2 207/2/2
f 207/2/2 194/2/2 208/2/2
f 195/2/2 196/2/2 209/2/2
f 209/2/2 196/2/2 210/2/2
f 197/2/2 198/2/2 211/2/2
f 211/2/2 198/2/2 212/2/2
f 199/2/2 200/2/2 213/2/2
f 213/2/2 200/2/2 214/2/2
f 201/2/2 202/2/2 215/2/2
f 215/2/2 202/2/2 216/2/2
f 203/2/2 204/2/2 217/2/2
f 217/2/2 204/2/2 218/2/2
f 221/1/3 220/1/3 219/1/3
f 222/1/3 220/1/3 221/1/3
f 223/1/3 220/1/3 222/1/3
f 224/1/3 220/1/3 223/1/3
f 225/1/3 223/1/3 222/1/3
f 226/1/3 223/1/3 225/1/3
f 230/1/3 228/1/3 227/1/3
f 231/1/3 228/1/3 230/1/3
f 233/1/3 231/1/3 230/1/3
f 233/1/3 232/1/3 231/1/3
f 233/1/3 230/1/3 229/1/3
f 234/1/3 232/1/3 233/1/3
f 235/1/3 232/1/3 234/1/3
f 236/1/3 232/1/3 235/1/3
f 237/1/3 235/1/3 234/1/3
f 238/1/3 235/1/3 237/1/3
f 242/1/3 240/1/3 239/1/3
f 243/1/3 240/1/3 242/1/3
f 245/1/3 243/1/3 242/1/3
f 245/1/3 244/1/3 243/1/3
f 245/1/3 242/1/3 241/1/3
f 246/1/3 244/1/3 245/1/3
f 247/1/3 244/1/3 246/1/3
f 248/1/3 244/1/3 247/1/3
f 249/1/3 247/1/3 246/1/3
f 250/1/3 247/1/3 249/1/3
f 255/2/3 252/2/3 251/2/3
f 256/1/3 254/1/3 253/1/3
f 257/1/3 254/1/3 256/1/3
f 258/2/3 255/2/3 251/2/3
f 259/2/3 258/2/3 251/2/3
f 260/2/3 259/2/3 251/2/3
f 261/2/3 260/2/3 251/2/3
f 262/2/3 261/2/3 251/2/3
f 263/2/3 262/2/3 251/2/3
f 264/2/3 262/2/3 263/2/3
f 267/2/3 266/2/3 265/2/3
f 268/2/3 267/2/3 265/2/3
f 269/2/3 268/2/3 265/2/3
f 270/2/3 269/2/3 265/2/3
f 271/2/3 270/2/3 265/2/3
f 272/2/3 271/2/3 265/2/3
f 273/2/3 272/2/3 265/2/3
f 274/2/3 272/2/3 273/2/3
f 277/2/3 276/2/3 275/2/3
f 278/2/3 277/2/3 275/2/3
f 279/2/3 278/2/3 275/2/3
f 280/2/3 279/2/3 275/2/3
f 281/2/3 280/2/3 275/2/3
f 282/2/3 281/2/3 275/2/3
f 283/2/3 282/2/3 275/2/3
f 284/2/3 282/2/3 283/2/3
f 287/2/3 286/2/3 285/2/3
f 288/2/3 287/2/3 285/2/3
f 289/2/3 288/2/3 285/2/3
f 290/2/3 289/2/3 285/2/3
f 291/2/3 290/2/3 285/2/3
f 292/2/3 291/2/3 285/2/3
f 293/2/3 292/2/3 285/2/3
f 294/2/3 292/2/3 293/2/3
f 297/2/3 296/2/3 295/2/3
f 298/2/3 297/2/3 295/2/3
f 299/2/3 298/2/3 295/2/3
f 300/2/3 299/2/3 295/2/3
f 301/2/3 300/2/3 295/2/3
f 302/2/3 301/2/3 295/2/3
f 303/2/3 302/2/3 295/2/3
f 304/2/3 302/2/3 303/2/3
f 307/2/3 306/2/3 305/2/3
f 308/2/3 307/2/3 305/2/3
f 309/2/3 308/2/3 305/2/3
f 310/2/3 309/2/3 305/2/3
f 311/2/3 310/2/3 305/2/3
f 312/2/3 311/2/3 305/2/3
f 313/2/3 312/2/3 305/2/3
f 314/2/3 312/2/3 313/2/3
f 317/2/3 316/2/3 315/2/3
f 318/2/3 316/2/3 317/2/3
f 319/2/4 320/2/4 321/2/4
f 319/2/4 321/2/4 322/2/4
f 319/2/4 322/2/4 323/2/4
f 319/2/4 323/2/4 324/2/4
f 319/2/4 324/2/4 325/2/4
f 319/2/4 325/2/4 326/2/4
f 319/2/4 326/2/4 327/2/4
f 327/2/4 326/2/4 328/2/4
f 329/2/4 330/2/4 331/2/4
f 329/2/4 331/2/4 332/2/4
f 329/2/4 332/2/4 333/2/4
f 329/2/4 333/2/4 334/2/4
f 329/2/4 334/2/4 335/2/4
f 329/2/4 335/2/4 336/2/4
f 329/2/4 336/2/4 337/2/4
f 337/2/4 336/2/4 338/2/4
f 339/2/4 340/2/4 341/2/4
f 339/2/4 341/2/4 342/2/4
f 339/2/4 342/2/4 343/2/4
f 339/2/4 343/2/4 344/2/4
f 339/2/4 344/2/4 345/2/4
f 339/2/4 345/2/4 346/2/4
f 339/2/4 346/2/4 347/2/4
f 347/2/4 346/2/4 348/2/4
f 349/2/4 350/2/4 351/2/4
f 349/2/4 351/2/4 352/2/4
f 349/2/4 352/2/4 353/2/4
f 349/2/4 353/2/4 354/2/4
f 349/2/4 354/2/4 355/2/4
f 349/2/4 355/2/4 356/2/4
f 349/2/4 356/2/4 357/2/4
f 357/2/4 356/2/4 358/2/4
f 359/2/4 360/2/4 361/2/4
f 359/2/4 361/2/4 362/2/4
f 359/2/4 362/2/4 363/2/4
f 359/2/4 363/2/4 364/2/4
f 359/2/4 364/2/4 365/2/4
f 359/2/4 365/2/4 366/2/4
f 359/2/4 366/2/4 367/2/4
f 367/2/4 366/2/4 368/2/4
f 369/2/4 370/2/4 373/2/4
f 371/1/4 372/1/4 374/1/4
f 374/1/4 372/1/4 375/1/4
f 369/2/4 373/2/4 377/2/4
f 373/1/4 374/1/4 378/1/4
f 377/2/4 373/2/4 378/2/4
f 374/2/4 375/2/4 379/2/4
f 378/1/4 374/1/4 379/1/4
f 375/1/4 376/1/4 380/1/4
f 379/2/4 375/2/4 380/2/4
f 380/1/4 376/1/4 381/1/4
f 382/2/4 383/2/4 387/2/4
f 383/1/4 384/1/4 387/1/4
f 384/2/4 385/2/4 388/2/4
f 387/1/4 384/1/4 388/1/4
f 385/1/4 386/1/4 389/1/4
f 388/2/4 385/2/4 389/2/4
f 389/1/4 386/1/4 390/1/4
f 388/1/4 389/1/4 391/1/4
f 391/1/4 389/1/4 392/1/4
f 382/2/4 387/2/4 395/2/4
f 393/1/4 394/1/4 396/1/4
f 396/1/4 394/1/4 397/1/4
f 396/2/4 397/2/4 399/2/4
f 395/1/4 396/1/4 399/1/4
f 397/1/4 398/1/4 400/1/4
f 399/2/4 397/2/4 400/2/4
f 400/1/4 398/1/4 401/1/4
f 382/2/4 395/2/4 402/2/4
f 395/1/4 399/1/4 402/1/4
f 402/1/4 399/1/4 403/1/4
f 382/2/4 402/2/4 404/2/4
f 382/2/4 404/2/4 405/2/4
f 382/2/4 405/2/4 406/2/4
f 406/2/4 405/2/4 407/2/4
f 408/2/4 409/2/4 411/2/4
f 409/1/4 410/1/4 412/1/4
f 411/2/4 409/2/4 412/2/4
f 412/1/4 410/1/4 413/1/4
f 411/1/4 412/1/4 414/1/4
f 414/1/4 412/1/4 415/1/4
f 416/1/4 417/1/4 419/1/4
f 419/1/4 417/1/4 420/1/4
f 419/2/4 420/2/4 422/2/4
f 418/1/4 419/1/4 422/1/4
f 420/1/4 421/1/4 423/1/4
f 422/2/4 420/2/4 423/2/4
f 418/1/4 422/1/4 424/1/4
f 422/1/4 423/1/4 424/1/4
f 424/1/4 423/1/4 425/1/4
f 423/1/4 421/1/4 426/1/4
f 425/1/4 423/1/4 426/1/4
f 426/1/4 421/1/4 427/1/4
f 430/1/4 431/1/4 432/1/4
f 432/1/4 431/1/4 433/1/4
f 428/2/4 429/2/4 434/2/4
f 434/2/4 429/2/4 435/2/4
f 438/2/5 437/2/5 436/2/5
f 439/2/5 437/2/5 438/2/5
f 442/2/5 441/2/5 440/2/5
f 443/2/5 441/2/5 442/2/5
f 446/2/5 445/2/5 444/2/5
f 447/2/5 445/2/5 446/2/5
f 450/2/5 449/2/5 448/2/5
f 451/2/5 449/2/5 450/2/5
f 454/2/5 453/2/5 452/2/5
f 455/2/5 453/2/5 454/2/5
f 458/2/5 457/2/5 456/2/5
f 459/2/5 457/2/5 458/2/5
f 460/2/5 457/2/5 459/2/5
f 461/2/5 457/2/5 460/2/5
f 464/2/5 463/2/5 462/2/5
f 465/2/5 463/2/5 464/2/5
f 472/1/5 467/1/5 466/1/5
f 473/1/5 467/1/5 472/1/5
f 474/1/5 469/1/5 468/1/5
f 475/1/5 469/1/5 474/1/5
f 476/1/5 471/1/5 470/1/5
f 477/1/5 471/1/5 476/1/5
f 484/1/5 479/1/5 478/1/5
f 485/1/5 479/1/5 484/1/5
f 486/1/5 481/1/5 480/1/5
f 487/1/5 481/1/5 486/1/5
f 488/1/5 483/1/5 482/1/5
f 489/1/5 483/1/5 488/1/5
f 496/1/5 491/1/5 490/1/5
f 497/1/5 491/1/5 496/1/5
f 498/1/5 493/1/5 492/1/5
f 499/1/5 493/1/5 498/1/5
f 500/1/5 495/1/5 494/1/5
f 501/1/5 495/1/5 500/1/5
f 508/1/5 503/1/5 502/1/5
f 509/1/5 503/1/5 508/1/5
f 510/1/5 505/1/5 504/1/5
f 511/1/5 505/1/5 510/1/5
f 512/1/5 507/1/5 506/1/5
f 513/1/5 507/1/5 512/1/5
f 520/1/5 515/1/5 514/1/5
f 521/1/5 515/1/5 520/1/5
f 522/1/5 517/1/5 516/1/5
f 523/1/5 517/1/5 522/1/5
f 524/1/5 519/1/5 518/1/5
f 525/1/5 519/1/5 524/1/5
f 532/1/5 527/1/5 526/1/5
f 533/1/5 527/1/5 532/1/5
f 534/1/5 529/1/5 528/1/5
f 535/1/5 529/1/5 534/1/5
f 536/1/5 531/1/5 530/1/5
f 537/1/5 531/1/5 536/1/5
f 540/1/5 539/1/5 538/1/5
f 541/1/5 539/1/5 540/1/5
f 554/1/5 553/1/5 552/1/5
f 555/1/5 553/1/5 554/1/5
f 556/1/5 543/1/5 542/1/5
f 557/1/5 543/1/5 556/1/5
f 558/1/5 545/1/5 544/1/5
f 559/1/5 545/1/5 558/1/5
f 561/1/5 547/1/5 546/1/5
f 562/2/5 561/2/5 560/2/5
f 563/1/5 547/1/5 561/1/5
f 563/2/5 561/2/5 562/2/5
f 564/1/5 547/1/5 563/1/5
f 565/1/5 549/1/5 548/1/5
f 566/1/5 549/1/5 565/1/5
f 567/1/5 551/1/5 550/1/5
f 568/1/5 551/1/5 567/1/5
f 569/1/5 551/1/5 568/1/5
f 570/2/6 571/2/6 578/2/6
f 578/2/6 571/2/6 579/2/6
f 572/2/6 573/2/6 580/2/6
f 580/2/6 573/2/6 581/2/6
f 574/2/6 575/2/6 582/2/6
f 582/2/6 575/2/6 583/2/6
f 576/2/6 577/2/6 584/2/6
f 584/2/6 577/2/6 585/2/6
f 586/2/6 587/2/6 594/2/6
f 594/2/6 587/2/6 595/2/6
f 588/2/6 589/2/6 596/2/6
f 596/2/6 589/2/6 597/2/6
f 590/2/6 591/2/6 598/2/6
f 598/2/6 591/2/6 599/2/6
f 592/2/6 593/2/6 600/2/6
f 600/2/6 593/2/6 601/2/6
f 602/2/6 603/2/6 610/2/6
f 610/2/6 603/2/6 611/2/6
f 604/2/6 605/2/6 612/2/6
f 612/2/6 605/2/6 613/2/6
f 606/2/6 607/2/6 614/2/6
f 614/2/6 607/2/6 615/2/6
f 608/2/6 609/2/6 616/2/6
f 616/2/6 609/2/6 617/2/6
f 618/2/6 619/2/6 626/2/6
f 626/2/6 619/2/6 627/2/6
f 620/2/6 621/2/6 628/2/6
f 628/2/6 621/2/6 629/2/6
f 622/2/6 623/2/6 630/2/6
f 630/2/6 623/2/6 631/2/6
f 624/2/6 625/2/6 632/2/6
f 632/2/6 625/2/6 633/2/6
f 634/2/6 635/2/6 642/2/6
f 642/2/6 635/2/6 643/2/6
f 636/2/6 637/2/6 644/2/6
f 644/2/6 637/2/6 645/2/6
f 638/2/6 639/2/6 646/2/6
f 646/2/6 639/2/6 647/2/6
f 640/2/6 641/2/6 648/2/6
f 648/2/6 641/2/6 649/2/6
f 650/2/6 651/2/6 658/2/6
f 658/2/6 651/2/6 659/2/6
f 652/2/6 653/2/6 660/2/6
f 660/2/6 653/2/6 661/2/6
f 654/2/6 655/2/6 662/2/6
f 662/2/6 655/2/6 663/2/6
f 656/2/6 657/2/6 664/2/6
f 664/2/6 657/2/6 665/2/6
f 666/2/6 667/2/6 668/2/6
f 668/2/6 667/2/6 669/2/6
f 680/1/6 681/1/6 682/1/6
f 682/1/6 681/1/6 683/1/6
f 670/1/6 671/1/6 684/1/6
f 684/1/6 671/1/6 685/1/6
f 672/1/6 673/1/6 686/1/6
f 686/1/6 673/1/6 687/1/6
f 674/1/6 675/1/6 688/1/6
f 688/1/6 675/1/6 689/1/6
f 676/1/6 677/1/6 690/1/6
f 690/1/6 677/1/6 691/1/6
f 678/1/6 679/1/6 692/1/6
f 692/1/6 679/1/6 693/1/6
f 693/1/6 679/1/6 694/1/6
f 695/1/6 696/1/6 701/1/6
f 701/1/6 696/1/6 702/1/6
f 702/1/6 696/1/6 703/1/6
f 703/1/6 696/1/6 704/1/6
f 697/1/6 698/1/6 705/1/6
f 705/1/6 698/1/6 706/1/6
f 706/1/6 698/1/6 707/1/6
f 707/1/6 698/1/6 708/1/6
f 699/1/6 700/1/6 709/1/6
f 709/1/6 700/1/6 710/1/6
