# MagicaVoxel @ Ephtracy

# group
o 

# material
mtllib балка на которой крутиться лента с низу к ней так же прикреплен генератор.mtl
usemtl palette

# normals
vn -1 0 0
vn 1 0 0
vn 0 0 1
vn 0 0 -1
vn 0 -1 0
vn 0 1 0

# texcoords
vt 0.306641 0.5
vt 0.310547 0.5

# verts
v -1.7 0.3 0.6
v -1.7 0.3 -1.4
v -1.7 0.7 0.6
v -1.7 0.7 -1.4
v -1.6 0.2 0.6
v -1.6 0.2 -1.4
v -1.6 0.3 0.6
v -1.6 0.3 -1.4
v -1.6 0.4 1.5
v -1.6 0.4 0.6
v -1.6 0.6 1.5
v -1.6 0.6 0.6
v -1.6 0.7 0.6
v -1.6 0.7 -1.4
v -1.6 0.8 0.6
v -1.6 0.8 -1.4
v -1.5 0.3 1.5
v -1.5 0.3 0.6
v -1.5 0.4 1.5
v -1.5 0.4 0.6
v -1.5 0.6 1.5
v -1.5 0.6 0.6
v -1.5 0.7 1.5
v -1.5 0.7 0.6
v -1.3 0.3 1.5
v -1.3 0.3 0.6
v -1.3 0.4 1.5
v -1.3 0.4 0.6
v -1.3 0.6 1.5
v -1.3 0.6 0.6
v -1.3 0.7 1.5
v -1.3 0.7 0.6
v -1.2 0.2 0.6
v -1.2 0.2 -1.4
v -1.2 0.3 0.6
v -1.2 0.3 -1.4
v -1.2 0.4 1.5
v -1.2 0.4 0.6
v -1.2 0.6 1.5
v -1.2 0.6 0.6
v -1.2 0.7 0.6
v -1.2 0.7 -1.4
v -1.2 0.8 0.6
v -1.2 0.8 -1.4
v -1.1 0.3 0.6
v -1.1 0.3 -1.4
v -1.1 0.7 0.6
v -1.1 0.7 -1.4
v -1.6 0.4 1.5
v -1.6 0.6 1.5
v -1.5 0.3 1.5
v -1.5 0.4 1.5
v -1.5 0.6 1.5
v -1.5 0.7 1.5
v -1.3 0.3 1.5
v -1.3 0.4 1.5
v -1.3 0.6 1.5
v -1.3 0.7 1.5
v -1.2 0.4 1.5
v -1.2 0.6 1.5
v -1.7 0.3 0.6
v -1.7 0.7 0.6
v -1.6 0.2 0.6
v -1.6 0.3 0.6
v -1.6 0.4 0.6
v -1.6 0.6 0.6
v -1.6 0.7 0.6
v -1.6 0.8 0.6
v -1.5 0.3 0.6
v -1.5 0.4 0.6
v -1.5 0.6 0.6
v -1.5 0.7 0.6
v -1.3 0.3 0.6
v -1.3 0.4 0.6
v -1.3 0.6 0.6
v -1.3 0.7 0.6
v -1.2 0.2 0.6
v -1.2 0.3 0.6
v -1.2 0.4 0.6
v -1.2 0.6 0.6
v -1.2 0.7 0.6
v -1.2 0.8 0.6
v -1.1 0.3 0.6
v -1.1 0.7 0.6
v -1.7 0.3 -1.4
v -1.7 0.7 -1.4
v -1.6 0.2 -1.4
v -1.6 0.3 -1.4
v -1.6 0.4 -1.4
v -1.6 0.6 -1.4
v -1.6 0.7 -1.4
v -1.6 0.8 -1.4
v -1.5 0.3 -1.4
v -1.5 0.4 -1.4
v -1.5 0.6 -1.4
v -1.5 0.7 -1.4
v -1.3 0.3 -1.4
v -1.3 0.4 -1.4
v -1.3 0.6 -1.4
v -1.3 0.7 -1.4
v -1.2 0.2 -1.4
v -1.2 0.3 -1.4
v -1.2 0.4 -1.4
v -1.2 0.6 -1.4
v -1.2 0.7 -1.4
v -1.2 0.8 -1.4
v -1.1 0.3 -1.4
v -1.1 0.7 -1.4
v -1.6 0.2 0.6
v -1.2 0.2 0.6
v -1.6 0.2 -1.4
v -1.2 0.2 -1.4
v -1.5 0.3 1.5
v -1.3 0.3 1.5
v -1.7 0.3 0.6
v -1.6 0.3 0.6
v -1.5 0.3 0.6
v -1.3 0.3 0.6
v -1.2 0.3 0.6
v -1.1 0.3 0.6
v -1.7 0.3 -1.4
v -1.6 0.3 -1.4
v -1.2 0.3 -1.4
v -1.1 0.3 -1.4
v -1.6 0.4 1.5
v -1.5 0.4 1.5
v -1.3 0.4 1.5
v -1.2 0.4 1.5
v -1.6 0.4 0.6
v -1.5 0.4 0.6
v -1.3 0.4 0.6
v -1.2 0.4 0.6
v -1.6 0.6 1.5
v -1.5 0.6 1.5
v -1.3 0.6 1.5
v -1.2 0.6 1.5
v -1.6 0.6 0.6
v -1.5 0.6 0.6
v -1.3 0.6 0.6
v -1.2 0.6 0.6
v -1.5 0.7 1.5
v -1.3 0.7 1.5
v -1.7 0.7 0.6
v -1.6 0.7 0.6
v -1.5 0.7 0.6
v -1.3 0.7 0.6
v -1.2 0.7 0.6
v -1.1 0.7 0.6
v -1.7 0.7 -1.4
v -1.6 0.7 -1.4
v -1.2 0.7 -1.4
v -1.1 0.7 -1.4
v -1.6 0.8 0.6
v -1.2 0.8 0.6
v -1.6 0.8 -1.4
v -1.2 0.8 -1.4

# faces
f 3/2/1 2/2/1 1/2/1
f 4/2/1 2/2/1 3/2/1
f 7/2/1 6/2/1 5/2/1
f 8/2/1 6/2/1 7/2/1
f 11/1/1 10/1/1 9/1/1
f 12/1/1 10/1/1 11/1/1
f 15/2/1 14/2/1 13/2/1
f 16/2/1 14/2/1 15/2/1
f 19/1/1 18/1/1 17/1/1
f 20/1/1 18/1/1 19/1/1
f 23/1/1 22/1/1 21/1/1
f 24/1/1 22/1/1 23/1/1
f 25/1/2 26/1/2 27/1/2
f 27/1/2 26/1/2 28/1/2
f 29/1/2 30/1/2 31/1/2
f 31/1/2 30/1/2 32/1/2
f 33/2/2 34/2/2 35/2/2
f 35/2/2 34/2/2 36/2/2
f 37/1/2 38/1/2 39/1/2
f 39/1/2 38/1/2 40/1/2
f 41/2/2 42/2/2 43/2/2
f 43/2/2 42/2/2 44/2/2
f 45/2/2 46/2/2 47/2/2
f 47/2/2 46/2/2 48/2/2
f 52/1/3 50/1/3 49/1/3
f 53/1/3 50/1/3 52/1/3
f 55/1/3 52/1/3 51/1/3
f 55/1/3 54/1/3 53/1/3
f 55/1/3 53/1/3 52/1/3
f 56/1/3 54/1/3 55/1/3
f 57/1/3 54/1/3 56/1/3
f 58/1/3 54/1/3 57/1/3
f 59/1/3 57/1/3 56/1/3
f 60/1/3 57/1/3 59/1/3
f 64/2/3 62/2/3 61/2/3
f 65/2/3 62/2/3 64/2/3
f 66/2/3 62/2/3 65/2/3
f 67/2/3 62/2/3 66/2/3
f 69/2/3 64/2/3 63/2/3
f 69/2/3 65/2/3 64/2/3
f 70/2/3 65/2/3 69/2/3
f 71/2/3 68/2/3 67/2/3
f 71/2/3 67/2/3 66/2/3
f 72/2/3 68/2/3 71/2/3
f 73/2/3 69/2/3 63/2/3
f 76/2/3 68/2/3 72/2/3
f 77/2/3 74/2/3 73/2/3
f 77/2/3 73/2/3 63/2/3
f 78/2/3 74/2/3 77/2/3
f 79/2/3 74/2/3 78/2/3
f 80/2/3 76/2/3 75/2/3
f 81/2/3 68/2/3 76/2/3
f 81/2/3 76/2/3 80/2/3
f 82/2/3 68/2/3 81/2/3
f 83/2/3 79/2/3 78/2/3
f 83/2/3 80/2/3 79/2/3
f 83/2/3 81/2/3 80/2/3
f 84/2/3 81/2/3 83/2/3
f 85/2/4 86/2/4 88/2/4
f 88/2/4 86/2/4 89/2/4
f 89/2/4 86/2/4 90/2/4
f 90/2/4 86/2/4 91/2/4
f 87/2/4 88/2/4 93/2/4
f 88/2/4 89/2/4 93/2/4
f 89/1/4 90/1/4 94/1/4
f 93/2/4 89/2/4 94/2/4
f 91/2/4 92/2/4 95/2/4
f 94/1/4 90/1/4 95/1/4
f 90/2/4 91/2/4 95/2/4
f 95/2/4 92/2/4 96/2/4
f 93/1/4 94/1/4 97/1/4
f 87/2/4 93/2/4 97/2/4
f 95/1/4 96/1/4 97/1/4
f 94/1/4 95/1/4 97/1/4
f 97/1/4 96/1/4 98/1/4
f 98/1/4 96/1/4 99/1/4
f 96/2/4 92/2/4 100/2/4
f 99/1/4 96/1/4 100/1/4
f 87/2/4 97/2/4 101/2/4
f 97/2/4 98/2/4 101/2/4
f 101/2/4 98/2/4 102/2/4
f 98/1/4 99/1/4 103/1/4
f 102/2/4 98/2/4 103/2/4
f 99/2/4 100/2/4 104/2/4
f 103/1/4 99/1/4 104/1/4
f 100/2/4 92/2/4 105/2/4
f 104/2/4 100/2/4 105/2/4
f 105/2/4 92/2/4 106/2/4
f 103/2/4 104/2/4 107/2/4
f 104/2/4 105/2/4 107/2/4
f 102/2/4 103/2/4 107/2/4
f 107/2/4 105/2/4 108/2/4
f 111/2/5 110/2/5 109/2/5
f 112/2/5 110/2/5 111/2/5
f 117/1/5 114/1/5 113/1/5
f 118/1/5 114/1/5 117/1/5
f 121/2/5 116/2/5 115/2/5
f 122/2/5 116/2/5 121/2/5
f 123/2/5 120/2/5 119/2/5
f 124/2/5 120/2/5 123/2/5
f 129/1/5 126/1/5 125/1/5
f 130/1/5 126/1/5 129/1/5
f 131/1/5 128/1/5 127/1/5
f 132/1/5 128/1/5 131/1/5
f 133/1/6 134/1/6 137/1/6
f 137/1/6 134/1/6 138/1/6
f 135/1/6 136/1/6 139/1/6
f 139/1/6 136/1/6 140/1/6
f 141/1/6 142/1/6 145/1/6
f 145/1/6 142/1/6 146/1/6
f 143/2/6 144/2/6 149/2/6
f 149/2/6 144/2/6 150/2/6
f 147/2/6 148/2/6 151/2/6
f 151/2/6 148/2/6 152/2/6
f 153/2/6 154/2/6 155/2/6
f 155/2/6 154/2/6 156/2/6
