# MagicaVoxel @ Ephtracy

# group
o 

# material
mtllib шлагбаум( палка).mtl
usemtl palette

# normals
vn -1 0 0
vn 1 0 0
vn 0 0 1
vn 0 0 -1
vn 0 -1 0
vn 0 1 0

# texcoords
vt 0.166016 0.5
vt 0.955078 0.5
vt 0.978516 0.5
vt 0.990234 0.5

# verts
v -2.5 2.8 0.2
v -2.5 2.8 -0.2
v -2.5 3.2 0.2
v -2.5 3.2 -0.2
v -2.4 2.7 0.2
v -2.4 2.7 -0.2
v -2.4 2.8 0.3
v -2.4 2.8 0.2
v -2.4 2.8 -0.2
v -2.4 2.8 -0.3
v -2.4 3.2 0.3
v -2.4 3.2 0.2
v -2.4 3.2 -0.2
v -2.4 3.2 -0.3
v -2.4 3.3 0.2
v -2.4 3.3 -0.2
v -1.8 2.7 0.2
v -1.8 2.7 -0.2
v -1.8 2.8 0.3
v -1.8 2.8 0.2
v -1.8 2.8 -0.2
v -1.8 2.8 -0.3
v -1.8 3.2 0.3
v -1.8 3.2 0.2
v -1.8 3.2 -0.2
v -1.8 3.2 -0.3
v -1.8 3.3 0.2
v -1.8 3.3 -0.2
v 2.3 2.8 0.2
v 2.3 2.8 -0.2
v 2.3 3.2 0.2
v 2.3 3.2 -0.2
v -2.4 2.8 0.3
v -2.4 3.2 0.3
v -1.8 2.8 0.3
v -1.8 3.2 0.3
v -2.5 2.8 0.2
v -2.5 3.2 0.2
v -2.4 2.7 0.2
v -2.4 2.8 0.2
v -2.4 3.2 0.2
v -2.4 3.3 0.2
v -1.8 2.7 0.2
v -1.8 2.8 0.2
v -1.8 3.2 0.2
v -1.8 3.3 0.2
v -1.7 2.8 0.2
v -1.7 3.2 0.2
v -1.6 2.8 0.2
v -1.6 3.2 0.2
v -1.5 2.8 0.2
v -1.5 3.2 0.2
v -1.4 2.8 0.2
v -1.4 3.2 0.2
v -1.3 2.8 0.2
v -1.3 3.2 0.2
v -1.2 2.8 0.2
v -1.2 3.2 0.2
v -1.1 2.8 0.2
v -1.1 3.2 0.2
v -1 2.8 0.2
v -1 3.2 0.2
v -0.9 2.8 0.2
v -0.9 3.2 0.2
v -0.8 2.8 0.2
v -0.8 3.2 0.2
v -0.7 2.8 0.2
v -0.7 3.2 0.2
v -0.6 2.8 0.2
v -0.6 3.2 0.2
v -0.5 2.8 0.2
v -0.5 3.2 0.2
v -0.4 2.8 0.2
v -0.4 3.2 0.2
v -0.3 2.8 0.2
v -0.3 3.2 0.2
v -0.2 2.8 0.2
v -0.2 3.2 0.2
v -0.0999999 2.8 0.2
v -0.0999999 3.2 0.2
v 2.38419e-07 2.8 0.2
v 2.38419e-07 3.2 0.2
v 0.1 2.8 0.2
v 0.1 3.2 0.2
v 0.2 2.8 0.2
v 0.2 3.2 0.2
v 0.3 2.8 0.2
v 0.3 3.2 0.2
v 0.4 2.8 0.2
v 0.4 3.2 0.2
v 0.5 2.8 0.2
v 0.5 3.2 0.2
v 0.6 2.8 0.2
v 0.6 3.2 0.2
v 0.7 2.8 0.2
v 0.7 3.2 0.2
v 0.8 2.8 0.2
v 0.8 3.2 0.2
v 0.9 2.8 0.2
v 0.9 3.2 0.2
v 1 2.8 0.2
v 1 3.2 0.2
v 1.1 2.8 0.2
v 1.1 3.2 0.2
v 1.2 2.8 0.2
v 1.2 3.2 0.2
v 1.3 2.8 0.2
v 1.3 3.2 0.2
v 1.4 2.8 0.2
v 1.4 3.2 0.2
v 1.5 2.8 0.2
v 1.5 3.2 0.2
v 1.6 2.8 0.2
v 1.6 3.2 0.2
v 1.7 2.8 0.2
v 1.7 3.2 0.2
v 1.8 2.8 0.2
v 1.8 3.2 0.2
v 1.9 2.8 0.2
v 1.9 3.2 0.2
v 2 2.8 0.2
v 2 3.2 0.2
v 2.1 2.8 0.2
v 2.1 3.2 0.2
v 2.2 2.8 0.2
v 2.2 3.2 0.2
v 2.3 2.8 0.2
v 2.3 3.2 0.2
v -2.5 2.8 -0.2
v -2.5 3.2 -0.2
v -2.4 2.7 -0.2
v -2.4 2.8 -0.2
v -2.4 3.2 -0.2
v -2.4 3.3 -0.2
v -1.8 2.7 -0.2
v -1.8 2.8 -0.2
v -1.8 3.2 -0.2
v -1.8 3.3 -0.2
v -1.7 2.8 -0.2
v -1.7 3.2 -0.2
v -1.6 2.8 -0.2
v -1.6 3.2 -0.2
v -1.5 2.8 -0.2
v -1.5 3.2 -0.2
v -1.4 2.8 -0.2
v -1.4 3.2 -0.2
v -1.3 2.8 -0.2
v -1.3 3.2 -0.2
v -1.2 2.8 -0.2
v -1.2 3.2 -0.2
v -1.1 2.8 -0.2
v -1.1 3.2 -0.2
v -1 2.8 -0.2
v -1 3.2 -0.2
v -0.9 2.8 -0.2
v -0.9 3.2 -0.2
v -0.8 2.8 -0.2
v -0.8 3.2 -0.2
v -0.7 2.8 -0.2
v -0.7 3.2 -0.2
v -0.6 2.8 -0.2
v -0.6 3.2 -0.2
v -0.5 2.8 -0.2
v -0.5 3.2 -0.2
v -0.4 2.8 -0.2
v -0.4 3.2 -0.2
v -0.3 2.8 -0.2
v -0.3 3.2 -0.2
v -0.2 2.8 -0.2
v -0.2 3.2 -0.2
v -0.0999999 2.8 -0.2
v -0.0999999 3.2 -0.2
v 2.38419e-07 2.8 -0.2
v 2.38419e-07 3.2 -0.2
v 0.1 2.8 -0.2
v 0.1 3.2 -0.2
v 0.2 2.8 -0.2
v 0.2 3.2 -0.2
v 0.3 2.8 -0.2
v 0.3 3.2 -0.2
v 0.4 2.8 -0.2
v 0.4 3.2 -0.2
v 0.5 2.8 -0.2
v 0.5 3.2 -0.2
v 0.6 2.8 -0.2
v 0.6 3.2 -0.2
v 0.7 2.8 -0.2
v 0.7 3.2 -0.2
v 0.8 2.8 -0.2
v 0.8 3.2 -0.2
v 0.9 2.8 -0.2
v 0.9 3.2 -0.2
v 1 2.8 -0.2
v 1 3.2 -0.2
v 1.1 2.8 -0.2
v 1.1 3.2 -0.2
v 1.2 2.8 -0.2
v 1.2 3.2 -0.2
v 1.3 2.8 -0.2
v 1.3 3.2 -0.2
v 1.4 2.8 -0.2
v 1.4 3.2 -0.2
v 1.5 2.8 -0.2
v 1.5 3.2 -0.2
v 1.6 2.8 -0.2
v 1.6 3.2 -0.2
v 1.7 2.8 -0.2
v 1.7 3.2 -0.2
v 1.8 2.8 -0.2
v 1.8 3.2 -0.2
v 1.9 2.8 -0.2
v 1.9 3.2 -0.2
v 2 2.8 -0.2
v 2 3.2 -0.2
v 2.1 2.8 -0.2
v 2.1 3.2 -0.2
v 2.2 2.8 -0.2
v 2.2 3.2 -0.2
v 2.3 2.8 -0.2
v 2.3 3.2 -0.2
v -2.4 2.8 -0.3
v -2.4 3.2 -0.3
v -1.8 2.8 -0.3
v -1.8 3.2 -0.3
v -2.4 2.7 0.2
v -1.8 2.7 0.2
v -2.4 2.7 -0.2
v -1.8 2.7 -0.2
v -2.4 2.8 0.3
v -1.8 2.8 0.3
v -2.5 2.8 0.2
v -2.4 2.8 0.2
v -1.8 2.8 0.2
v -1.7 2.8 0.2
v -1.6 2.8 0.2
v -1.5 2.8 0.2
v -1.4 2.8 0.2
v -1.3 2.8 0.2
v -1.2 2.8 0.2
v -1.1 2.8 0.2
v -1 2.8 0.2
v -0.9 2.8 0.2
v -0.8 2.8 0.2
v -0.7 2.8 0.2
v -0.6 2.8 0.2
v -0.5 2.8 0.2
v -0.4 2.8 0.2
v -0.3 2.8 0.2
v -0.2 2.8 0.2
v -0.0999999 2.8 0.2
v 2.38419e-07 2.8 0.2
v 0.1 2.8 0.2
v 0.2 2.8 0.2
v 0.3 2.8 0.2
v 0.4 2.8 0.2
v 0.5 2.8 0.2
v 0.6 2.8 0.2
v 0.7 2.8 0.2
v 0.8 2.8 0.2
v 0.9 2.8 0.2
v 1 2.8 0.2
v 1.1 2.8 0.2
v 1.2 2.8 0.2
v 1.3 2.8 0.2
v 1.4 2.8 0.2
v 1.5 2.8 0.2
v 1.6 2.8 0.2
v 1.7 2.8 0.2
v 1.8 2.8 0.2
v 1.9 2.8 0.2
v 2 2.8 0.2
v 2.1 2.8 0.2
v 2.2 2.8 0.2
v 2.3 2.8 0.2
v -2.5 2.8 -0.2
v -2.4 2.8 -0.2
v -1.8 2.8 -0.2
v -1.7 2.8 -0.2
v -1.6 2.8 -0.2
v -1.5 2.8 -0.2
v -1.4 2.8 -0.2
v -1.3 2.8 -0.2
v -1.2 2.8 -0.2
v -1.1 2.8 -0.2
v -1 2.8 -0.2
v -0.9 2.8 -0.2
v -0.8 2.8 -0.2
v -0.7 2.8 -0.2
v -0.6 2.8 -0.2
v -0.5 2.8 -0.2
v -0.4 2.8 -0.2
v -0.3 2.8 -0.2
v -0.2 2.8 -0.2
v -0.0999999 2.8 -0.2
v 2.38419e-07 2.8 -0.2
v 0.1 2.8 -0.2
v 0.2 2.8 -0.2
v 0.3 2.8 -0.2
v 0.4 2.8 -0.2
v 0.5 2.8 -0.2
v 0.6 2.8 -0.2
v 0.7 2.8 -0.2
v 0.8 2.8 -0.2
v 0.9 2.8 -0.2
v 1 2.8 -0.2
v 1.1 2.8 -0.2
v 1.2 2.8 -0.2
v 1.3 2.8 -0.2
v 1.4 2.8 -0.2
v 1.5 2.8 -0.2
v 1.6 2.8 -0.2
v 1.7 2.8 -0.2
v 1.8 2.8 -0.2
v 1.9 2.8 -0.2
v 2 2.8 -0.2
v 2.1 2.8 -0.2
v 2.2 2.8 -0.2
v 2.3 2.8 -0.2
v -2.4 2.8 -0.3
v -1.8 2.8 -0.3
v -2.4 3.2 0.3
v -1.8 3.2 0.3
v -2.5 3.2 0.2
v -2.4 3.2 0.2
v -1.8 3.2 0.2
v -1.7 3.2 0.2
v -1.6 3.2 0.2
v -1.5 3.2 0.2
v -1.4 3.2 0.2
v -1.3 3.2 0.2
v -1.2 3.2 0.2
v -1.1 3.2 0.2
v -1 3.2 0.2
v -0.9 3.2 0.2
v -0.8 3.2 0.2
v -0.7 3.2 0.2
v -0.6 3.2 0.2
v -0.5 3.2 0.2
v -0.4 3.2 0.2
v -0.3 3.2 0.2
v -0.2 3.2 0.2
v -0.0999999 3.2 0.2
v 2.38419e-07 3.2 0.2
v 0.1 3.2 0.2
v 0.2 3.2 0.2
v 0.3 3.2 0.2
v 0.4 3.2 0.2
v 0.5 3.2 0.2
v 0.6 3.2 0.2
v 0.7 3.2 0.2
v 0.8 3.2 0.2
v 0.9 3.2 0.2
v 1 3.2 0.2
v 1.1 3.2 0.2
v 1.2 3.2 0.2
v 1.3 3.2 0.2
v 1.4 3.2 0.2
v 1.5 3.2 0.2
v 1.6 3.2 0.2
v 1.7 3.2 0.2
v 1.8 3.2 0.2
v 1.9 3.2 0.2
v 2 3.2 0.2
v 2.1 3.2 0.2
v 2.2 3.2 0.2
v 2.3 3.2 0.2
v -2.5 3.2 -0.2
v -2.4 3.2 -0.2
v -1.8 3.2 -0.2
v -1.7 3.2 -0.2
v -1.6 3.2 -0.2
v -1.5 3.2 -0.2
v -1.4 3.2 -0.2
v -1.3 3.2 -0.2
v -1.2 3.2 -0.2
v -1.1 3.2 -0.2
v -1 3.2 -0.2
v -0.9 3.2 -0.2
v -0.8 3.2 -0.2
v -0.7 3.2 -0.2
v -0.6 3.2 -0.2
v -0.5 3.2 -0.2
v -0.4 3.2 -0.2
v -0.3 3.2 -0.2
v -0.2 3.2 -0.2
v -0.0999999 3.2 -0.2
v 2.38419e-07 3.2 -0.2
v 0.1 3.2 -0.2
v 0.2 3.2 -0.2
v 0.3 3.2 -0.2
v 0.4 3.2 -0.2
v 0.5 3.2 -0.2
v 0.6 3.2 -0.2
v 0.7 3.2 -0.2
v 0.8 3.2 -0.2
v 0.9 3.2 -0.2
v 1 3.2 -0.2
v 1.1 3.2 -0.2
v 1.2 3.2 -0.2
v 1.3 3.2 -0.2
v 1.4 3.2 -0.2
v 1.5 3.2 -0.2
v 1.6 3.2 -0.2
v 1.7 3.2 -0.2
v 1.8 3.2 -0.2
v 1.9 3.2 -0.2
v 2 3.2 -0.2
v 2.1 3.2 -0.2
v 2.2 3.2 -0.2
v 2.3 3.2 -0.2
v -2.4 3.2 -0.3
v -1.8 3.2 -0.3
v -2.4 3.3 0.2
v -1.8 3.3 0.2
v -2.2 3.3 0.0999998
v -2 3.3 0.0999998
v -2.2 3.3 -0.1
v -2 3.3 -0.1
v -2.4 3.3 -0.2
v -1.8 3.3 -0.2

# faces
f 3/3/1 2/3/1 1/3/1
f 4/3/1 2/3/1 3/3/1
f 8/3/1 6/3/1 5/3/1
f 9/3/1 6/3/1 8/3/1
f 11/3/1 8/3/1 7/3/1
f 12/3/1 8/3/1 11/3/1
f 13/3/1 10/3/1 9/3/1
f 14/3/1 10/3/1 13/3/1
f 15/3/1 13/3/1 12/3/1
f 16/3/1 13/3/1 15/3/1
f 17/3/2 18/3/2 20/3/2
f 20/3/2 18/3/2 21/3/2
f 19/3/2 20/3/2 23/3/2
f 23/3/2 20/3/2 24/3/2
f 21/3/2 22/3/2 25/3/2
f 25/3/2 22/3/2 26/3/2
f 24/3/2 25/3/2 27/3/2
f 27/3/2 25/3/2 28/3/2
f 29/1/2 30/1/2 31/1/2
f 31/1/2 30/1/2 32/1/2
f 35/3/3 34/3/3 33/3/3
f 36/3/3 34/3/3 35/3/3
f 40/3/3 38/3/3 37/3/3
f 41/3/3 38/3/3 40/3/3
f 43/3/3 40/3/3 39/3/3
f 44/3/3 40/3/3 43/3/3
f 45/3/3 42/3/3 41/3/3
f 46/3/3 42/3/3 45/3/3
f 47/3/3 45/3/3 44/3/3
f 48/3/3 45/3/3 47/3/3
f 49/2/3 48/2/3 47/2/3
f 50/2/3 48/2/3 49/2/3
f 51/1/3 50/1/3 49/1/3
f 52/1/3 50/1/3 51/1/3
f 53/2/3 52/2/3 51/2/3
f 54/2/3 52/2/3 53/2/3
f 55/1/3 54/1/3 53/1/3
f 56/1/3 54/1/3 55/1/3
f 57/2/3 56/2/3 55/2/3
f 58/2/3 56/2/3 57/2/3
f 59/1/3 58/1/3 57/1/3
f 60/1/3 58/1/3 59/1/3
f 61/2/3 60/2/3 59/2/3
f 62/2/3 60/2/3 61/2/3
f 63/1/3 62/1/3 61/1/3
f 64/1/3 62/1/3 63/1/3
f 65/2/3 64/2/3 63/2/3
f 66/2/3 64/2/3 65/2/3
f 67/1/3 66/1/3 65/1/3
f 68/1/3 66/1/3 67/1/3
f 69/2/3 68/2/3 67/2/3
f 70/2/3 68/2/3 69/2/3
f 71/1/3 70/1/3 69/1/3
f 72/1/3 70/1/3 71/1/3
f 73/2/3 72/2/3 71/2/3
f 74/2/3 72/2/3 73/2/3
f 75/1/3 74/1/3 73/1/3
f 76/1/3 74/1/3 75/1/3
f 77/2/3 76/2/3 75/2/3
f 78/2/3 76/2/3 77/2/3
f 79/1/3 78/1/3 77/1/3
f 80/1/3 78/1/3 79/1/3
f 81/2/3 80/2/3 79/2/3
f 82/2/3 80/2/3 81/2/3
f 83/1/3 82/1/3 81/1/3
f 84/1/3 82/1/3 83/1/3
f 85/2/3 84/2/3 83/2/3
f 86/2/3 84/2/3 85/2/3
f 87/1/3 86/1/3 85/1/3
f 88/1/3 86/1/3 87/1/3
f 89/2/3 88/2/3 87/2/3
f 90/2/3 88/2/3 89/2/3
f 91/1/3 90/1/3 89/1/3
f 92/1/3 90/1/3 91/1/3
f 93/2/3 92/2/3 91/2/3
f 94/2/3 92/2/3 93/2/3
f 95/1/3 94/1/3 93/1/3
f 96/1/3 94/1/3 95/1/3
f 97/2/3 96/2/3 95/2/3
f 98/2/3 96/2/3 97/2/3
f 99/1/3 98/1/3 97/1/3
f 100/1/3 98/1/3 99/1/3
f 101/2/3 100/2/3 99/2/3
f 102/2/3 100/2/3 101/2/3
f 103/1/3 102/1/3 101/1/3
f 104/1/3 102/1/3 103/1/3
f 105/2/3 104/2/3 103/2/3
f 106/2/3 104/2/3 105/2/3
f 107/1/3 106/1/3 105/1/3
f 108/1/3 106/1/3 107/1/3
f 109/2/3 108/2/3 107/2/3
f 110/2/3 108/2/3 109/2/3
f 111/1/3 110/1/3 109/1/3
f 112/1/3 110/1/3 111/1/3
f 113/2/3 112/2/3 111/2/3
f 114/2/3 112/2/3 113/2/3
f 115/1/3 114/1/3 113/1/3
f 116/1/3 114/1/3 115/1/3
f 117/2/3 116/2/3 115/2/3
f 118/2/3 116/2/3 117/2/3
f 119/1/3 118/1/3 117/1/3
f 120/1/3 118/1/3 119/1/3
f 121/2/3 120/2/3 119/2/3
f 122/2/3 120/2/3 121/2/3
f 123/1/3 122/1/3 121/1/3
f 124/1/3 122/1/3 123/1/3
f 125/2/3 124/2/3 123/2/3
f 126/2/3 124/2/3 125/2/3
f 127/1/3 126/1/3 125/1/3
f 128/1/3 126/1/3 127/1/3
f 129/3/4 130/3/4 132/3/4
f 132/3/4 130/3/4 133/3/4
f 131/3/4 132/3/4 135/3/4
f 135/3/4 132/3/4 136/3/4
f 133/3/4 134/3/4 137/3/4
f 137/3/4 134/3/4 138/3/4
f 136/3/4 137/3/4 139/3/4
f 139/3/4 137/3/4 140/3/4
f 139/2/4 140/2/4 141/2/4
f 141/2/4 140/2/4 142/2/4
f 141/1/4 142/1/4 143/1/4
f 143/1/4 142/1/4 144/1/4
f 143/2/4 144/2/4 145/2/4
f 145/2/4 144/2/4 146/2/4
f 145/1/4 146/1/4 147/1/4
f 147/1/4 146/1/4 148/1/4
f 147/2/4 148/2/4 149/2/4
f 149/2/4 148/2/4 150/2/4
f 149/1/4 150/1/4 151/1/4
f 151/1/4 150/1/4 152/1/4
f 151/2/4 152/2/4 153/2/4
f 153/2/4 152/2/4 154/2/4
f 153/1/4 154/1/4 155/1/4
f 155/1/4 154/1/4 156/1/4
f 155/2/4 156/2/4 157/2/4
f 157/2/4 156/2/4 158/2/4
f 157/1/4 158/1/4 159/1/4
f 159/1/4 158/1/4 160/1/4
f 159/2/4 160/2/4 161/2/4
f 161/2/4 160/2/4 162/2/4
f 161/1/4 162/1/4 163/1/4
f 163/1/4 162/1/4 164/1/4
f 163/2/4 164/2/4 165/2/4
f 165/2/4 164/2/4 166/2/4
f 165/1/4 166/1/4 167/1/4
f 167/1/4 166/1/4 168/1/4
f 167/2/4 168/2/4 169/2/4
f 169/2/4 168/2/4 170/2/4
f 169/1/4 170/1/4 171/1/4
f 171/1/4 170/1/4 172/1/4
f 171/2/4 172/2/4 173/2/4
f 173/2/4 172/2/4 174/2/4
f 173/1/4 174/1/4 175/1/4
f 175/1/4 174/1/4 176/1/4
f 175/2/4 176/2/4 177/2/4
f 177/2/4 176/2/4 178/2/4
f 177/1/4 178/1/4 179/1/4
f 179/1/4 178/1/4 180/1/4
f 179/2/4 180/2/4 181/2/4
f 181/2/4 180/2/4 182/2/4
f 181/1/4 182/1/4 183/1/4
f 183/1/4 182/1/4 184/1/4
f 183/2/4 184/2/4 185/2/4
f 185/2/4 184/2/4 186/2/4
f 185/1/4 186/1/4 187/1/4
f 187/1/4 186/1/4 188/1/4
f 187/2/4 188/2/4 189/2/4
f 189/2/4 188/2/4 190/2/4
f 189/1/4 190/1/4 191/1/4
f 191/1/4 190/1/4 192/1/4
f 191/2/4 192/2/4 193/2/4
f 193/2/4 192/2/4 194/2/4
f 193/1/4 194/1/4 195/1/4
f 195/1/4 194/1/4 196/1/4
f 195/2/4 196/2/4 197/2/4
f 197/2/4 196/2/4 198/2/4
f 197/1/4 198/1/4 199/1/4
f 199/1/4 198/1/4 200/1/4
f 199/2/4 200/2/4 201/2/4
f 201/2/4 200/2/4 202/2/4
f 201/1/4 202/1/4 203/1/4
f 203/1/4 202/1/4 204/1/4
f 203/2/4 204/2/4 205/2/4
f 205/2/4 204/2/4 206/2/4
f 205/1/4 206/1/4 207/1/4
f 207/1/4 206/1/4 208/1/4
f 207/2/4 208/2/4 209/2/4
f 209/2/4 208/2/4 210/2/4
f 209/1/4 210/1/4 211/1/4
f 211/1/4 210/1/4 212/1/4
f 211/2/4 212/2/4 213/2/4
f 213/2/4 212/2/4 214/2/4
f 213/1/4 214/1/4 215/1/4
f 215/1/4 214/1/4 216/1/4
f 215/2/4 216/2/4 217/2/4
f 217/2/4 216/2/4 218/2/4
f 217/1/4 218/1/4 219/1/4
f 219/1/4 218/1/4 220/1/4
f 221/3/4 222/3/4 223/3/4
f 223/3/4 222/3/4 224/3/4
f 227/3/5 226/3/5 225/3/5
f 228/3/5 226/3/5 227/3/5
f 232/3/5 230/3/5 229/3/5
f 233/3/5 230/3/5 232/3/5
f 275/3/5 232/3/5 231/3/5
f 276/3/5 232/3/5 275/3/5
f 277/3/5 234/3/5 233/3/5
f 278/2/5 235/2/5 234/2/5
f 278/3/5 234/3/5 277/3/5
f 279/1/5 236/1/5 235/1/5
f 279/2/5 235/2/5 278/2/5
f 280/2/5 237/2/5 236/2/5
f 280/1/5 236/1/5 279/1/5
f 281/1/5 238/1/5 237/1/5
f 281/2/5 237/2/5 280/2/5
f 282/2/5 239/2/5 238/2/5
f 282/1/5 238/1/5 281/1/5
f 283/1/5 240/1/5 239/1/5
f 283/2/5 239/2/5 282/2/5
f 284/2/5 241/2/5 240/2/5
f 284/1/5 240/1/5 283/1/5
f 285/1/5 242/1/5 241/1/5
f 285/2/5 241/2/5 284/2/5
f 286/2/5 243/2/5 242/2/5
f 286/1/5 242/1/5 285/1/5
f 287/1/5 244/1/5 243/1/5
f 287/2/5 243/2/5 286/2/5
f 288/2/5 245/2/5 244/2/5
f 288/1/5 244/1/5 287/1/5
f 289/1/5 246/1/5 245/1/5
f 289/2/5 245/2/5 288/2/5
f 290/2/5 247/2/5 246/2/5
f 290/1/5 246/1/5 289/1/5
f 291/1/5 248/1/5 247/1/5
f 291/2/5 247/2/5 290/2/5
f 292/2/5 249/2/5 248/2/5
f 292/1/5 248/1/5 291/1/5
f 293/1/5 250/1/5 249/1/5
f 293/2/5 249/2/5 292/2/5
f 294/2/5 251/2/5 250/2/5
f 294/1/5 250/1/5 293/1/5
f 295/1/5 252/1/5 251/1/5
f 295/2/5 251/2/5 294/2/5
f 296/2/5 253/2/5 252/2/5
f 296/1/5 252/1/5 295/1/5
f 297/1/5 254/1/5 253/1/5
f 297/2/5 253/2/5 296/2/5
f 298/2/5 255/2/5 254/2/5
f 298/1/5 254/1/5 297/1/5
f 299/1/5 256/1/5 255/1/5
f 299/2/5 255/2/5 298/2/5
f 300/2/5 257/2/5 256/2/5
f 300/1/5 256/1/5 299/1/5
f 301/1/5 258/1/5 257/1/5
f 301/2/5 257/2/5 300/2/5
f 302/2/5 259/2/5 258/2/5
f 302/1/5 258/1/5 301/1/5
f 303/1/5 260/1/5 259/1/5
f 303/2/5 259/2/5 302/2/5
f 304/2/5 261/2/5 260/2/5
f 304/1/5 260/1/5 303/1/5
f 305/1/5 262/1/5 261/1/5
f 305/2/5 261/2/5 304/2/5
f 306/2/5 263/2/5 262/2/5
f 306/1/5 262/1/5 305/1/5
f 307/1/5 264/1/5 263/1/5
f 307/2/5 263/2/5 306/2/5
f 308/2/5 265/2/5 264/2/5
f 308/1/5 264/1/5 307/1/5
f 309/1/5 266/1/5 265/1/5
f 309/2/5 265/2/5 308/2/5
f 310/2/5 267/2/5 266/2/5
f 310/1/5 266/1/5 309/1/5
f 311/1/5 268/1/5 267/1/5
f 311/2/5 267/2/5 310/2/5
f 312/2/5 269/2/5 268/2/5
f 312/1/5 268/1/5 311/1/5
f 313/1/5 270/1/5 269/1/5
f 313/2/5 269/2/5 312/2/5
f 314/2/5 271/2/5 270/2/5
f 314/1/5 270/1/5 313/1/5
f 315/1/5 272/1/5 271/1/5
f 315/2/5 271/2/5 314/2/5
f 316/2/5 273/2/5 272/2/5
f 316/1/5 272/1/5 315/1/5
f 317/1/5 274/1/5 273/1/5
f 317/2/5 273/2/5 316/2/5
f 318/1/5 274/1/5 317/1/5
f 319/3/5 277/3/5 276/3/5
f 320/3/5 277/3/5 319/3/5
f 321/3/6 322/3/6 324/3/6
f 324/3/6 322/3/6 325/3/6
f 323/3/6 324/3/6 367/3/6
f 367/3/6 324/3/6 368/3/6
f 325/3/6 326/3/6 369/3/6
f 326/2/6 327/2/6 370/2/6
f 369/3/6 326/3/6 370/3/6
f 327/1/6 328/1/6 371/1/6
f 370/2/6 327/2/6 371/2/6
f 328/2/6 329/2/6 372/2/6
f 371/1/6 328/1/6 372/1/6
f 329/1/6 330/1/6 373/1/6
f 372/2/6 329/2/6 373/2/6
f 330/2/6 331/2/6 374/2/6
f 373/1/6 330/1/6 374/1/6
f 331/1/6 332/1/6 375/1/6
f 374/2/6 331/2/6 375/2/6
f 332/2/6 333/2/6 376/2/6
f 375/1/6 332/1/6 376/1/6
f 333/1/6 334/1/6 377/1/6
f 376/2/6 333/2/6 377/2/6
f 334/2/6 335/2/6 378/2/6
f 377/1/6 334/1/6 378/1/6
f 335/1/6 336/1/6 379/1/6
f 378/2/6 335/2/6 379/2/6
f 336/2/6 337/2/6 380/2/6
f 379/1/6 336/1/6 380/1/6
f 337/1/6 338/1/6 381/1/6
f 380/2/6 337/2/6 381/2/6
f 338/2/6 339/2/6 382/2/6
f 381/1/6 338/1/6 382/1/6
f 339/1/6 340/1/6 383/1/6
f 382/2/6 339/2/6 383/2/6
f 340/2/6 341/2/6 384/2/6
f 383/1/6 340/1/6 384/1/6
f 341/1/6 342/1/6 385/1/6
f 384/2/6 341/2/6 385/2/6
f 342/2/6 343/2/6 386/2/6
f 385/1/6 342/1/6 386/1/6
f 343/1/6 344/1/6 387/1/6
f 386/2/6 343/2/6 387/2/6
f 344/2/6 345/2/6 388/2/6
f 387/1/6 344/1/6 388/1/6
f 345/1/6 346/1/6 389/1/6
f 388/2/6 345/2/6 389/2/6
f 346/2/6 347/2/6 390/2/6
f 389/1/6 346/1/6 390/1/6
f 347/1/6 348/1/6 391/1/6
f 390/2/6 347/2/6 391/2/6
f 348/2/6 349/2/6 392/2/6
f 391/1/6 348/1/6 392/1/6
f 349/1/6 350/1/6 393/1/6
f 392/2/6 349/2/6 393/2/6
f 350/2/6 351/2/6 394/2/6
f 393/1/6 350/1/6 394/1/6
f 351/1/6 352/1/6 395/1/6
f 394/2/6 351/2/6 395/2/6
f 352/2/6 353/2/6 396/2/6
f 395/1/6 352/1/6 396/1/6
f 353/1/6 354/1/6 397/1/6
f 396/2/6 353/2/6 397/2/6
f 354/2/6 355/2/6 398/2/6
f 397/1/6 354/1/6 398/1/6
f 355/1/6 356/1/6 399/1/6
f 398/2/6 355/2/6 399/2/6
f 356/2/6 357/2/6 400/2/6
f 399/1/6 356/1/6 400/1/6
f 357/1/6 358/1/6 401/1/6
f 400/2/6 357/2/6 401/2/6
f 358/2/6 359/2/6 402/2/6
f 401/1/6 358/1/6 402/1/6
f 359/1/6 360/1/6 403/1/6
f 402/2/6 359/2/6 403/2/6
f 360/2/6 361/2/6 404/2/6
f 403/1/6 360/1/6 404/1/6
f 361/1/6 362/1/6 405/1/6
f 404/2/6 361/2/6 405/2/6
f 362/2/6 363/2/6 406/2/6
f 405/1/6 362/1/6 406/1/6
f 363/1/6 364/1/6 407/1/6
f 406/2/6 363/2/6 407/2/6
f 364/2/6 365/2/6 408/2/6
f 407/1/6 364/1/6 408/1/6
f 365/1/6 366/1/6 409/1/6
f 408/2/6 365/2/6 409/2/6
f 409/1/6 366/1/6 410/1/6
f 368/3/6 369/3/6 411/3/6
f 411/3/6 369/3/6 412/3/6
f 413/3/6 414/3/6 415/3/6
f 415/3/6 414/3/6 416/3/6
f 413/3/6 415/3/6 417/3/6
f 415/4/6 416/4/6 417/4/6
f 416/3/6 414/3/6 418/3/6
f 417/4/6 416/4/6 418/4/6
f 413/3/6 417/3/6 419/3/6
f 417/3/6 418/3/6 419/3/6
f 418/3/6 414/3/6 420/3/6
f 419/3/6 418/3/6 420/3/6
