# Blender 4.0.2
# www.blender.org
mtllib dynamite1.mtl
o Cube.003
v 0.400000 0.000000 0.400000
v 0.400000 2.800000 0.400000
v 0.800000 0.000000 0.000000
v 0.800000 2.800000 0.000000
v 1.200000 0.000000 0.400000
v 1.198838 2.797545 0.397186
v 0.800000 0.000000 0.800000
v 0.798838 2.797545 0.797186
v 0.800000 0.000000 0.400000
v 0.400000 0.000000 0.600000
v 0.400000 2.800000 0.200000
v 0.600000 0.000000 0.000000
v 1.000000 2.800000 0.000000
v 1.200000 0.000000 0.200000
v 1.198838 2.797545 0.597186
v 1.000000 0.000000 0.800000
v 0.600000 2.800000 0.800000
v 0.400000 0.000000 0.200000
v 0.400000 2.800000 0.600000
v 1.000000 0.000000 0.000000
v 0.600000 2.800000 0.000000
v 1.200000 0.000000 0.600000
v 1.200000 2.800000 0.200000
v 0.600000 0.000000 0.800000
v 0.998838 2.797545 0.797186
v -0.400000 0.000000 -0.800000
v -0.400000 2.800000 -0.800000
v 0.000000 0.000000 -1.200000
v 0.000000 2.800000 -1.200000
v 0.400000 0.000000 -0.800000
v 0.400000 2.800000 -0.800000
v 0.000000 0.000000 -0.400000
v 0.000000 2.800000 -0.400000
v 0.000000 0.000000 -0.800000
v -0.400000 0.000000 -0.600000
v -0.400000 2.800000 -1.000000
v -0.200000 0.000000 -1.200000
v 0.200000 2.800000 -1.200000
v 0.400000 0.000000 -1.000000
v 0.400000 2.800000 -0.600000
v 0.200000 0.000000 -0.400000
v -0.200000 2.800000 -0.400000
v -0.400000 0.000000 -1.000000
v -0.400000 2.800000 -0.600000
v 0.200000 0.000000 -1.200000
v -0.200000 2.800000 -1.200000
v 0.400000 0.000000 -0.600000
v 0.400000 2.800000 -1.000000
v -0.200000 0.000000 -0.400000
v 0.200000 2.800000 -0.400000
v -0.400000 0.000000 0.000000
v -0.400000 2.800000 0.000000
v 0.000000 0.000000 -0.400000
v 0.000000 2.800000 -0.400000
v 0.400000 0.000000 0.000000
v 0.400000 2.800000 0.000000
v 0.000000 0.000000 0.400000
v 0.000000 2.800000 0.400000
v 0.000000 0.000000 0.000000
v -0.400000 0.000000 0.200000
v -0.400000 2.800000 -0.200000
v -0.200000 0.000000 -0.400000
v 0.200000 2.800000 -0.400000
v 0.400000 0.000000 -0.200000
v 0.400000 2.800000 0.200000
v 0.200000 0.000000 0.400000
v -0.200000 2.800000 0.400000
v -0.400000 0.000000 -0.200000
v -0.400000 2.800000 0.200000
v 0.200000 0.000000 -0.400000
v -0.200000 2.800000 -0.400000
v 0.400000 0.000000 0.200000
v 0.400000 2.800000 -0.200000
v -0.200000 0.000000 0.400000
v 0.200000 2.800000 0.400000
v -1.200000 0.000000 -0.400000
v -1.200000 2.800000 -0.400000
v -0.800000 0.000000 -0.800000
v -0.800000 2.800000 -0.800000
v -0.400000 0.000000 -0.400000
v -0.400000 2.800000 -0.400000
v -0.800000 0.000000 0.000000
v -0.800000 2.800000 0.000000
v -0.800000 0.000000 -0.400000
v -1.200000 0.000000 -0.200000
v -1.200000 2.800000 -0.600000
v -1.000000 0.000000 -0.800000
v -0.600000 2.800000 -0.800000
v -0.400000 0.000000 -0.600000
v -0.400000 2.800000 -0.200000
v -0.600000 0.000000 0.000000
v -1.000000 2.800000 0.000000
v -1.200000 0.000000 -0.600000
v -1.200000 2.800000 -0.200000
v -0.600000 0.000000 -0.800000
v -1.000000 2.800000 -0.800000
v -0.400000 0.000000 -0.200000
v -0.400000 2.800000 -0.600000
v -1.000000 0.000000 0.000000
v -0.600000 2.800000 0.000000
v -0.400000 0.000000 0.800000
v -0.400000 2.800000 0.800000
v 0.000000 0.000000 0.400000
v 0.000000 2.800000 0.400000
v 0.400000 0.000000 0.800000
v 0.400000 2.800000 0.800000
v 0.000000 0.000000 1.200000
v 0.000000 2.800000 1.200000
v 0.000000 0.000000 0.800000
v -0.400000 0.000000 1.000000
v -0.400000 2.800000 0.600000
v -0.200000 0.000000 0.400000
v 0.200000 2.800000 0.400000
v 0.400000 0.000000 0.600000
v 0.400000 2.800000 1.000000
v 0.200000 0.000000 1.200000
v -0.200000 2.800000 1.200000
v -0.400000 0.000000 0.600000
v -0.400000 2.800000 1.000000
v 0.200000 0.000000 0.400000
v -0.200000 2.800000 0.400000
v 0.400000 0.000000 1.000000
v 0.400000 2.800000 0.600000
v -0.200000 0.000000 1.200000
v 0.200000 2.800000 1.200000
v -1.200000 0.000000 0.400000
v -1.200000 2.800000 0.400000
v -0.800000 0.000000 0.000000
v -0.800000 2.800000 0.000000
v -0.400000 0.000000 0.400000
v -0.400000 2.800000 0.400000
v -0.800000 0.000000 0.800000
v -0.800000 2.800000 0.800000
v -0.800000 0.000000 0.400000
v -1.200000 0.000000 0.600000
v -1.200000 2.800000 0.200000
v -1.000000 0.000000 0.000000
v -0.600000 2.800000 0.000000
v -0.400000 0.000000 0.200000
v -0.400000 2.800000 0.600000
v -0.600000 0.000000 0.800000
v -1.000000 2.800000 0.800000
v -1.200000 0.000000 0.200000
v -1.200000 2.800000 0.600000
v -0.600000 0.000000 0.000000
v -1.000000 2.800000 0.000000
v -0.400000 0.000000 0.600000
v -0.400000 2.800000 0.200000
v -1.000000 0.000000 0.800000
v -0.600000 2.800000 0.800000
v 0.400000 0.000000 -0.400000
v 0.400000 2.800000 -0.400000
v 0.800000 0.000000 -0.800000
v 0.800000 2.800000 -0.800000
v 1.200000 0.000000 -0.400000
v 1.200000 2.800000 -0.400000
v 0.800000 0.000000 0.000000
v 0.800000 2.800000 0.000000
v 0.800000 0.000000 -0.400000
v 0.400000 0.000000 -0.200000
v 0.400000 2.800000 -0.600000
v 0.600000 0.000000 -0.800000
v 1.000000 2.800000 -0.800000
v 1.200000 0.000000 -0.600000
v 1.200000 2.800000 -0.200000
v 1.000000 0.000000 0.000000
v 0.600000 2.800000 0.000000
v 0.400000 0.000000 -0.600000
v 0.400000 2.800000 -0.200000
v 1.000000 0.000000 -0.800000
v 0.600000 2.800000 -0.800000
v 1.200000 0.000000 -0.200000
v 1.200000 2.800000 -0.600000
v 0.600000 0.000000 0.000000
v 1.000000 2.800000 0.000000
v 0.838342 2.799946 0.438740
v 0.876742 2.799946 0.399860
v 0.915142 2.799946 0.438443
v 0.915031 2.798473 0.438467
v 0.876631 2.798473 0.477347
v 0.876782 2.799946 0.477620
v -0.038458 2.799946 -0.877900
v -0.000058 2.799946 -0.916780
v 0.038342 2.799946 -0.877900
v -0.000058 2.799946 -0.839020
v -0.038458 2.799946 -0.000140
v -0.000058 2.799946 -0.039020
v 0.038342 2.799946 -0.000140
v -0.000058 2.799946 0.038740
v 0.038342 3.223453 -0.000140
v -0.915258 2.799946 -0.439020
v -0.876858 2.799946 -0.477900
v -0.838458 2.799946 -0.439020
v -0.876858 2.799946 -0.400140
v -0.038458 3.223453 -0.000140
v -0.038458 2.799946 0.877620
v -0.000058 2.799946 0.838740
v 0.038342 2.799946 0.877620
v -0.000058 2.799946 0.916500
v -0.000058 3.223453 -0.039020
v -0.915258 2.799946 0.438740
v -0.876858 2.799946 0.399860
v -0.838458 2.799946 0.438740
v -0.876858 2.799946 0.477620
v -0.000058 3.223453 0.038740
v 0.838342 2.799946 -0.439020
v 0.876742 2.799946 -0.477900
v 0.915142 2.799946 -0.439020
v 0.876742 2.799946 -0.400140
v 0.915142 3.060102 0.438443
v 0.915031 3.058629 0.438467
v 0.876631 3.058629 0.477347
v 0.876742 3.060102 0.399860
v 0.838342 3.060102 0.438740
v 0.876782 3.060102 0.477620
v -0.000058 3.060102 -0.839020
v -0.000058 3.060102 -0.916780
v -0.038458 3.060102 -0.877900
v 0.038342 3.060102 -0.877900
v -0.000058 3.199946 0.038740
v -0.000058 3.199946 -0.039020
v -0.038458 3.199946 -0.000140
v 0.876742 3.060102 -0.400140
v 0.915142 3.060102 -0.439020
v 0.038342 3.199946 -0.000140
v -0.876858 3.060102 0.477620
v -0.838458 3.060102 0.438740
v -0.876858 3.060102 -0.400140
v -0.876858 3.060102 -0.477900
v -0.915258 3.060102 -0.439020
v -0.000058 3.060102 0.916500
v 0.038342 3.060102 0.877620
v -0.838458 3.060102 -0.439020
v -0.000058 3.060102 0.838740
v -0.038458 3.060102 0.877620
v 0.876742 3.060102 -0.477900
v 0.838342 3.060102 -0.439020
v -0.876858 3.060102 0.399860
v -0.915258 3.060102 0.438740
v -0.000058 3.199946 -0.639020
v 0.038342 3.199946 -0.658460
v -0.038458 3.199946 -0.658460
v -0.000058 3.199946 0.638740
v 0.038342 3.199946 0.658180
v -0.038458 3.199946 0.658180
v 0.419142 3.211699 -0.239020
v 0.457542 3.211699 -0.200140
v 0.457542 3.211699 0.199860
v 0.419142 3.211699 0.238740
v -0.457658 3.211699 -0.200140
v -0.419258 3.211699 -0.239020
v -0.457658 3.211699 0.199860
v -0.419258 3.211699 0.238740
v -0.000058 3.522029 0.038740
v 0.038342 3.522029 -0.000140
v -0.000058 3.522029 -0.039020
v -0.038458 3.522029 -0.000140
v 1.200000 1.073740 0.200000
v 0.999419 1.072513 0.798593
v 1.199419 1.072513 0.598593
v -0.200000 1.073740 -1.200000
v 0.200000 1.073740 -1.200000
v -1.200000 1.073740 -0.200000
v -1.000000 1.073740 -0.800000
v -1.200000 1.073740 -0.600000
v 0.200000 1.073740 1.200000
v -0.200000 1.073740 1.200000
v -1.200000 1.073740 0.600000
v -1.000000 1.073740 0.800000
v -1.200000 1.073740 0.200000
v 1.200000 1.073740 -0.600000
v 1.200000 1.073740 -0.200000
v 1.000000 1.073740 -0.800000
v 1.200000 1.773741 0.200000
v 0.999128 1.771899 0.797890
v 1.199128 1.771899 0.597890
v -0.200000 1.773741 -1.200000
v 0.200000 1.773741 -1.200000
v -1.200000 1.773741 -0.200000
v -1.000000 1.773741 -0.800000
v -1.200000 1.773741 -0.600000
v 0.200000 1.773741 1.200000
v -0.200000 1.773741 1.200000
v -1.200000 1.773741 0.600000
v -1.000000 1.773741 0.800000
v -1.200000 1.773741 0.200000
v 1.200000 1.773741 -0.600000
v 1.200000 1.773741 -0.200000
v 1.000000 1.773741 -0.800000
vn -0.7071 -0.0000 0.7071
vn 0.7071 0.0013 0.7071
vn -0.0001 1.0000 -0.0000
vn -0.0000 -1.0000 -0.0000
vn 0.7071 -0.0000 -0.7071
vn 1.0000 0.0003 0.0007
vn -1.0000 -0.0000 -0.0000
vn -0.7071 -0.0000 -0.7071
vn -0.0001 1.0000 0.0001
vn 0.0040 0.0008 1.0000
vn -0.0001 1.0000 -0.0001
vn -0.0000 1.0000 -0.0001
vn 0.7071 -0.0000 0.7071
vn -0.0000 1.0000 0.0001
vn 1.0000 -0.0000 -0.0000
vn -0.0000 -0.0000 -1.0000
vn 0.0001 1.0000 -0.0001
vn 0.0001 1.0000 0.0001
vn -0.0002 1.0000 -0.0000
vn -0.0000 1.0000 0.0002
vn -0.0000 1.0000 0.0029
vn 0.0002 1.0000 -0.0000
vn -0.0000 -0.0000 1.0000
vn 0.0021 1.0000 0.0021
vn 0.0001 1.0000 -0.0000
vn 0.0114 0.9997 0.0200
vn 0.7088 -0.0000 -0.7054
vn 0.7115 -0.0000 0.7027
vn -0.7115 -0.0000 0.7027
vn -0.7115 -0.0000 -0.7027
vn -0.7111 -0.0000 0.7031
vn 0.7115 -0.0000 -0.7027
vn 0.8749 -0.0000 -0.4842
vn -0.0000 1.0000 -0.0002
vn 0.0033 1.0000 -0.0000
vn 0.0200 0.9997 0.0124
vn -0.0000 1.0000 -0.0000
vn 0.0193 0.9996 0.0190
vn 0.2055 -0.0000 0.9787
vn -0.3882 0.7667 -0.5113
vn 0.3882 0.7667 -0.5113
vn 0.3882 0.7667 0.5113
vn -0.2323 0.9452 0.2295
vn -0.2323 0.9452 -0.2295
vn 0.0191 0.9996 -0.0188
vn 0.2323 0.9452 0.2295
vn -0.3882 0.7667 0.5113
vn 0.2323 0.9452 -0.2295
vn 0.0191 0.9996 0.0188
vn -0.0191 0.9996 -0.0188
vn -0.0191 0.9996 0.0188
vn 1.0000 0.0002 0.0018
vn 0.7071 0.0010 0.7071
vn 0.7071 0.0007 0.7071
vn 1.0000 0.0004 0.0026
vn 0.4472 -0.0000 0.8944
vn 0.4472 -0.0000 -0.8944
vn -0.4491 -0.0005 -0.8935
vn -0.4472 -0.0000 0.8944
vt 0.134375 0.412500
vt 0.034375 0.537500
vt 0.084375 0.587500
vt 0.171875 0.550000
vt 0.103125 0.556250
vt 0.071875 0.550000
vt 0.084375 0.537500
vt 0.109375 0.537500
vt 0.134375 0.537500
vt 0.134375 0.525000
vt 0.046875 0.500000
vt 0.059375 0.500000
vt 0.059375 0.525000
vt 0.034375 0.525000
vt 0.034375 0.512500
vt 0.134375 0.512500
vt 0.121875 0.512500
vt 0.109375 0.512500
vt 0.084375 0.512500
vt 0.084375 0.487500
vt 0.146875 0.500000
vt 0.084375 0.525000
vt 0.134375 0.425000
vt 0.134375 0.437500
vt 0.084375 0.437500
vt 0.084375 0.425000
vt 0.084375 0.412500
vt 0.071875 0.500000
vt 0.134375 0.462500
vt 0.184375 0.512500
vt 0.059375 0.550000
vt 0.046875 0.550000
vt 0.134375 0.575000
vt 0.134375 0.587500
vt 0.084375 0.575000
vt 0.084375 0.562500
vt 0.109375 0.562500
vt 0.121875 0.562500
vt 0.134375 0.562500
vt 0.000000 0.000000
vt 0.115625 0.493750
vt 0.131250 0.496875
vt 0.109375 0.462500
vt 0.109375 0.487500
vt 0.084375 0.475000
vt 0.084375 0.462500
vt 0.112500 0.471875
vt 0.090625 0.481250
vt 0.134375 0.475000
vt 0.109375 0.443750
vt 0.134375 0.487500
vt 0.121875 0.462500
vt 0.109375 0.412500
vt 0.109375 0.437500
vt 0.128125 0.568750
vt 0.150000 0.559375
vt 0.118750 0.559375
vt 0.109375 0.587500
vt 0.159375 0.493750
vt 0.121875 0.587500
vt 0.121875 0.537500
vt 0.121875 0.487500
vt 0.756250 0.512500
vt 0.768750 0.500000
vt 0.756250 0.562500
vt 0.756250 0.537500
vt 0.756250 0.412500
vt 0.793750 0.550000
vt 0.756250 0.462500
vt 0.806250 0.512500
vt 0.756250 0.587500
vt 0.756250 0.575000
vt 0.793750 0.500000
vt 0.806250 0.537500
vt 0.768750 0.550000
vt 0.756250 0.525000
vt 0.756250 0.531250
vt 0.759375 0.546875
vt 0.768750 0.437500
vt 0.793750 0.487500
vt 0.756250 0.487500
vt 0.775000 0.531250
vt 0.762500 0.456250
vt 0.756250 0.500000
vt 0.781250 0.537500
vt 0.765625 0.515625
vt 0.756250 0.518750
vt 0.842299 0.529634
vt 0.835916 0.541023
vt 0.850121 0.574114
vt 0.860168 0.552071
vt 0.864490 0.532750
vt 0.844709 0.517839
vt 0.793333 0.472421
vt 0.799884 0.459626
vt 0.785376 0.426803
vt 0.774689 0.450009
vt 0.770369 0.470485
vt 0.790917 0.484901
vt 0.798607 0.541946
vt 0.793022 0.525920
vt 0.770542 0.544270
vt 0.779894 0.575212
vt 0.822696 0.442888
vt 0.825353 0.400014
vt 0.814384 0.400264
vt 0.816770 0.440847
vt 0.808247 0.449330
vt 0.798206 0.407945
vt 0.839000 0.461971
vt 0.843907 0.477910
vt 0.866457 0.462034
vt 0.858270 0.430190
vt 0.828091 0.552079
vt 0.820897 0.561809
vt 0.822983 0.599986
vt 0.837797 0.590803
vt 0.814675 0.560028
vt 0.813033 0.599986
vt 0.121875 0.437500
vt 0.121875 0.412500
s 0
usemtl Material.007
f 19/1/1 10/2/1 24/3/1 17/4/1
f 259/5/2 16/6/2 22/7/2 260/8/2
f 90/9/3 81/10/3 193/9/3
f 12/11/4 3/12/4 9/13/4 1/14/4 18/15/4
f 23/16/5 274/17/5 258/18/5 14/19/5 20/20/5 13/21/5
f 258/18/6 260/8/6 22/7/6 5/22/6 14/19/6
f 2/23/7 11/24/7 18/25/7 1/26/7 10/27/7 19/1/7
f 3/12/4 20/28/4 14/19/4 5/22/4 9/13/4
f 21/29/8 12/11/8 18/25/8 11/30/8
f 1/14/4 9/13/4 7/31/4 24/32/4 10/2/4
f 173/16/9 163/21/9 207/21/9 208/16/9
f 8/33/10 17/34/10 24/3/10 7/35/10 16/36/10 259/37/10 275/38/10 25/39/10
f 125/39/11 115/9/11 198/9/11 199/39/11
f 58/40/12 75/40/12 189/40/12
f 9/13/4 5/22/4 22/7/4 16/6/4 7/31/4
f 44/1/1 35/2/1 49/3/1 42/4/1
f 50/39/13 41/6/13 47/7/13 40/9/13
f 138/40/14 129/40/14 202/40/14
f 37/11/4 28/12/4 34/13/4 26/14/4 43/15/4
f 48/16/5 39/19/5 45/20/5 262/41/5 278/42/5 38/21/5
f 31/10/15 40/9/15 47/7/15 30/22/15 39/19/15 48/16/15
f 261/43/16 262/44/16 45/20/16 28/45/16 37/46/16
f 27/23/7 36/24/7 43/25/7 26/26/7 35/27/7 44/1/7
f 28/12/4 45/28/4 39/19/4 30/22/4 34/13/4
f 46/29/8 277/47/8 261/48/8 37/11/8 43/25/8 36/30/8
f 26/14/4 34/13/4 32/31/4 49/32/4 35/2/4
f 69/1/17 67/4/17 189/4/17 186/1/17
f 171/29/18 161/30/18 206/30/18 207/29/18
f 106/10/3 123/16/3 198/10/3
f 34/13/4 30/22/4 47/7/4 41/6/4 32/31/4
f 69/1/1 60/2/1 74/3/1 67/4/1
f 75/39/13 66/6/13 72/7/13 65/9/13
f 40/9/19 31/10/19 184/9/19
f 62/11/4 53/12/4 59/13/4 51/14/4 68/15/4
f 73/16/5 64/19/5 70/20/5 63/21/5
f 56/10/15 65/9/15 72/7/15 55/22/15 64/19/15 73/16/15
f 52/23/7 61/24/7 68/25/7 51/26/7 60/27/7 69/1/7
f 53/12/4 70/28/4 64/19/4 55/22/4 59/13/4
f 71/29/8 62/11/8 68/25/8 61/30/8
f 51/14/4 59/13/4 57/31/4 74/32/4 60/2/4
f 123/16/9 113/21/9 197/21/9 198/16/9
f 75/39/11 65/9/11 188/9/11 189/39/11
f 154/49/20 171/29/20 207/49/20
f 59/13/4 55/22/4 72/7/4 66/6/4 57/31/4
f 94/1/1 279/50/1 263/45/1 85/2/1 99/3/1 92/4/1
f 100/39/13 91/6/13 97/7/13 90/9/13
f 88/51/20 79/49/20 192/51/20
f 87/11/4 78/12/4 84/13/4 76/14/4 93/15/4
f 98/16/5 89/19/5 95/20/5 88/21/5
f 81/10/15 90/9/15 97/7/15 80/22/15 89/19/15 98/16/15
f 79/49/16 88/51/16 95/20/16 78/45/16 87/46/16 264/43/16 280/52/16 96/29/16
f 263/53/7 265/54/7 93/25/7 76/26/7 85/27/7
f 78/12/4 95/28/4 89/19/4 80/22/4 84/13/4
f 264/48/8 87/11/8 93/25/8 265/49/8
f 76/14/4 84/13/4 82/31/4 99/32/4 85/2/4
f 8/33/21 25/39/21 180/33/21
f 19/1/17 17/4/17 181/4/17 176/1/17
f 121/29/18 111/30/18 196/30/18 197/29/18
f 84/13/4 80/22/4 97/7/4 91/6/4 82/31/4
f 119/1/1 110/2/1 124/3/1 267/55/1 283/56/1 117/4/1
f 125/39/13 282/57/13 266/5/13 116/6/13 122/7/13 115/9/13
f 56/10/3 73/16/3 188/10/3
f 112/11/4 103/12/4 109/13/4 101/14/4 118/15/4
f 123/16/5 114/19/5 120/20/5 113/21/5
f 106/10/15 115/9/15 122/7/15 105/22/15 114/19/15 123/16/15
f 102/23/7 111/24/7 118/25/7 101/26/7 110/27/7 119/1/7
f 103/12/4 120/28/4 114/19/4 105/22/4 109/13/4
f 121/29/8 112/11/8 118/25/8 111/30/8
f 101/14/4 109/13/4 107/31/4 124/32/4 110/2/4
f 136/24/22 127/23/22 201/24/22
f 266/37/23 267/58/23 124/3/23 107/35/23 116/36/23
f 73/16/9 63/21/9 187/21/9 188/16/9
f 104/40/14 121/40/14 197/40/14
f 109/13/4 105/22/4 122/7/4 116/6/4 107/31/4
f 268/45/1 135/2/1 149/3/1 269/55/1
f 150/39/13 141/6/13 147/7/13 140/9/13
f 25/39/24 15/9/24 179/9/24 180/39/24
f 137/11/4 128/12/4 134/13/4 126/14/4 143/15/4
f 148/16/5 139/19/5 145/20/5 138/21/5
f 131/10/15 140/9/15 147/7/15 130/22/15 139/19/15 148/16/15
f 268/53/7 270/54/7 143/25/7 126/26/7 135/27/7
f 128/12/4 145/28/4 139/19/4 130/22/4 134/13/4
f 146/29/8 137/11/8 143/25/8 270/49/8 286/59/8 136/30/8
f 126/14/4 134/13/4 132/31/4 149/32/4 135/2/4
f 38/51/20 29/49/20 183/51/20
f 133/33/23 142/34/23 285/60/23 269/58/23 149/3/23 132/35/23 141/36/23 150/39/23
f 71/29/18 61/30/18 186/30/18 187/29/18
f 152/23/25 169/1/25 206/23/25
f 134/13/4 130/22/4 147/7/4 141/6/4 132/31/4
f 169/1/1 160/2/1 174/3/1 167/4/1
f 175/39/13 166/6/13 172/7/13 272/8/13 288/61/13 165/9/13
f 86/24/22 77/23/22 191/24/22
f 162/11/4 153/12/4 159/13/4 151/14/4 168/15/4
f 271/18/5 164/19/5 170/20/5 273/41/5
f 271/18/15 272/8/15 172/7/15 155/22/15 164/19/15
f 154/49/16 163/51/16 289/62/16 273/44/16 170/20/16 153/45/16 162/46/16 171/29/16
f 152/23/7 161/24/7 168/25/7 151/26/7 160/27/7 169/1/7
f 153/12/4 170/28/4 164/19/4 155/22/4 159/13/4
f 171/29/8 162/11/8 168/25/8 161/30/8
f 151/14/4 159/13/4 157/31/4 174/32/4 160/2/4
f 6/10/26 23/16/26 178/16/26 179/10/26
f 23/16/9 13/21/9 177/21/9 178/16/9
f 54/40/14 71/40/14 187/40/14
f 159/13/4 155/22/4 172/7/4 166/6/4 157/31/4
f 178/63/27 177/64/27 213/64/27 210/63/27
f 209/65/28 208/66/28 224/66/28 223/65/28
f 185/65/28 184/66/28 219/66/28 216/65/28
f 201/67/29 204/68/29 226/68/29 239/67/29
f 182/67/29 185/68/29 216/68/29 218/67/29
f 196/67/29 199/68/29 231/68/29 235/67/29
f 192/69/30 191/70/30 230/70/30 229/69/30
f 183/69/30 182/70/30 218/70/30 217/69/30
f 189/65/28 188/66/28 225/66/28 220/65/28
f 176/67/31 181/68/31 215/68/31 214/67/31
f 208/63/32 207/64/32 236/64/32 224/63/32
f 197/69/30 196/70/30 235/70/30 234/69/30
f 203/63/32 202/64/32 238/64/32 227/63/32
f 202/69/30 201/70/30 239/70/30 238/69/30
f 186/67/29 189/68/29 220/68/29 222/67/29
f 194/65/28 193/66/28 233/66/28 228/65/28
f 191/67/29 194/68/29 228/68/29 230/67/29
f 198/63/32 197/64/32 234/64/32 232/63/32
f 199/65/28 198/66/28 232/66/28 231/65/28
f 193/63/32 192/64/32 229/64/32 233/63/32
f 187/69/30 186/70/30 222/70/30 221/69/30
f 188/63/32 187/64/32 221/64/32 225/63/32
f 181/71/33 180/72/33 212/72/33 215/71/33
f 184/63/32 183/64/32 217/64/32 219/63/32
f 207/69/30 206/70/30 237/70/30 236/69/30
f 204/65/28 203/66/28 227/66/28 226/65/28
f 206/67/29 209/68/29 223/68/29 237/67/29
f 177/69/30 176/70/30 214/70/30 213/69/30
f 156/10/19 173/16/19 208/10/19
f 119/1/17 117/4/17 199/4/17 196/1/17
f 42/40/12 33/40/12 185/40/12
f 108/33/34 125/39/34 199/33/34
f 175/39/11 165/9/11 208/9/11 209/39/11
f 140/9/3 131/10/3 203/9/3
f 169/1/17 167/4/17 209/4/17 206/1/17
f 92/40/12 83/40/12 194/40/12
f 158/40/12 175/40/12 209/40/12
f 142/34/34 133/33/34 204/34/34
f 27/23/25 44/1/25 182/23/25
f 11/24/25 2/23/25 176/24/25
f 77/23/22 94/1/22 191/23/22
f 29/49/20 46/29/20 183/49/20
f 61/24/25 52/23/25 186/24/25
f 127/23/22 144/1/22 201/23/22
f 46/29/18 36/30/18 182/30/18 183/29/18
f 13/40/14 4/40/14 177/40/14
f 79/49/20 96/29/20 192/49/20
f 48/16/9 38/21/9 183/21/9 184/16/9
f 111/24/22 102/23/22 196/24/22
f 31/10/19 48/16/19 184/10/19
f 96/29/18 86/30/18 191/30/18 192/29/18
f 63/40/14 54/40/14 187/40/14
f 129/40/14 146/40/14 202/40/14
f 50/39/11 40/9/11 184/9/11 185/39/11
f 15/9/35 6/10/35 179/9/35
f 98/16/9 88/21/9 192/21/9 193/16/9
f 161/24/25 152/23/25 206/24/25
f 81/10/3 98/16/3 193/10/3
f 146/29/18 136/30/18 201/30/18 202/29/18
f 44/1/17 42/4/17 185/4/17 182/1/17
f 113/40/14 104/40/14 197/40/14
f 33/40/12 50/40/12 185/40/12
f 100/39/11 90/9/11 193/9/11 194/39/11
f 148/16/9 138/21/9 202/21/9 203/16/9
f 65/9/3 56/10/3 188/9/3
f 131/10/3 148/16/3 203/10/3
f 17/34/36 8/33/36 180/33/36 181/34/36
f 94/1/17 92/4/17 194/4/17 191/1/17
f 163/51/20 154/49/20 207/51/20
f 83/40/12 100/40/12 194/40/12
f 150/39/11 140/9/11 203/9/11 204/39/11
f 115/9/3 106/10/3 198/9/3
f 144/1/17 142/4/17 204/4/17 201/1/17
f 67/40/12 58/40/12 189/40/12
f 133/33/34 150/39/34 204/33/34
f 165/9/19 156/10/19 208/9/19
f 117/34/34 108/33/34 199/34/34
f 167/40/12 158/40/12 209/40/12
f 2/23/25 19/1/25 176/23/25
f 52/23/25 69/1/25 186/23/25
f 4/40/14 21/40/14 177/40/14
f 36/24/22 27/23/22 182/24/22
f 21/29/18 11/30/18 176/30/18 177/29/18
f 102/23/25 119/1/25 196/23/25
f 219/63/37 217/73/37 218/74/37 216/75/37
f 233/63/37 229/73/37 230/74/37 228/75/37
f 222/67/29 220/68/29 205/68/29 195/67/29
f 221/69/30 222/70/30 195/70/30 200/69/30
f 225/63/32 221/64/32 200/64/32 190/63/32
f 220/65/28 225/66/28 190/66/28 205/65/28
f 232/63/37 234/73/37 235/74/37 231/75/37
f 227/63/37 238/73/37 239/74/37 226/75/37
f 190/63/32 200/64/32 256/64/32 255/63/32
f 211/76/38 210/63/38 213/73/38 214/74/38 215/68/38 212/75/38
f 179/76/39 178/63/39 210/63/39 211/76/39
f 180/65/28 179/66/28 211/66/28 212/65/28
f 224/63/37 236/73/37 237/74/37 223/75/37
f 241/77/40 219/66/40 216/65/40 240/78/40
f 242/79/37 222/70/37 221/69/37 240/66/37
f 241/77/37 240/78/37 221/64/37 225/63/37
f 218/67/41 242/79/41 240/66/41 216/65/41
f 245/80/42 235/70/42 234/69/42 243/81/42
f 253/82/43 252/83/43 238/64/43 227/63/43
f 251/84/44 233/66/44 228/65/44 250/85/44
f 247/82/45 246/83/45 200/64/45 190/63/45
f 248/84/46 249/85/46 214/70/46 213/69/46
f 245/80/37 243/81/37 220/65/37 222/67/37
f 225/66/37 220/65/37 243/86/37 244/87/37
f 232/63/47 244/87/47 243/86/47 234/64/47
f 223/68/48 237/67/48 246/83/48 247/82/48
f 190/66/49 205/65/49 249/85/49 248/84/49
f 200/69/50 251/84/50 250/85/50 195/70/50
f 205/68/51 195/67/51 252/83/51 253/82/51
f 255/63/37 256/73/37 257/74/37 254/75/37
f 200/69/30 195/70/30 257/70/30 256/69/30
f 195/67/29 205/68/29 254/68/29 257/67/29
f 205/65/28 190/66/28 255/66/28 254/65/28
f 287/88/15 288/89/15 272/90/15 271/91/15
f 287/88/5 271/91/5 273/92/5 289/93/5
f 284/94/7 286/95/7 270/96/7 268/97/7
f 284/94/1 268/97/1 269/98/1 285/99/1
f 282/100/23 283/101/23 267/102/23 266/103/23
f 280/104/8 264/105/8 265/106/8 281/107/8
f 279/108/7 281/107/7 265/106/7 263/109/7
f 277/110/16 278/111/16 262/112/16 261/113/16
f 274/114/52 276/115/52 260/116/52 258/117/52
f 275/118/53 259/119/53 260/116/53 276/115/53
f 25/39/54 275/57/54 276/61/54 15/9/54
f 6/10/55 15/9/55 276/61/55 274/17/55 23/16/55
f 29/49/16 38/51/16 278/62/16 277/52/16 46/29/16
f 77/23/7 86/24/7 281/120/7 279/121/7 94/1/7
f 96/29/8 280/47/8 281/59/8 86/30/8
f 108/33/23 117/34/23 283/60/23 282/38/23 125/39/23
f 144/1/1 284/50/1 285/56/1 142/4/1
f 127/23/7 136/24/7 286/120/7 284/121/7 144/1/7
f 173/16/5 287/17/5 289/42/5 163/21/5
f 156/10/15 165/9/15 288/61/15 287/17/15 173/16/15
f 270/96/15 263/109/15 279/108/15 286/95/15
f 264/105/56 261/113/56 277/110/56 280/104/56
f 273/92/57 262/112/57 278/111/57 289/93/57
f 258/117/15 272/90/15 288/89/15 274/114/15
f 266/103/58 282/100/58 275/118/58 259/119/58
f 269/98/59 267/102/59 283/101/59 285/99/59
