# Blender 4.0.2
# www.blender.org
mtllib Garbage.mtl
o Plane
v -2.500000 0.000000 2.500000
v 2.500000 0.000000 2.500000
v -2.500485 0.000000 -2.500287
v 2.500187 0.000000 -2.500269
v -2.507296 0.000000 0.000344
v 0.000000 0.000000 2.500000
v 2.500583 0.000000 0.000101
v -0.004256 0.000000 -2.522452
v -0.192689 4.258747 0.344664
v -2.500000 0.000000 1.250000
v 1.250000 0.000000 2.500000
v 2.501626 0.000000 -1.251316
v -1.260571 0.000000 -2.516881
v -2.510233 0.000000 -1.255522
v -1.250000 0.000000 2.500000
v 2.500000 0.000000 1.250000
v 1.260882 0.000000 -2.518492
v 0.009754 3.541364 -1.818485
v -0.036221 2.936850 1.765346
v -1.832513 3.254523 0.215931
v 1.625357 3.087535 0.217556
v 1.338925 2.558707 1.387870
v -1.488119 2.446409 1.372125
v -1.395662 2.725032 -1.382422
v 1.463162 2.883791 -1.392410
v -2.500000 0.000000 1.875000
v 1.875000 0.000000 2.500000
v 2.500947 0.000000 -1.876188
v -1.876008 0.000000 -2.501128
v -2.512236 0.000000 -0.627905
v -0.625000 0.000000 2.500000
v 2.500000 0.000000 0.625000
v 0.631142 0.000000 -2.516465
v -0.036171 2.144130 -2.016188
v -0.166969 3.982581 1.307475
v -2.011832 2.005163 0.026258
v 1.046287 4.217729 0.371385
v -2.500548 0.000000 0.625177
v 0.625000 0.000000 2.500000
v 2.501064 0.000000 -0.625099
v -0.639660 0.000000 -2.533227
v -2.507940 0.000000 -1.879760
v -1.875000 0.000000 2.500000
v 2.500000 0.000000 1.875000
v 1.880096 0.000000 -2.507875
v -0.086120 4.084623 -0.633808
v -0.006251 1.873267 1.952462
v -1.116660 4.052824 0.296640
v 1.986674 1.920679 0.031339
v 1.551457 2.716765 0.938315
v 1.252634 1.672228 1.880023
v 0.760695 2.662118 1.648297
v 1.877490 1.666106 1.253110
v -1.716403 2.889963 0.976524
v -1.256478 1.690434 1.884881
v -1.885672 1.697365 1.260166
v -0.799936 2.643075 1.618056
v -1.315633 2.022282 -1.961244
v -1.652720 2.916416 -0.664876
v -1.939742 1.916434 -1.288641
v -0.799462 2.960521 -1.518527
v 1.310581 1.979729 -1.940156
v 1.584326 3.033340 -0.641510
v 0.891921 3.400634 -1.727431
v 1.940912 1.857999 -1.289850
v 1.987778 1.920819 -0.643641
v 1.228201 4.278118 -0.856163
v 0.675635 2.040004 -1.975972
v -1.011557 3.858299 -0.626435
v -1.982161 1.980293 -0.646905
v -1.902037 1.792500 -1.897980
v -0.644383 1.808132 1.924527
v -1.875000 1.656407 1.875000
v -1.944151 1.863042 0.664586
v 1.875000 1.656407 1.875000
v 0.636287 1.783005 1.920083
v 0.872345 3.716526 1.213154
v 1.919702 1.779410 0.654762
v -1.095837 3.735266 1.212971
v -0.710217 2.188070 -2.032960
v 1.896357 1.791877 -1.896713
v -0.500000 3.860746 1.085656
v -0.250000 4.065534 0.942262
v -0.500000 1.852847 -1.781921
v -0.250000 4.638729 1.760869
v 0.250000 3.842440 1.059513
v 0.000000 4.065534 0.942262
v 0.250000 1.852847 -1.781921
v 0.000000 4.638729 1.760869
v -0.500000 3.143775 0.061716
v -0.250000 3.348563 -0.081678
v -0.250000 2.344805 -1.515194
v -0.500000 2.140017 -1.371800
v -0.250000 3.061775 -0.491254
v -0.500000 2.856987 -0.347860
v -0.250000 2.058016 -1.924770
v -0.500000 1.853229 -1.781376
v 0.000000 1.770847 -2.334891
v 0.250000 1.566059 -2.191497
v -0.500000 1.566059 -2.191497
v 0.250000 4.147534 1.495232
v 0.000000 4.352322 1.351838
v -0.250000 4.352322 1.351838
v -0.500000 4.147534 1.495232
v -0.250000 1.770847 -2.334891
v 0.250000 2.140017 -1.371800
v 0.000000 2.344805 -1.515194
v 0.000000 3.348563 -0.081678
v 0.250000 3.143775 0.061716
v 0.250000 2.856987 -0.347860
v 0.000000 3.061775 -0.491254
v 0.250000 1.853229 -1.781376
v 0.000000 2.058016 -1.924770
v -0.500000 4.433941 1.904263
v 0.250000 4.433941 1.904263
v -1.434849 1.857437 0.946114
v -1.238197 2.127572 1.061676
v 0.323033 1.872776 -2.081140
v -1.740019 2.123193 1.925867
v -0.772679 1.920647 1.294041
v -1.022815 2.148596 1.186852
v 0.969177 1.935847 -1.705614
v -1.524638 2.144217 2.051042
v -0.807153 1.862914 -0.134843
v -0.610501 2.133049 -0.019281
v 0.268274 2.140718 -1.532621
v 0.071621 1.870582 -1.648183
v -0.359422 2.135241 -0.451664
v -0.556075 1.865105 -0.567226
v 0.519352 2.142909 -1.965003
v 0.322699 1.872773 -2.080565
v 0.986145 2.166126 -2.272786
v 1.220256 1.938037 -2.137997
v 0.574111 1.874967 -2.513523
v -1.039783 1.918316 1.754023
v -1.273893 2.146405 1.619234
v -1.489275 2.125381 1.494059
v -1.685927 1.855246 1.378497
v 0.770764 2.145102 -2.397961
v 0.717765 1.933653 -1.272657
v 0.483655 2.161741 -1.407445
v -0.395119 2.154073 0.105894
v -0.161009 1.925985 0.240683
v 0.090069 1.928175 -0.191700
v -0.144041 2.156264 -0.326488
v 0.968844 1.935843 -1.705039
v 0.734733 2.163932 -1.839828
v -1.936672 1.853058 1.810305
v -1.290528 1.916128 2.185831
v -2.590333 1.934495 0.157077
v -2.023091 2.729529 0.371917
v -2.163771 1.874012 -0.745357
v -1.596528 2.669046 -0.530517
v -1.885862 1.330953 0.530517
v -1.318619 2.125988 0.745357
v -1.459299 1.270471 -0.371917
v -0.892057 2.065505 -0.157077
v -0.916651 2.750068 1.200248
v -0.336021 3.324455 0.623231
v -0.270570 1.993747 1.097500
v 0.310060 2.568134 0.520483
v -0.421223 3.063209 2.010492
v 0.159407 3.637596 1.433475
v 0.224858 2.306888 1.907744
v 0.805488 2.881275 1.330727
v 1.434358 2.217088 -0.046372
v 1.707630 3.012123 -0.587890
v 0.581759 2.156606 -0.565425
v 0.855031 2.951640 -1.106944
v 1.879776 1.613547 -0.707689
v 2.153049 2.408581 -1.249208
v 1.027177 1.553064 -1.226743
v 1.300449 2.348099 -1.768261
vn 0.6470 0.4348 -0.6264
vn 0.8478 0.3886 -0.3608
vn 0.6439 0.4301 -0.6328
vn 0.3852 0.3846 -0.8388
vn -0.1803 0.3383 -0.9236
vn -0.0224 0.2292 -0.9731
vn 0.0401 0.2346 -0.9713
vn -0.0355 0.2334 -0.9717
vn -0.4889 0.6105 0.6231
vn -0.0460 0.7266 0.6855
vn -0.1072 0.9879 0.1119
vn -0.5303 0.8474 0.0258
vn 0.9357 0.3126 0.1638
vn 0.9496 0.3047 0.0734
vn 0.9620 0.2700 0.0420
vn 0.9559 0.2873 0.0616
vn 0.4777 0.5980 0.6435
vn 0.8459 0.3605 0.3931
vn 0.9193 0.3587 0.1620
vn 0.5118 0.8321 0.2135
vn 0.1384 0.2993 0.9441
vn 0.2309 0.4291 0.8732
vn 0.6238 0.4154 0.6621
vn 0.3186 0.3304 0.8884
vn 0.6030 0.5250 0.6006
vn 0.8333 0.4392 0.3357
vn 0.9398 0.3401 0.0338
vn 0.8727 0.4300 0.2312
vn -0.9549 0.2305 0.1873
vn -0.8281 0.3137 0.4646
vn -0.8943 0.4475 0.0024
vn -0.9752 0.2212 0.0081
vn -0.6032 0.5189 0.6057
vn -0.2243 0.4260 0.8765
vn -0.6206 0.3537 0.6998
vn -0.8804 0.3907 0.2689
vn -0.1422 0.3070 0.9410
vn -0.0019 0.2590 0.9659
vn -0.0034 0.3095 0.9509
vn -0.2996 0.3012 0.9053
vn -0.6488 0.4591 -0.6069
vn -0.3182 0.4488 -0.8350
vn -0.1093 0.2623 -0.9588
vn -0.3916 0.3747 -0.8404
vn -0.9453 0.2973 -0.1340
vn -0.8216 0.4600 -0.3366
vn -0.6164 0.5555 -0.5581
vn -0.8799 0.4167 -0.2282
vn -0.5133 0.7565 -0.4053
vn -0.1975 0.9170 -0.3466
vn -0.1678 0.5702 -0.8042
vn -0.4132 0.5369 -0.7355
vn 0.1445 0.2287 -0.9627
vn 0.3255 0.3532 -0.8771
vn 0.0634 0.2825 -0.9572
vn 0.0453 0.2545 -0.9660
vn 0.5183 0.8001 -0.3019
vn 0.9270 0.3480 -0.1400
vn 0.7561 0.3588 -0.5474
vn 0.3482 0.4738 -0.8088
vn 0.9495 0.3072 -0.0639
vn 0.9639 0.2654 -0.0235
vn 0.9565 0.2875 -0.0498
vn 0.9027 0.3764 -0.2084
vn -0.9650 0.2600 -0.0352
vn -0.9568 0.2858 -0.0541
vn -0.9665 0.2550 0.0309
vn -0.8436 0.3868 -0.3724
vn -0.6336 0.4281 -0.6444
vn -0.0390 0.3343 0.9416
vn -0.0484 0.3062 0.9507
vn 0.0047 0.2931 0.9561
vn -0.8323 0.4356 0.3429
vn -0.9430 0.3285 0.0539
vn -0.6238 0.4708 0.6238
vn -0.3416 0.4362 0.8325
vn -0.9546 0.2848 0.0869
vn 0.0340 0.3389 0.9402
vn 0.3374 0.4383 0.8331
vn 0.6238 0.4708 0.6238
vn 0.0525 0.3108 0.9490
vn -0.0000 0.8192 -0.5736
vn 0.7071 0.5792 -0.4056
vn -0.7071 0.5792 -0.4056
vn -0.0000 -0.8192 0.5736
vn -0.0000 -0.5736 -0.8192
vn -0.0000 0.5736 0.8192
vn -0.0749 0.9964 -0.0385
vn 0.5562 0.7641 0.3269
vn -0.6622 0.6451 -0.3812
vn 0.0749 -0.9964 0.0385
vn 0.5022 0.0044 -0.8648
vn -0.5022 -0.0044 0.8648
vn -0.7045 0.6035 -0.3734
vn 0.4266 -0.0605 -0.9024
vn 0.7045 -0.6035 0.3734
vn -0.4266 0.0605 0.9024
vn -0.5672 -0.7950 -0.2148
vn 0.5672 0.7950 0.2148
vn -0.4954 -0.3131 -0.8102
vn 0.6461 -0.7563 -0.1027
vn 0.4954 0.3131 0.8102
vn -0.6461 0.7563 0.1027
vn -0.5806 -0.5744 0.5770
vn 0.5806 0.5744 -0.5770
vn -0.4454 0.6035 0.6613
vn -0.8526 -0.0605 -0.5191
vn 0.4454 -0.6035 -0.6613
vn 0.8526 0.0605 0.5191
vn -0.2733 -0.7950 0.5415
vn 0.2733 0.7950 -0.5415
vt 0.875000 0.875000
vt 1.000000 0.875000
vt 1.000000 1.000000
vt 0.875000 1.000000
vt 0.375000 0.875000
vt 0.500000 0.875000
vt 0.500000 1.000000
vt 0.375000 1.000000
vt 0.375000 0.375000
vt 0.500000 0.375000
vt 0.500000 0.500000
vt 0.375000 0.500000
vt 0.875000 0.375000
vt 1.000000 0.375000
vt 1.000000 0.500000
vt 0.875000 0.500000
vt 0.625000 0.375000
vt 0.750000 0.375000
vt 0.750000 0.500000
vt 0.625000 0.500000
vt 0.625000 0.125000
vt 0.750000 0.125000
vt 0.750000 0.250000
vt 0.625000 0.250000
vt 0.875000 0.125000
vt 1.000000 0.125000
vt 1.000000 0.250000
vt 0.875000 0.250000
vt 0.125000 0.375000
vt 0.250000 0.375000
vt 0.250000 0.500000
vt 0.125000 0.500000
vt 0.125000 0.125000
vt 0.250000 0.125000
vt 0.250000 0.250000
vt 0.125000 0.250000
vt 0.375000 0.125000
vt 0.500000 0.125000
vt 0.500000 0.250000
vt 0.375000 0.250000
vt 0.125000 0.875000
vt 0.250000 0.875000
vt 0.250000 1.000000
vt 0.125000 1.000000
vt 0.125000 0.625000
vt 0.250000 0.625000
vt 0.250000 0.750000
vt 0.125000 0.750000
vt 0.375000 0.625000
vt 0.500000 0.625000
vt 0.500000 0.750000
vt 0.375000 0.750000
vt 0.625000 0.875000
vt 0.750000 0.875000
vt 0.750000 1.000000
vt 0.625000 1.000000
vt 0.625000 0.625000
vt 0.750000 0.625000
vt 0.750000 0.750000
vt 0.625000 0.750000
vt 0.875000 0.625000
vt 1.000000 0.625000
vt 1.000000 0.750000
vt 0.875000 0.750000
vt 0.000000 0.625000
vt 0.000000 0.750000
vt 0.000000 0.500000
vt 0.000000 0.875000
vt 0.000000 1.000000
vt 0.250000 0.000000
vt 0.375000 0.000000
vt 0.500000 0.000000
vt 0.000000 0.125000
vt 0.000000 0.250000
vt 0.000000 0.000000
vt 0.125000 0.000000
vt 0.000000 0.375000
vt 0.750000 0.000000
vt 0.875000 0.000000
vt 1.000000 0.000000
vt 0.625000 0.000000
vt 0.365159 0.100150
vt 0.365159 0.200146
vt 0.365159 0.450135
vt 0.365159 0.550131
vt 0.365159 0.800120
vt 0.352660 0.800120
vt 0.352660 0.550131
vt 0.352660 0.450135
vt 0.352660 0.200146
vt 0.352660 0.100150
vt 0.352660 0.000022
vt 0.365159 0.000022
vt 0.334983 0.100150
vt 0.334983 0.100018
vt 0.334983 0.000022
vt 0.334983 0.550131
vt 0.334983 0.793737
vt 0.365159 0.900115
vt 0.352660 0.900115
vt 0.382836 0.900115
vt 0.382836 0.999978
vt 0.365159 0.999978
vt 0.382836 0.200146
vt 0.382836 0.450135
vt 0.382836 0.800120
vt 0.382836 0.550131
vt 0.352660 0.999978
vt 0.334983 0.900115
vt 0.334983 0.999978
vt 0.382836 0.100150
vt 0.625000 0.687500
vt 0.375000 0.656250
vt 0.625000 0.656250
vt 0.334983 0.450135
vt 0.334983 0.200146
vt 0.382836 0.000022
vt 0.382836 0.100017
vt 0.625000 0.562500
vt 0.375000 0.531250
vt 0.625000 0.531250
s 1
usemtl Material.004
f 81/1/1 28/2/2 4/3/3 45/4/4
f 80/5/5 34/6/6 8/7/7 41/8/8
f 79/9/9 35/10/10 9/11/11 48/12/12
f 78/13/13 32/14/14 7/15/15 49/16/16
f 77/17/17 50/18/18 21/19/19 37/20/20
f 76/21/21 51/22/22 22/23/23 52/24/24
f 75/25/25 44/26/26 16/27/27 53/28/28
f 74/29/29 54/30/30 20/31/31 36/32/32
f 73/33/33 55/34/34 23/35/35 56/36/36
f 72/37/37 47/38/38 19/39/39 57/40/40
f 71/41/41 58/42/42 13/43/43 29/44/44
f 70/45/45 59/46/46 24/47/47 60/48/48
f 69/49/49 46/50/50 18/51/51 61/52/52
f 68/53/53 62/54/54 17/55/55 33/56/56
f 67/57/57 63/58/58 25/59/59 64/60/60
f 66/61/61 40/62/62 12/63/63 65/64/64
f 63/58/58 66/61/61 65/64/64 25/59/59
f 21/19/19 49/16/16 66/61/61 63/58/58
f 49/16/16 7/15/15 40/62/62 66/61/61
f 46/50/50 67/57/57 64/60/60 18/51/51
f 9/11/11 37/20/20 67/57/57 46/50/50
f 37/20/20 21/19/19 63/58/58 67/57/57
f 34/6/6 68/53/53 33/56/56 8/7/7
f 18/51/51 64/60/60 68/53/53 34/6/6
f 64/60/60 25/59/59 62/54/54 68/53/53
f 59/46/46 69/49/49 61/52/52 24/47/47
f 20/31/31 48/12/12 69/49/49 59/46/46
f 48/12/12 9/11/11 46/50/50 69/49/49
f 30/65/65 70/45/45 60/48/48 14/66/66
f 5/67/67 36/32/32 70/45/45 30/65/65
f 36/32/32 20/31/31 59/46/46 70/45/45
f 42/68/68 71/41/41 29/44/44 3/69/69
f 14/66/66 60/48/48 71/41/41 42/68/68
f 60/48/48 24/47/47 58/42/42 71/41/41
f 55/34/34 72/37/37 57/40/40 23/35/35
f 15/70/70 31/71/71 72/37/37 55/34/34
f 31/71/71 6/72/72 47/38/38 72/37/37
f 26/73/73 73/33/33 56/36/36 10/74/74
f 1/75/75 43/76/76 73/33/33 26/73/73
f 43/76/76 15/70/70 55/34/34 73/33/33
f 38/77/77 74/29/29 36/32/32 5/67/67
f 10/74/74 56/36/36 74/29/29 38/77/77
f 56/36/36 23/35/35 54/30/30 74/29/29
f 51/22/22 75/25/25 53/28/28 22/23/23
f 11/78/78 27/79/79 75/25/25 51/22/22
f 27/79/79 2/80/80 44/26/26 75/25/25
f 47/38/38 76/21/21 52/24/24 19/39/39
f 6/72/72 39/81/81 76/21/21 47/38/38
f 39/81/81 11/78/78 51/22/22 76/21/21
f 35/10/10 77/17/17 37/20/20 9/11/11
f 19/39/39 52/24/24 77/17/17 35/10/10
f 52/24/24 22/23/23 50/18/18 77/17/17
f 50/18/18 78/13/13 49/16/16 21/19/19
f 22/23/23 53/28/28 78/13/13 50/18/18
f 53/28/28 16/27/27 32/14/14 78/13/13
f 54/30/30 79/9/9 48/12/12 20/31/31
f 23/35/35 57/40/40 79/9/9 54/30/30
f 57/40/40 19/39/39 35/10/10 79/9/9
f 58/42/42 80/5/5 41/8/8 13/43/43
f 24/47/47 61/52/52 80/5/5 58/42/42
f 61/52/52 18/51/51 34/6/6 80/5/5
f 62/54/54 81/1/1 45/4/4 17/55/55
f 25/59/59 65/64/64 81/1/1 62/54/54
f 65/64/64 12/63/63 28/2/2 81/1/1
s 0
f 150/71/94 151/81/94 153/24/94 152/40/94
f 152/40/95 153/24/95 157/20/95 156/12/95
f 156/12/96 157/20/96 155/60/96 154/52/96
f 154/52/97 155/60/97 151/56/97 150/8/97
f 152/32/98 156/12/98 154/52/98 150/48/98
f 157/20/99 153/16/99 151/64/99 155/60/99
usemtl Material.002
f 96/82/82 92/83/82 94/84/82 91/85/82 83/86/82 87/87/82 108/88/82 111/89/82 107/90/82 113/91/82 98/92/82 105/93/82
f 98/92/83 113/91/83 112/94/83 88/95/83 99/96/83
f 109/97/83 108/88/83 87/87/83 86/98/83
f 87/87/82 83/86/82 103/99/82 102/100/82
f 103/99/84 104/101/84 114/102/84 85/103/84
f 94/84/84 92/83/84 93/104/84 95/105/84
f 82/106/84 83/86/84 91/85/84 90/107/84
f 88/75/85 84/75/85 100/75/85 99/75/85
f 100/40/86 105/24/86 98/20/86 99/12/86
f 115/52/87 89/60/87 85/56/87 114/8/87
f 104/75/85 101/75/85 115/75/85 114/75/85
f 102/100/82 103/99/82 85/103/82 89/108/82
f 82/75/85 86/75/85 101/75/85 104/75/85
f 86/52/83 87/60/83 102/60/83 101/75/83
f 101/109/83 102/100/83 89/108/83 115/110/83
f 90/107/84 91/85/84 94/84/84 95/105/84
f 83/86/84 82/75/84 104/101/84 103/99/84
f 93/104/84 92/83/84 96/82/84 97/111/84
f 108/112/83 109/75/83 110/113/83 111/114/83
f 107/90/83 111/89/83 110/115/83 106/116/83
f 96/82/84 105/93/84 100/117/84 84/118/84 97/111/84
f 107/119/83 106/75/83 112/120/83 113/121/83
usemtl Material.003
f 130/82/88 126/83/88 128/84/88 125/85/88 117/86/88 121/87/88 142/88/88 145/89/88 141/90/88 147/91/88 132/92/88 139/93/88
f 132/92/89 147/91/89 146/94/89 122/95/89 133/96/89
f 143/97/89 142/88/89 121/87/89 120/98/89
f 121/87/88 117/86/88 137/99/88 136/100/88
f 137/99/90 138/101/90 148/102/90 119/103/90
f 128/84/90 126/83/90 127/104/90 129/105/90
f 116/106/90 117/86/90 125/85/90 124/107/90
f 122/75/91 118/75/91 134/75/91 133/75/91
f 134/40/92 139/24/92 132/20/92 133/12/92
f 149/52/93 123/60/93 119/56/93 148/8/93
f 138/75/91 135/75/91 149/75/91 148/75/91
f 136/100/88 137/99/88 119/103/88 123/108/88
f 116/75/91 120/75/91 135/75/91 138/75/91
f 120/52/89 121/60/89 136/60/89 135/75/89
f 135/109/89 136/100/89 123/108/89 149/110/89
f 124/107/90 125/85/90 128/84/90 129/105/90
f 117/86/90 116/75/90 138/101/90 137/99/90
f 127/104/90 126/83/90 130/82/90 131/111/90
f 142/112/89 143/75/89 144/113/89 145/114/89
f 141/90/89 145/89/89 144/115/89 140/116/89
f 130/82/90 139/93/90 134/117/90 118/118/90 131/111/90
f 141/119/89 140/75/89 146/120/89 147/121/89
usemtl Material.005
f 158/71/100 159/81/100 161/24/100 160/40/100
f 160/40/101 161/24/101 165/20/101 164/12/101
f 164/12/102 165/20/102 163/60/102 162/52/102
f 162/52/103 163/60/103 159/56/103 158/8/103
f 160/32/104 164/12/104 162/52/104 158/48/104
f 165/20/105 161/16/105 159/64/105 163/60/105
usemtl Material.006
f 166/71/106 167/81/106 169/24/106 168/40/106
f 168/40/107 169/24/107 173/20/107 172/12/107
f 172/12/108 173/20/108 171/60/108 170/52/108
f 170/52/109 171/60/109 167/56/109 166/8/109
f 168/32/110 172/12/110 170/52/110 166/48/110
f 173/20/111 169/16/111 167/64/111 171/60/111
