# Blender 4.0.2
# www.blender.org
mtllib InnerCorner.mtl
o Untitled.004
v -2.200000 0.100000 0.500136
v -2.100000 0.844677 0.500000
v -2.100000 1.214274 0.500000
v -2.000000 1.328387 0.499825
v -2.369821 0.100000 0.499961
v -2.022634 3.755450 0.500000
v -2.081844 0.518444 0.499961
v -2.000000 1.496731 0.500000
v -2.100000 1.066976 0.500000
v -2.100000 1.164864 0.500000
v -1.952813 3.786036 0.499824
v -2.100000 1.000000 0.500000
v -2.064193 1.392581 0.499825
v -2.100000 1.428387 0.499825
v -2.214193 0.100000 0.499961
v -2.000000 1.504186 0.500000
v -1.999300 1.529419 0.500000
v -2.000000 1.535332 0.500000
v -2.000000 1.549823 0.500000
v -2.003120 1.749619 0.500000
v -2.000000 1.824157 0.500000
v -2.500000 0.000000 0.499961
v -2.311440 0.100000 0.499961
v -2.084757 0.300000 0.499961
v -2.195269 0.300000 0.499961
v -2.000000 3.588474 0.499824
v -2.000000 1.491956 0.500000
v -0.000000 3.796090 0.499824
v -2.500136 0.100000 0.200001
v -2.500000 0.844678 0.100000
v -2.500000 1.214274 0.100000
v -2.499825 1.328387 0.000001
v -2.499960 0.100000 0.369821
v -2.500000 3.755450 0.022635
v -2.499960 0.518444 0.081845
v -2.500000 1.496731 0.000001
v -2.500000 1.066976 0.100000
v -2.500000 1.164864 0.100000
v -2.499824 3.786036 -0.047186
v -2.500000 1.000000 0.100000
v -2.499825 1.392581 0.064194
v -2.499825 1.428387 0.100000
v -2.499960 0.100000 0.214194
v -2.500000 1.504186 0.000001
v -2.500000 1.529419 -0.000700
v -2.500000 1.535332 0.000001
v -2.500000 1.549823 0.000001
v -2.500000 1.749619 0.003121
v -2.500000 1.824158 0.000001
v -2.499960 0.000000 0.500000
v -2.499960 0.100000 0.311441
v -2.499960 0.300000 0.084757
v -2.499960 0.300000 0.195269
v -2.499825 3.588474 0.000000
v -2.500000 1.491956 0.000001
v -2.499824 3.796090 -1.999999
v -2.000000 2.706316 0.499912
v -2.499912 2.706316 0.000000
v -2.269894 3.651749 0.292298
v -2.250000 1.824157 0.250000
v -2.249956 2.706316 0.249956
v -2.000000 2.265236 0.499956
v -2.499956 2.265237 0.000000
v -2.374868 3.588474 0.124956
v -2.375000 1.824157 0.125000
v -2.000000 3.147395 0.499868
v -2.499868 3.147395 0.000000
v -2.124956 3.588474 0.374868
v -2.125000 1.824157 0.375000
v -2.357941 2.645950 0.125537
v -2.124978 2.706316 0.374934
v -2.220869 2.351603 0.249154
v -2.333832 3.269097 0.299776
v -2.124967 3.061204 0.374901
v -2.086402 2.278723 0.372463
v -2.336380 2.278723 0.122485
v -2.370174 3.103100 0.116706
v -2.000000 2.044697 0.499978
v -2.499978 2.044697 0.000001
v -2.437346 3.588474 0.062479
v -2.437500 1.824158 0.062501
v -2.000000 2.926855 0.499890
v -2.499890 2.926855 0.000000
v -2.187434 3.588474 0.312390
v -2.187500 1.824157 0.312500
v -2.421508 2.614469 0.052207
v -2.231366 2.706316 0.312445
v -2.208981 1.985477 0.245544
v -2.249945 2.926855 0.249945
v -2.000000 2.485776 0.499934
v -2.499934 2.485776 0.000000
v -2.316278 3.577925 0.190193
v -2.312500 1.824157 0.187500
v -2.000000 3.367934 0.499846
v -2.062478 3.588474 0.437346
v -2.062500 1.824157 0.437500
v -2.311904 2.818594 0.222434
v -2.039020 2.706316 0.449278
v -2.249967 2.485776 0.249967
v -2.316556 3.499609 0.339702
v -2.207187 3.099702 0.371768
v -2.076131 3.046196 0.465169
v -2.127401 2.892400 0.421088
v -2.191595 3.483116 0.464664
v -2.116810 2.329245 0.312591
v -2.062494 2.265236 0.437461
v -2.086408 2.058183 0.372479
v -2.124983 2.485776 0.374951
v -2.437461 2.265237 0.062495
v -2.300388 2.326833 0.185325
v -2.336396 2.058183 0.122491
v -2.374950 2.485776 0.124984
v -2.437385 3.147395 0.062484
v -2.313000 3.058675 0.159648
v -2.377055 2.862752 0.102962
v -2.441518 3.401505 0.214741
v -2.379037 3.401505 0.277221
v -2.312431 2.926855 0.187459
v -2.425435 2.822116 0.043839
v -2.312459 2.485776 0.187475
v -2.278616 1.981387 0.182663
v -2.394906 2.047088 0.068046
v -2.022933 2.492938 0.455976
v -2.062497 2.044697 0.437481
v -2.125980 2.035275 0.310206
v -2.077978 3.391153 0.474960
v -2.042998 2.892587 0.463001
v -2.228352 2.926855 0.312432
v -2.254076 3.499609 0.402183
v -2.187475 2.485776 0.312459
v -2.437442 2.485776 0.062492
v -2.503999 3.376685 0.152260
v 0.000000 3.796090 -1.999999
vn -0.7068 0.0296 0.7068
vn -0.7071 -0.0110 0.7071
vn -0.7070 0.0196 0.7070
vn -0.7071 -0.0000 0.7071
vn -0.7046 -0.0835 0.7046
vn -0.7071 -0.0008 0.7071
vn 0.5774 0.5773 -0.5774
vn 0.5773 0.5773 -0.5774
vn -0.7071 0.0006 0.7071
vn -0.7066 -0.0394 0.7066
vn -0.7071 0.0094 0.7071
vn -0.0000 1.0000 -0.0000
vn -0.7070 0.0173 0.7070
vn -0.5202 0.6773 0.5203
vn -0.5869 0.7469 0.3126
vn -0.3130 0.7472 0.5863
vn -0.6102 0.0512 0.7906
vn -0.8360 -0.0831 0.5424
vn -0.2138 0.5573 0.8023
vn -0.7810 -0.2191 0.5849
vn -0.7023 0.0302 0.7113
vn -0.1517 0.4182 0.8956
vn -0.5640 -0.0098 0.8257
vn -0.9385 -0.0000 0.3452
vn -0.6367 -0.0117 0.7710
vn -0.6134 -0.0495 0.7882
vn -0.7986 -0.0335 0.6009
vn -0.8205 -0.0119 0.5716
vn -0.6318 -0.0402 0.7741
vn -0.7253 0.0383 0.6873
vn -0.6017 0.5124 0.6127
vn -0.6885 -0.3593 0.6300
vn -0.8479 -0.2063 0.4884
vn -0.9027 0.3818 0.1983
vn -0.8722 0.0337 0.4881
vn -0.5299 0.0889 0.8434
vn -0.9101 -0.1795 0.3735
vn -0.5209 0.0119 0.8535
vn -0.7652 0.0054 0.6438
vn -0.7001 -0.0471 0.7125
vn -0.7597 -0.1132 0.6404
vn -0.6516 -0.0991 0.7520
vn -0.6141 -0.0491 0.7877
vn -0.6632 0.1367 0.7358
vn -0.6799 0.1806 0.7107
vn -0.6428 -0.0372 0.7651
vn -0.6143 0.0492 0.7876
vn -0.6956 0.1189 0.7085
vn -0.5775 -0.0457 0.8151
vn -0.7575 -0.0298 0.6521
vn -0.7778 0.0428 0.6271
vn -0.8371 -0.0226 0.5466
vn -0.8220 0.0729 0.5648
vn -0.7071 0.0001 0.7071
vn -0.6827 0.2007 0.7026
vn -0.7772 0.1813 0.6025
vn -0.8663 0.0132 0.4993
vn -0.5920 -0.1555 0.7908
vn -0.3529 -0.0173 0.9355
vn -0.5143 0.0958 0.8523
vn -0.5579 -0.1411 0.8178
vn -0.7234 -0.0303 0.6898
vn -0.4746 -0.0471 0.8789
vn -0.9520 0.0065 0.3061
vn -0.6427 -0.0855 0.7614
vn -0.5201 0.0030 0.8541
vn -0.6419 -0.1147 0.7582
vn -0.4646 -0.1906 0.8648
vn -0.4114 0.7548 0.5110
vn -0.6074 -0.2103 0.7660
vn -0.8181 -0.2492 0.5182
vn -0.5938 -0.0590 0.8024
vn -0.5953 -0.0583 0.8014
vn -0.7410 0.1068 0.6630
vn -0.6455 -0.4003 0.6505
vn -0.6662 0.4798 0.5709
vn -0.0000 1.0000 0.0051
vn -0.0051 1.0000 -0.0000
vn -0.0023 1.0000 0.0023
vn -0.3717 0.8507 0.3717
vn -0.7038 -0.0961 0.7038
vn -0.7469 -0.1650 0.6441
vn -0.7807 -0.2813 0.5580
vn -0.4901 -0.3914 0.7789
vn -0.6827 0.2604 0.6827
vt 0.173828 0.500000
vt 0.173828 0.500000
vt 0.000000 0.000000
s 0
usemtl Material
f 21/1/1 96/1/1 69/1/1 85/1/1 60/1/1 93/1/1 65/1/1 81/1/1 49/1/1 48/2/1 20/2/1
f 20/2/2 48/2/2 47/1/2 19/1/2
f 16/1/3 17/1/3 45/3/3 44/1/3
f 19/1/4 47/1/4 46/1/4 18/1/4
f 18/1/5 46/1/5 45/1/5 17/1/5
f 16/1/4 44/1/4 36/1/4 8/1/4
f 27/1/4 8/1/4 36/1/4 55/1/4
f 4/1/6 27/1/6 55/1/6 32/1/6
f 4/1/7 32/1/7 41/1/7 13/1/7
f 13/1/8 41/1/8 14/1/8
f 3/2/9 14/1/9 42/1/9 31/2/9
f 10/1/4 3/2/4 31/2/4 38/1/4
f 10/1/4 38/1/4 37/1/4 9/1/4
f 9/1/4 37/1/4 40/1/4 12/1/4
f 12/1/4 40/1/4 30/1/4 2/1/4
f 2/1/10 30/1/10 35/1/10 7/1/10
f 24/1/11 7/1/11 35/1/11 52/1/11
f 24/1/12 52/1/12 53/1/12 25/1/12
f 25/1/13 53/1/13 29/1/13 1/1/13
f 23/1/12 15/1/12 43/1/12 51/1/12
f 1/1/12 29/1/12 43/1/12 15/1/12
f 5/1/12 23/1/12 51/1/12 33/1/12
f 5/1/14 33/1/14 50/1/15 22/1/16
f 131/1/17 86/1/17 58/1/17 91/1/17
f 130/1/18 87/1/18 61/1/18 99/1/18
f 129/1/19 84/1/19 59/1/19 100/1/19
f 128/1/20 101/1/20 73/1/20 89/1/20
f 127/1/21 102/1/21 74/1/21 103/1/21
f 126/1/22 95/1/22 68/1/22 104/1/22
f 125/1/23 105/1/23 72/1/23 88/1/23
f 124/1/24 106/1/24 75/1/24 107/1/24
f 123/1/25 98/1/25 71/1/25 108/1/25
f 122/1/26 109/1/26 63/1/26 79/1/26
f 121/1/27 110/1/27 76/1/27 111/1/27
f 120/1/28 97/1/28 70/1/28 112/1/28
f 119/1/29 113/1/29 67/1/29 83/1/29
f 118/1/30 114/1/30 77/1/30 115/1/30
f 117/1/31 92/1/31 64/1/31 116/1/31
f 114/1/32 117/1/32 116/1/32 77/1/32
f 73/1/33 100/1/33 117/1/33 114/1/33
f 100/1/34 59/1/34 92/1/34 117/1/34
f 97/1/35 118/1/35 115/1/35 70/1/35
f 61/1/36 89/1/36 118/1/36 97/1/36
f 89/1/37 73/1/37 114/1/37 118/1/37
f 86/1/38 119/1/38 83/1/38 58/1/38
f 70/1/39 115/1/39 119/1/39 86/1/39
f 115/1/40 77/1/40 113/1/40 119/1/40
f 110/1/41 120/1/41 112/1/41 76/1/41
f 72/1/42 99/1/42 120/1/42 110/1/42
f 99/1/43 61/1/43 97/1/43 120/1/43
f 93/1/44 121/1/44 111/1/44 65/1/44
f 60/1/45 88/1/45 121/1/45 93/1/45
f 88/1/46 72/1/46 110/1/46 121/1/46
f 81/1/47 122/1/47 79/1/47 49/1/47
f 65/1/48 111/1/48 122/1/48 81/1/48
f 111/1/49 76/1/49 109/1/49 122/1/49
f 106/1/50 123/1/50 108/1/50 75/1/50
f 62/1/51 90/1/51 123/1/51 106/1/51
f 90/1/52 57/1/52 98/1/52 123/1/52
f 96/1/53 124/1/53 107/1/53 69/1/53
f 21/1/54 78/1/54 124/1/54 96/1/54
f 78/1/54 62/1/54 106/1/54 124/1/54
f 85/1/55 125/1/55 88/1/55 60/1/55
f 69/1/56 107/1/56 125/1/56 85/1/56
f 107/1/57 75/1/57 105/1/57 125/1/57
f 102/1/58 126/1/58 104/1/58 74/1/58
f 66/1/59 94/1/59 126/1/59 102/1/59
f 94/1/60 26/1/60 95/1/60 126/1/60
f 98/1/61 127/1/61 103/1/61 71/1/61
f 57/1/62 82/1/62 127/1/62 98/1/62
f 82/1/63 66/1/63 102/1/63 127/1/63
f 87/1/64 128/1/64 89/1/64 61/1/64
f 71/1/65 103/1/65 128/1/65 87/1/65
f 103/1/66 74/1/66 101/1/66 128/1/66
f 101/1/67 129/1/67 100/1/67 73/1/67
f 74/1/68 104/1/68 129/1/68 101/1/68
f 104/1/69 68/1/69 84/1/69 129/1/69
f 105/1/70 130/1/70 99/1/70 72/1/70
f 75/1/71 108/1/71 130/1/71 105/1/71
f 108/1/72 71/1/72 87/1/72 130/1/72
f 109/1/54 131/1/54 91/1/54 63/1/54
f 76/1/73 112/1/73 131/1/73 109/1/73
f 112/1/74 70/1/74 86/1/74 131/1/74
f 77/1/75 116/1/75 132/1/75 113/1/75
f 116/1/76 64/1/76 80/1/76 132/1/76
f 39/1/77 133/3/77 56/2/77
f 11/1/78 28/2/78 133/3/78
f 133/3/79 39/1/79 11/1/79
f 34/1/80 6/1/80 39/1/80
f 11/1/80 39/1/80 6/1/80
f 54/1/81 80/1/81 34/1/81
f 80/1/81 64/1/81 34/1/81
f 64/1/82 92/1/82 34/1/82
f 92/1/83 59/1/83 34/1/83
f 84/1/84 6/3/84 59/1/84
f 84/1/81 68/1/81 6/3/81
f 68/1/81 95/1/81 6/3/81
f 6/3/81 95/1/81 26/1/81
f 34/1/85 59/1/85 6/3/85
