# Blender 4.0.2
# www.blender.org
mtllib Minecart.mtl
o Cube
v -2.000000 0.750000 2.000000
v -2.000000 1.000000 2.000000
v -2.000000 0.750000 -2.000000
v -2.000000 1.000000 -2.000000
v 2.000000 0.750000 2.000000
v 2.000000 1.000000 2.000000
v 2.000000 0.750000 -2.000000
v 2.000000 1.000000 -2.000000
v -1.800000 1.000000 1.800000
v -1.800000 1.000000 -1.800000
v 1.800000 1.000000 -1.800000
v 1.800000 1.000000 1.800000
v -2.000000 3.882695 2.500000
v -2.000000 3.882695 -2.500000
v 2.000000 3.882695 -2.500000
v 2.000000 3.882695 2.500000
v -1.800000 3.882695 2.300000
v -1.800000 3.882695 -2.300000
v 1.800000 3.882695 -2.300000
v 1.800000 3.882695 2.300000
v 1.750000 0.750000 -1.750000
v 1.750000 0.750000 -0.250000
v 1.750000 0.603682 -0.264411
v 1.750000 0.462987 -0.307090
v 1.750000 0.333322 -0.376398
v 1.750000 0.219670 -0.469670
v 1.750000 0.126398 -0.583322
v 1.750000 0.057090 -0.712987
v 1.750000 0.014411 -0.853682
v 1.750000 0.000000 -1.000000
v 1.750000 0.014411 -1.146318
v 1.750000 0.057090 -1.287013
v 1.750000 0.126398 -1.416678
v 1.750000 0.219670 -1.530330
v 1.750000 0.333322 -1.623602
v 1.750000 0.462987 -1.692910
v 1.750000 0.603682 -1.735589
v 1.562500 0.750000 -0.250000
v 1.562500 0.750000 -1.750000
v 1.562500 0.603682 -0.264411
v 1.562500 0.462987 -0.307090
v 1.562500 0.333322 -0.376398
v 1.562500 0.219670 -0.469670
v 1.562500 0.126398 -0.583322
v 1.562500 0.057090 -0.712987
v 1.562500 0.014411 -0.853682
v 1.562500 0.000000 -1.000000
v 1.562500 0.014411 -1.146318
v 1.562500 0.057090 -1.287013
v 1.562500 0.126398 -1.416678
v 1.562500 0.219670 -1.530330
v 1.562500 0.333322 -1.623602
v 1.562500 0.462987 -1.692910
v 1.562500 0.603682 -1.735589
v 1.750000 0.750000 0.250000
v 1.750000 0.750000 1.750000
v 1.750000 0.603682 1.735589
v 1.750000 0.462987 1.692910
v 1.750000 0.333322 1.623602
v 1.750000 0.219670 1.530330
v 1.750000 0.126398 1.416678
v 1.750000 0.057090 1.287013
v 1.750000 0.014411 1.146318
v 1.750000 0.000000 1.000000
v 1.750000 0.014411 0.853682
v 1.750000 0.057090 0.712987
v 1.750000 0.126398 0.583322
v 1.750000 0.219670 0.469670
v 1.750000 0.333322 0.376398
v 1.750000 0.462987 0.307090
v 1.750000 0.603682 0.264411
v 1.562500 0.750000 1.750000
v 1.562500 0.750000 0.250000
v 1.562500 0.603682 1.735589
v 1.562500 0.462987 1.692910
v 1.562500 0.333322 1.623602
v 1.562500 0.219670 1.530330
v 1.562500 0.126398 1.416678
v 1.562500 0.057090 1.287013
v 1.562500 0.014411 1.146318
v 1.562500 0.000000 1.000000
v 1.562500 0.014411 0.853682
v 1.562500 0.057090 0.712987
v 1.562500 0.126398 0.583322
v 1.562500 0.219670 0.469670
v 1.562500 0.333322 0.376398
v 1.562500 0.462987 0.307090
v 1.562500 0.603682 0.264411
v -1.750000 0.750000 -0.250000
v -1.750000 0.750000 -1.750000
v -1.750000 0.603682 -1.735589
v -1.750000 0.462987 -1.692910
v -1.750000 0.333322 -1.623602
v -1.750000 0.219670 -1.530330
v -1.750000 0.126398 -1.416678
v -1.750000 0.057090 -1.287013
v -1.750000 0.014411 -1.146318
v -1.750000 0.000000 -1.000000
v -1.750000 0.014411 -0.853682
v -1.750000 0.057090 -0.712987
v -1.750000 0.126398 -0.583322
v -1.750000 0.219670 -0.469670
v -1.750000 0.333322 -0.376398
v -1.750000 0.462987 -0.307090
v -1.750000 0.603682 -0.264411
v -1.562500 0.750000 -1.750000
v -1.562500 0.750000 -0.250000
v -1.562500 0.603682 -1.735589
v -1.562500 0.462987 -1.692910
v -1.562500 0.333322 -1.623602
v -1.562500 0.219670 -1.530330
v -1.562500 0.126398 -1.416678
v -1.562500 0.057090 -1.287013
v -1.562500 0.014411 -1.146318
v -1.562500 0.000000 -1.000000
v -1.562500 0.014411 -0.853682
v -1.562500 0.057090 -0.712987
v -1.562500 0.126398 -0.583322
v -1.562500 0.219670 -0.469670
v -1.562500 0.333322 -0.376398
v -1.562500 0.462987 -0.307090
v -1.562500 0.603682 -0.264411
v -1.750000 0.750000 1.750000
v -1.750000 0.750000 0.250000
v -1.750000 0.603682 0.264411
v -1.750000 0.462987 0.307090
v -1.750000 0.333322 0.376398
v -1.750000 0.219670 0.469670
v -1.750000 0.126398 0.583322
v -1.750000 0.057090 0.712987
v -1.750000 0.014411 0.853682
v -1.750000 0.000000 1.000000
v -1.750000 0.014411 1.146318
v -1.750000 0.057090 1.287013
v -1.750000 0.126398 1.416678
v -1.750000 0.219670 1.530330
v -1.750000 0.333322 1.623602
v -1.750000 0.462987 1.692910
v -1.750000 0.603682 1.735589
v -1.562500 0.750000 0.250000
v -1.562500 0.750000 1.750000
v -1.562500 0.603682 0.264411
v -1.562500 0.462987 0.307090
v -1.562500 0.333322 0.376398
v -1.562500 0.219670 0.469670
v -1.562500 0.126398 0.583322
v -1.562500 0.057090 0.712987
v -1.562500 0.014411 0.853682
v -1.562500 0.000000 1.000000
v -1.562500 0.014411 1.146318
v -1.562500 0.057090 1.287013
v -1.562500 0.126398 1.416678
v -1.562500 0.219670 1.530330
v -1.562500 0.333322 1.623602
v -1.562500 0.462987 1.692910
v -1.562500 0.603682 1.735589
vn -1.0000 -0.0000 -0.0000
vn -0.0000 -0.0000 -1.0000
vn 1.0000 -0.0000 -0.0000
vn -0.0000 -0.0000 1.0000
vn -0.0000 -1.0000 -0.0000
vn -0.0000 1.0000 -0.0000
vn -0.0000 0.1709 0.9853
vn -0.0000 0.1709 -0.9853
vn -0.0000 -0.1709 0.9853
vn -0.0000 -0.1709 -0.9853
vn -0.0000 0.7730 -0.6344
vn -0.0000 0.6344 0.7730
vn -0.0000 0.8819 -0.4714
vn -0.0000 0.4714 0.8819
vn -0.0000 0.9569 -0.2903
vn -0.0000 0.2903 0.9569
vn -0.0000 0.9952 -0.0980
vn -0.0000 0.0980 -0.9952
vn -0.0000 0.0980 0.9952
vn -0.0000 0.9952 0.0980
vn -0.0000 0.2903 -0.9569
vn -0.0000 0.9569 0.2903
vn -0.0000 0.4714 -0.8819
vn -0.0000 0.8819 0.4714
vn -0.0000 0.6344 -0.7730
vn -0.0000 0.7730 0.6344
vt 0.360000 0.440000
vt 0.390000 0.440000
vt 0.390000 0.470000
vt 0.360000 0.470000
vt 0.390000 0.500000
vt 0.360000 0.500000
vt 0.390000 0.530000
vt 0.360000 0.530000
vt 0.390000 0.560000
vt 0.360000 0.560000
vt 0.125000 0.500000
vt 0.375000 0.500000
vt 0.375000 0.750000
vt 0.125000 0.750000
vt 0.000000 0.000000
s 0
usemtl Material
f 1/1/1 2/2/1 4/3/1 3/4/1
f 3/4/2 4/3/2 8/5/2 7/6/2
f 7/6/3 8/5/3 6/7/3 5/8/3
f 5/8/4 6/7/4 2/9/4 1/10/4
f 3/11/5 7/12/5 5/13/5 1/14/5
f 4/3/1 2/2/1 13/2/1 14/3/1
f 11/6/6 10/5/6 9/7/6 12/8/6
f 10/5/7 11/6/7 19/6/7 18/5/7
f 12/8/8 9/7/8 17/7/8 20/8/8
f 6/7/3 8/5/3 15/5/3 16/7/3
f 16/7/6 15/5/6 19/6/6 20/8/6
f 14/3/6 13/2/6 17/2/6 18/3/6
f 13/9/6 16/7/6 20/8/6 17/9/6
f 15/5/6 14/3/6 18/3/6 19/6/6
f 2/9/9 6/7/9 16/7/9 13/9/9
f 8/5/10 4/3/10 14/3/10 15/5/10
f 11/6/1 12/8/1 20/8/1 19/6/1
f 9/7/3 10/5/3 18/5/3 17/7/3
f 22/15/1 21/15/1 37/15/1 36/15/1 35/15/1 34/15/1 33/15/1 32/15/1 31/15/1 30/15/1 29/15/1 28/15/1 27/15/1 26/15/1 25/15/1 24/15/1 23/15/1
f 38/15/3 40/15/3 41/15/3 42/15/3 43/15/3 44/15/3 45/15/3 46/15/3 47/15/3 48/15/3 49/15/3 50/15/3 51/15/3 52/15/3 53/15/3 54/15/3 39/15/3
f 26/15/11 27/15/11 44/15/11 43/15/11
f 34/15/12 35/15/12 52/15/12 51/15/12
f 27/15/13 28/15/13 45/15/13 44/15/13
f 35/15/14 36/15/14 53/15/14 52/15/14
f 28/15/15 29/15/15 46/15/15 45/15/15
f 21/15/5 22/15/5 38/15/5 39/15/5
f 36/15/16 37/15/16 54/15/16 53/15/16
f 29/15/17 30/15/17 47/15/17 46/15/17
f 22/15/18 23/15/18 40/15/18 38/15/18
f 37/15/19 21/15/19 39/15/19 54/15/19
f 30/15/20 31/15/20 48/15/20 47/15/20
f 23/15/21 24/15/21 41/15/21 40/15/21
f 31/15/22 32/15/22 49/15/22 48/15/22
f 24/15/23 25/15/23 42/15/23 41/15/23
f 32/15/24 33/15/24 50/15/24 49/15/24
f 25/15/25 26/15/25 43/15/25 42/15/25
f 33/15/26 34/15/26 51/15/26 50/15/26
f 56/15/1 55/15/1 71/15/1 70/15/1 69/15/1 68/15/1 67/15/1 66/15/1 65/15/1 64/15/1 63/15/1 62/15/1 61/15/1 60/15/1 59/15/1 58/15/1 57/15/1
f 72/15/3 74/15/3 75/15/3 76/15/3 77/15/3 78/15/3 79/15/3 80/15/3 81/15/3 82/15/3 83/15/3 84/15/3 85/15/3 86/15/3 87/15/3 88/15/3 73/15/3
f 60/15/11 61/15/11 78/15/11 77/15/11
f 68/15/12 69/15/12 86/15/12 85/15/12
f 61/15/13 62/15/13 79/15/13 78/15/13
f 69/15/14 70/15/14 87/15/14 86/15/14
f 62/15/15 63/15/15 80/15/15 79/15/15
f 55/15/5 56/15/5 72/15/5 73/15/5
f 70/15/16 71/15/16 88/15/16 87/15/16
f 63/15/17 64/15/17 81/15/17 80/15/17
f 56/15/18 57/15/18 74/15/18 72/15/18
f 71/15/19 55/15/19 73/15/19 88/15/19
f 64/15/20 65/15/20 82/15/20 81/15/20
f 57/15/21 58/15/21 75/15/21 74/15/21
f 65/15/22 66/15/22 83/15/22 82/15/22
f 58/15/23 59/15/23 76/15/23 75/15/23
f 66/15/24 67/15/24 84/15/24 83/15/24
f 59/15/25 60/15/25 77/15/25 76/15/25
f 67/15/26 68/15/26 85/15/26 84/15/26
f 90/15/3 89/15/3 105/15/3 104/15/3 103/15/3 102/15/3 101/15/3 100/15/3 99/15/3 98/15/3 97/15/3 96/15/3 95/15/3 94/15/3 93/15/3 92/15/3 91/15/3
f 106/15/1 108/15/1 109/15/1 110/15/1 111/15/1 112/15/1 113/15/1 114/15/1 115/15/1 116/15/1 117/15/1 118/15/1 119/15/1 120/15/1 121/15/1 122/15/1 107/15/1
f 94/15/26 95/15/26 112/15/26 111/15/26
f 102/15/25 103/15/25 120/15/25 119/15/25
f 95/15/24 96/15/24 113/15/24 112/15/24
f 103/15/23 104/15/23 121/15/23 120/15/23
f 96/15/22 97/15/22 114/15/22 113/15/22
f 89/15/5 90/15/5 106/15/5 107/15/5
f 104/15/21 105/15/21 122/15/21 121/15/21
f 97/15/20 98/15/20 115/15/20 114/15/20
f 90/15/19 91/15/19 108/15/19 106/15/19
f 105/15/18 89/15/18 107/15/18 122/15/18
f 98/15/17 99/15/17 116/15/17 115/15/17
f 91/15/16 92/15/16 109/15/16 108/15/16
f 99/15/15 100/15/15 117/15/15 116/15/15
f 92/15/14 93/15/14 110/15/14 109/15/14
f 100/15/13 101/15/13 118/15/13 117/15/13
f 93/15/12 94/15/12 111/15/12 110/15/12
f 101/15/11 102/15/11 119/15/11 118/15/11
f 124/15/3 123/15/3 139/15/3 138/15/3 137/15/3 136/15/3 135/15/3 134/15/3 133/15/3 132/15/3 131/15/3 130/15/3 129/15/3 128/15/3 127/15/3 126/15/3 125/15/3
f 140/15/1 142/15/1 143/15/1 144/15/1 145/15/1 146/15/1 147/15/1 148/15/1 149/15/1 150/15/1 151/15/1 152/15/1 153/15/1 154/15/1 155/15/1 156/15/1 141/15/1
f 128/15/26 129/15/26 146/15/26 145/15/26
f 136/15/25 137/15/25 154/15/25 153/15/25
f 129/15/24 130/15/24 147/15/24 146/15/24
f 137/15/23 138/15/23 155/15/23 154/15/23
f 130/15/22 131/15/22 148/15/22 147/15/22
f 123/15/5 124/15/5 140/15/5 141/15/5
f 138/15/21 139/15/21 156/15/21 155/15/21
f 131/15/20 132/15/20 149/15/20 148/15/20
f 124/15/19 125/15/19 142/15/19 140/15/19
f 139/15/18 123/15/18 141/15/18 156/15/18
f 132/15/17 133/15/17 150/15/17 149/15/17
f 125/15/16 126/15/16 143/15/16 142/15/16
f 133/15/15 134/15/15 151/15/15 150/15/15
f 126/15/14 127/15/14 144/15/14 143/15/14
f 134/15/13 135/15/13 152/15/13 151/15/13
f 127/15/12 128/15/12 145/15/12 144/15/12
f 135/15/11 136/15/11 153/15/11 152/15/11
