# Blender 4.0.2
# www.blender.org
mtllib Rail.mtl
o Cube.001
v 1.500000 0.000000 1.500665
v 1.750000 0.250000 1.500665
v 1.500000 0.000000 -2.000000
v 1.750000 0.250000 2.500000
v 2.250000 0.000000 1.468750
v 2.000000 0.250000 1.500665
v 2.250000 0.000000 -2.000000
v 2.000000 0.250000 2.500000
v 1.500000 0.000000 0.250665
v 1.750000 0.250000 0.250665
v 1.750000 0.250000 -1.499335
v 1.500000 0.000000 -1.499335
v 1.750000 0.250000 -0.249335
v 1.500000 0.000000 -0.249335
v 1.750000 0.250000 -1.999335
v 1.500000 0.000000 -1.999335
v 2.000000 0.250000 -2.500000
v 2.250000 0.000000 -2.500000
v 1.500000 0.000000 -2.500000
v 2.250000 0.000000 2.000665
v 2.000000 0.250000 2.000665
v 1.750000 0.250000 2.000665
v 0.000000 0.000000 -0.249335
v 0.000000 0.000000 0.250665
v 0.000000 0.250000 0.250665
v 0.000000 0.000000 -1.999335
v 0.000000 0.000000 -1.499335
v 0.000000 0.250000 -1.499335
v 1.500000 0.000000 2.000665
v 0.000000 0.250000 -0.249335
v 1.750000 0.250000 -2.500000
v 0.000000 0.250000 -1.999335
v 0.000000 0.000000 1.500665
v 0.000000 0.250000 1.500665
v 0.000000 0.000000 2.000665
v 0.000000 0.250000 2.000665
v 2.250000 0.000000 -1.499335
v 2.000000 0.250000 -1.499335
v 2.000000 0.250000 0.250665
v 2.250000 0.000000 0.250665
v 2.250000 0.000000 -0.249335
v 2.000000 0.250000 -0.249335
v 2.250000 0.000000 -1.999335
v 2.000000 0.250000 -1.999335
v 2.225000 0.250000 2.000665
v 2.225000 0.250000 1.500665
v 2.500000 0.000000 1.500665
v 2.500000 0.000000 2.000665
v 2.225000 0.250000 -1.999335
v 2.225000 0.250000 -1.499335
v 2.500000 0.000000 -1.499335
v 2.225000 0.250000 -0.249335
v 2.225000 0.250000 0.250665
v 2.500000 0.000000 0.250665
v 2.500000 0.000000 -0.249335
v 2.500000 0.000000 -1.999335
v 1.500000 0.000000 2.500000
v 2.250000 0.000000 2.500000
v -1.500000 0.000000 1.500665
v -1.750000 0.250000 1.500665
v -1.500000 0.000000 -2.000000
v -1.750000 0.250000 2.500000
v -2.250000 0.000000 1.468750
v -2.000000 0.250000 1.500665
v -2.250000 0.000000 -2.000000
v -2.000000 0.250000 2.500000
v -1.500000 0.000000 0.250665
v -1.750000 0.250000 0.250665
v -1.750000 0.250000 -1.499335
v -1.500000 0.000000 -1.499335
v -1.750000 0.250000 -0.249335
v -1.500000 0.000000 -0.249335
v -1.750000 0.250000 -1.999335
v -1.500000 0.000000 -1.999335
v -2.000000 0.250000 -2.500000
v -2.250000 0.000000 -2.500000
v -1.500000 0.000000 -2.500000
v -2.250000 0.000000 2.000665
v -2.000000 0.250000 2.000665
v -1.750000 0.250000 2.000665
v -1.500000 0.000000 2.000665
v -1.750000 0.250000 -2.500000
v -2.250000 0.000000 -1.499335
v -2.000000 0.250000 -1.499335
v -2.000000 0.250000 0.250665
v -2.250000 0.000000 0.250665
v -2.250000 0.000000 -0.249335
v -2.000000 0.250000 -0.249335
v -2.250000 0.000000 -1.999335
v -2.000000 0.250000 -1.999335
v -2.225000 0.250000 2.000665
v -2.225000 0.250000 1.500665
v -2.500000 0.000000 1.500665
v -2.500000 0.000000 2.000665
v -2.225000 0.250000 -1.999335
v -2.225000 0.250000 -1.499335
v -2.500000 0.000000 -1.499335
v -2.225000 0.250000 -0.249335
v -2.225000 0.250000 0.250665
v -2.500000 0.000000 0.250665
v -2.500000 0.000000 -0.249335
v -2.500000 0.000000 -1.999335
v -1.500000 0.000000 2.500000
v -2.250000 0.000000 2.500000
vn -0.0000 1.0000 -0.0000
vn 0.7071 0.7071 -0.0000
vn -0.7071 0.7071 -0.0000
vn -0.0000 -1.0000 -0.0000
vn -0.0000 -0.0000 -1.0000
vn -0.0000 -0.0000 1.0000
vn 0.6727 0.7399 -0.0000
vn 0.0664 0.1329 -0.9889
vn -0.6727 0.7399 -0.0000
vn -0.0664 0.1329 -0.9889
vt 0.365159 0.100150
vt 0.365159 0.200146
vt 0.365159 0.450135
vt 0.365159 0.550131
vt 0.365159 0.800120
vt 0.352660 0.800120
vt 0.352660 0.550131
vt 0.352660 0.450135
vt 0.352660 0.200146
vt 0.352660 0.100150
vt 0.352660 0.000022
vt 0.365159 0.000022
vt 0.334983 0.100150
vt 0.334983 0.100018
vt 0.334983 0.000022
vt 0.334983 0.550131
vt 0.334983 0.793737
vt 0.365159 0.900115
vt 0.352660 0.900115
vt 0.382836 0.900115
vt 0.382836 0.999978
vt 0.365159 0.999978
vt 0.382836 0.200146
vt 0.382836 0.450135
vt 0.382836 0.800120
vt 0.382836 0.550131
vt 0.000000 0.000000
vt 0.375000 0.250000
vt 0.625000 0.250000
vt 0.625000 0.500000
vt 0.375000 0.500000
vt 0.375000 0.750000
vt 0.625000 0.750000
vt 0.625000 1.000000
vt 0.375000 1.000000
vt 0.875000 0.750000
vt 0.625000 0.562500
vt 0.375000 0.562500
vt 0.875000 0.562500
vt 0.875000 0.531250
vt 0.352660 0.999978
vt 0.875000 0.687500
vt 0.875000 0.656250
vt 0.375000 0.062500
vt 0.625000 0.062500
vt 0.625000 0.218750
vt 0.375000 0.218750
vt 0.625000 0.093750
vt 0.375000 0.093750
vt 0.375000 0.187500
vt 0.625000 0.187500
vt 0.625000 0.687500
vt 0.375000 0.687500
vt 0.375000 0.656250
vt 0.625000 0.656250
vt 0.334983 0.900115
vt 0.334983 0.999978
vt 0.375000 0.531250
vt 0.625000 0.531250
vt 0.334983 0.450135
vt 0.334983 0.200146
vt 0.382836 0.000022
vt 0.382836 0.100017
vt 0.382836 0.100150
s 0
usemtl Material
f 15/1/1 11/2/1 13/3/1 10/4/1 2/5/1 6/6/1 39/7/1 42/8/1 38/9/1 44/10/1 17/11/1 31/12/1
f 17/11/2 44/10/2 43/13/2 7/14/2 18/15/2
f 40/16/2 39/7/2 6/6/2 5/17/2
f 6/6/1 2/5/1 22/18/1 21/19/1
f 22/18/3 29/20/3 57/21/3 4/22/3
f 13/3/3 11/2/3 12/23/3 14/24/3
f 1/25/3 2/5/3 10/4/3 9/26/3
f 7/27/4 3/27/4 19/27/4 18/27/4
f 19/28/5 31/29/5 17/30/5 18/31/5
f 58/32/6 8/33/6 4/34/6 57/35/6
f 2/36/5 1/35/5 33/35/5 34/36/5
f 22/36/1 2/36/1 34/36/1 36/36/1
f 29/27/4 20/27/4 58/27/4 57/27/4
f 38/37/6 37/38/6 51/38/6 50/37/6
f 11/39/1 15/40/1 32/40/1 28/39/1
f 21/19/1 22/18/1 4/22/1 8/41/1
f 10/42/1 13/43/1 30/43/1 25/42/1
f 9/44/6 10/45/6 25/45/6 24/44/6
f 15/46/5 16/47/5 26/47/5 32/46/5
f 13/48/5 14/49/5 23/49/5 30/48/5
f 1/27/4 5/27/4 20/27/4 29/27/4
f 29/35/6 22/34/6 36/34/6 35/35/6
f 12/50/6 11/51/6 28/51/6 27/50/6
f 39/52/6 40/53/6 54/53/6 53/52/6
f 41/54/5 42/55/5 52/55/5 55/54/5
f 20/56/2 21/19/2 8/41/2 58/57/2
f 47/32/7 46/33/7 45/33/7 48/32/7
f 56/58/7 49/59/7 50/37/7 51/38/7
f 55/54/7 52/55/7 53/52/7 54/53/7
f 37/27/4 43/27/4 56/27/4 51/27/4
f 20/27/4 5/27/4 47/27/4 48/27/4
f 5/32/8 6/33/8 46/33/8 47/32/8
f 40/27/4 41/27/4 55/27/4 54/27/4
f 42/55/1 39/52/1 53/52/1 52/55/1
f 6/33/1 21/33/1 45/33/1 46/33/1
f 21/33/6 20/32/6 48/32/6 45/33/6
f 43/58/5 44/59/5 49/59/5 56/58/5
f 44/59/1 38/37/1 50/37/1 49/59/1
f 38/9/2 42/8/2 41/60/2 37/61/2
f 15/1/3 31/12/3 19/62/3 3/63/3 16/64/3
f 73/1/1 82/12/1 75/11/1 90/10/1 84/9/1 88/8/1 85/7/1 64/6/1 60/5/1 68/4/1 71/3/1 69/2/1
f 75/11/3 76/15/3 65/14/3 89/13/3 90/10/3
f 86/16/3 63/17/3 64/6/3 85/7/3
f 64/6/1 79/19/1 80/18/1 60/5/1
f 80/18/2 62/22/2 103/21/2 81/20/2
f 71/3/2 72/24/2 70/23/2 69/2/2
f 59/25/2 67/26/2 68/4/2 60/5/2
f 65/27/4 76/27/4 77/27/4 61/27/4
f 77/28/5 76/31/5 75/30/5 82/29/5
f 104/32/6 103/35/6 62/34/6 66/33/6
f 60/36/5 34/36/5 33/35/5 59/35/5
f 80/36/1 36/36/1 34/36/1 60/36/1
f 81/27/4 103/27/4 104/27/4 78/27/4
f 84/37/6 96/37/6 97/38/6 83/38/6
f 69/39/1 28/39/1 32/40/1 73/40/1
f 79/19/1 66/41/1 62/22/1 80/18/1
f 68/42/1 25/42/1 30/43/1 71/43/1
f 67/44/6 24/44/6 25/45/6 68/45/6
f 73/46/5 32/46/5 26/47/5 74/47/5
f 71/48/5 30/48/5 23/49/5 72/49/5
f 59/27/4 81/27/4 78/27/4 63/27/4
f 81/35/6 35/35/6 36/34/6 80/34/6
f 70/50/6 27/50/6 28/51/6 69/51/6
f 85/52/6 99/52/6 100/53/6 86/53/6
f 87/54/5 101/54/5 98/55/5 88/55/5
f 78/56/3 104/57/3 66/41/3 79/19/3
f 93/32/9 94/32/9 91/33/9 92/33/9
f 102/58/9 97/38/9 96/37/9 95/59/9
f 101/54/9 100/53/9 99/52/9 98/55/9
f 83/27/4 97/27/4 102/27/4 89/27/4
f 78/27/4 94/27/4 93/27/4 63/27/4
f 63/32/10 93/32/10 92/33/10 64/33/10
f 86/27/4 100/27/4 101/27/4 87/27/4
f 88/55/1 98/55/1 99/52/1 85/52/1
f 64/33/1 92/33/1 91/33/1 79/33/1
f 79/33/6 91/33/6 94/32/6 78/32/6
f 89/58/5 102/58/5 95/59/5 90/59/5
f 90/59/1 95/59/1 96/37/1 84/37/1
f 84/9/3 83/61/3 87/60/3 88/8/3
f 73/1/2 74/64/2 61/63/2 77/62/2 82/12/2
