# Blender 4.0.2
# www.blender.org
mtllib Railcurve.mtl
o Cube.002
v 1.750000 0.250000 2.500000
v 2.000000 0.250000 2.500000
v 1.500000 0.000000 2.500000
v 2.250000 0.000000 2.500000
v -1.750000 0.250000 2.500000
v -2.000000 0.250000 2.500000
v -1.500000 0.000000 2.500000
v -2.250000 0.000000 2.500000
v -2.500000 0.250000 3.250000
v -2.500000 0.250000 3.000000
v -2.500000 0.000000 3.500000
v -2.500000 0.000000 2.750000
v -2.500000 0.250000 6.750000
v -2.500000 0.250000 7.000000
v -2.500000 0.000000 6.500000
v -2.500000 0.000000 7.250000
v -2.250000 0.000000 2.500000
v -2.500000 0.000000 2.750000
v 0.500000 0.000000 5.500000
v 0.625000 0.250000 5.625000
v 0.750000 0.250000 5.750000
v 0.875000 0.000000 5.875000
v 1.500000 0.000000 3.500000
v 1.687500 0.250000 3.562500
v 1.875000 0.250000 3.625000
v 2.062500 0.000000 3.687500
v -1.500000 0.000000 6.500000
v -1.437500 0.250000 6.687500
v -1.375000 0.250000 6.875000
v -1.312500 0.000000 7.062500
v 0.485825 0.001397 5.135496
v 0.662601 0.251397 5.312273
v 1.038722 0.001397 5.643259
v 0.839378 0.251397 5.489049
v 0.662601 0.001397 6.019379
v 0.485825 0.251397 5.842603
v 0.309048 0.251397 5.665826
v 0.132271 0.001397 5.489049
v -0.574836 0.001397 4.074836
v -0.574836 0.251397 4.074836
v -0.928389 0.001397 4.428389
v -0.928389 0.251397 4.428389
v 0.644923 0.251397 6.001701
v 0.998477 0.251397 5.648148
v 1.192932 0.001397 5.842603
v 0.839378 0.001397 6.196156
v -1.635496 0.001397 3.014175
v -1.812273 0.251397 2.837399
v -2.143259 0.001397 2.461278
v -1.989049 0.251397 2.660622
v -2.519379 0.001397 2.837399
v -2.342603 0.251397 3.014175
v -2.165826 0.251397 3.190952
v -1.989049 0.001397 3.367729
v -2.501701 0.251397 2.855077
v -2.148148 0.251397 2.501523
v -2.342603 0.001397 2.307068
v -2.696156 0.001397 2.660622
v -1.307410 0.005941 6.238500
v -1.263998 0.255941 6.484701
v -1.145743 0.005941 6.971563
v -1.220586 0.255941 6.730904
v -1.669577 0.005941 7.063930
v -1.712990 0.255941 6.817728
v -1.756402 0.255941 6.571526
v -1.799814 0.005941 6.325324
v -1.567882 0.005941 4.761288
v -1.567882 0.255941 4.761288
v -2.060286 0.005941 4.848112
v -2.060286 0.255941 4.848112
v -1.673919 0.255941 7.039310
v -1.181515 0.255941 6.952485
v -1.133761 0.005941 7.223308
v -1.626165 0.005941 7.310132
v -1.828354 0.005941 3.284076
v -1.871766 0.255941 3.037875
v -1.915179 0.255941 2.791673
v -2.407582 0.255941 2.878497
v -2.364170 0.255941 3.124699
v -2.320758 0.005941 3.370901
v 1.340235 0.015376 2.898561
v 1.589284 0.265376 2.920350
v 2.090163 0.015376 2.932134
v 1.838333 0.265376 2.942139
v 2.043803 0.015376 3.462025
v 1.794755 0.265376 3.440236
v 1.545706 0.265376 3.418447
v 1.296657 0.015376 3.396658
v -0.154057 0.015376 2.767828
v -0.154057 0.265376 2.767828
v -0.197635 0.015376 3.265925
v -0.197635 0.265376 3.265925
v 2.018898 0.265376 3.459846
v 2.062477 0.265376 2.961749
v 2.336430 0.015376 2.985717
v 2.292852 0.015376 3.483814
v -1.648349 0.015376 2.637094
v -1.897398 0.265376 2.615305
v -2.146446 0.265376 2.593516
v -2.190024 0.265376 3.091613
v -1.940975 0.265376 3.113402
v -1.691927 0.015376 3.135191
vn 0.5774 0.5774 0.5774
vn -0.0000 1.0000 -0.0000
vn -0.5774 0.5774 -0.5773
vn -0.0228 0.6599 -0.7510
vn 0.1003 0.6623 0.7425
vn 0.7125 0.5886 0.3821
vn -0.7212 0.5881 -0.3661
vn -0.7510 0.6599 -0.0228
vn 0.7425 0.6623 0.1003
vn 0.3821 0.5886 0.7125
vn -0.3661 0.5881 -0.7212
vn 0.7071 -0.0000 -0.7071
vn -0.7071 -0.0000 0.7071
vn 0.4757 0.7399 0.4757
vn 0.7462 0.1329 -0.6523
vn -0.4757 0.7399 -0.4757
vn 0.6523 0.1329 -0.7462
vn 0.7278 0.0637 -0.6828
vn 0.6828 0.0637 -0.7278
vn 0.9848 -0.0000 -0.1736
vn -0.9848 -0.0000 0.1736
vn 0.1168 0.7399 0.6625
vn 0.9854 0.1329 -0.1063
vn 0.0872 -0.0000 -0.9962
vn -0.0872 -0.0000 0.9962
vn 0.6701 0.7399 0.0586
vn 0.1524 0.1329 -0.9793
vn 0.9768 0.0637 -0.2046
vn 0.0552 0.0637 -0.9964
vt 0.377383 0.175429
vt 0.377383 0.025090
vt 0.388233 0.000033
vt 0.388233 0.200485
vt 0.371119 0.150372
vt 0.371119 0.050146
vt 0.360269 0.125316
vt 0.360269 0.075203
vt 0.324891 0.177458
vt 0.314229 0.193016
vt 0.294955 0.074586
vt 0.305423 0.047328
vt 0.312567 0.027700
vt 0.331351 0.168632
vt 0.342243 0.153780
vt 0.323361 0.000033
vt 0.342243 0.846220
vt 0.331351 0.831368
vt 0.349329 0.500000
vt 0.360203 0.500000
vt 0.324891 0.822542
vt 0.343051 0.500000
vt 0.314229 0.806984
vt 0.332364 0.500000
vt 0.305423 0.952672
vt 0.294955 0.925414
vt 0.312567 0.972300
vt 0.323361 0.999967
vt 0.794395 0.109693
vt 0.795561 0.154612
vt 0.771876 0.154215
vt 0.773264 0.108522
vt 0.808055 0.199568
vt 0.808055 0.499048
vt 0.795585 0.498726
vt 0.770424 0.497956
vt 0.759153 0.198220
vt 0.757985 0.497636
vt 0.797488 0.000064
vt 0.793244 0.074195
vt 0.774368 0.070433
vt 0.769668 0.003280
vt 0.804475 0.055548
vt 0.763543 0.053802
vt 0.793351 0.887890
vt 0.772243 0.887348
vt 0.770898 0.841498
vt 0.794567 0.843005
vt 0.807097 0.798980
vt 0.758203 0.796518
vt 0.797212 0.990626
vt 0.769477 0.999936
vt 0.773393 0.925056
vt 0.792247 0.923948
vt 0.803036 0.940069
vt 0.762086 0.944370
vt 0.871737 0.777087
vt 0.870509 0.732974
vt 0.893680 0.732496
vt 0.892954 0.777227
vt 0.858148 0.689061
vt 0.857642 0.394414
vt 0.869932 0.394254
vt 0.894631 0.394188
vt 0.906175 0.688872
vt 0.906912 0.394438
vt 0.868730 0.884990
vt 0.872917 0.812177
vt 0.891656 0.815939
vt 0.896012 0.882695
vt 0.861886 0.830605
vt 0.902276 0.833562
vt 0.869977 0.000064
vt 0.894638 0.000105
vt 0.894633 0.049427
vt 0.869972 0.049386
vt 0.857642 0.098688
vt 0.906955 0.098751
vt 0.822852 0.777686
vt 0.821439 0.732594
vt 0.844719 0.733349
vt 0.843610 0.777470
vt 0.808877 0.688598
vt 0.808183 0.394466
vt 0.820459 0.394247
vt 0.845176 0.394481
vt 0.856972 0.689816
vt 0.857480 0.394657
vt 0.820494 0.888682
vt 0.824067 0.814818
vt 0.842600 0.812891
vt 0.847731 0.878115
vt 0.812867 0.834223
vt 0.853130 0.828350
vt 0.820521 0.000064
vt 0.845190 0.000096
vt 0.845186 0.049435
vt 0.820517 0.049403
vt 0.808183 0.098717
vt 0.857514 0.098778
s 0
usemtl Material
f 5/1/1 9/2/1 11/3/1 7/4/1
f 5/1/2 6/5/2 10/6/2 9/2/2
f 8/7/3 12/8/3 10/6/3 6/5/3
f 28/9/4 27/10/4 15/11/4 13/12/4
f 28/9/2 13/12/2 14/13/2 29/14/2
f 30/15/5 29/14/5 14/13/5 16/16/5
f 26/17/6 25/18/6 21/19/6 22/20/6
f 24/21/2 20/22/2 21/19/2 25/18/2
f 24/21/7 23/23/7 19/24/7 20/22/7
f 1/25/8 3/26/8 23/23/8 24/21/8
f 1/25/2 24/21/2 25/18/2 2/27/2
f 4/28/9 2/27/9 25/18/9 26/17/9
f 22/20/10 21/19/10 29/14/10 30/15/10
f 20/22/2 28/9/2 29/14/2 21/19/2
f 20/22/11 19/24/11 27/10/11 28/9/11
f 34/29/2 32/30/2 37/31/2 36/32/2
f 32/30/12 31/33/12 39/34/12 40/35/12
f 37/31/2 32/30/2 40/35/2 42/36/2
f 38/37/13 37/31/13 42/36/13 41/38/13
f 45/39/14 44/40/14 43/41/14 46/42/14
f 33/43/15 34/29/15 44/40/15 45/39/15
f 34/29/2 36/32/2 43/41/2 44/40/2
f 36/32/13 35/44/13 46/42/13 43/41/13
f 50/45/2 52/46/2 53/47/2 48/48/2
f 48/48/12 40/35/12 39/34/12 47/49/12
f 53/47/2 42/36/2 40/35/2 48/48/2
f 54/50/13 41/38/13 42/36/13 53/47/13
f 57/51/16 58/52/16 55/53/16 56/54/16
f 49/55/17 57/51/17 56/54/17 50/45/17
f 50/45/2 56/54/2 55/53/2 52/46/2
f 52/46/13 55/53/13 58/52/13 51/56/13
f 53/47/13 52/46/13 51/56/13 54/50/13
f 47/49/18 49/55/18 50/45/18 48/48/18
f 31/33/19 32/30/19 34/29/19 33/43/19
f 37/31/13 38/37/13 35/44/13 36/32/13
f 62/57/2 60/58/2 65/59/2 64/60/2
f 60/58/20 59/61/20 67/62/20 68/63/20
f 65/59/2 60/58/2 68/63/2 70/64/2
f 66/65/21 65/59/21 70/64/21 69/66/21
f 73/67/22 72/68/22 71/69/22 74/70/22
f 61/71/23 62/57/23 72/68/23 73/67/23
f 62/57/2 64/60/2 71/69/2 72/68/2
f 64/60/21 63/72/21 74/70/21 71/69/21
f 77/73/2 78/74/2 79/75/2 76/76/2
f 76/76/20 68/63/20 67/62/20 75/77/20
f 79/75/2 70/64/2 68/63/2 76/76/2
f 80/78/21 69/66/21 70/64/21 79/75/21
f 84/79/2 82/80/2 87/81/2 86/82/2
f 82/80/24 81/83/24 89/84/24 90/85/24
f 87/81/2 82/80/2 90/85/2 92/86/2
f 88/87/25 87/81/25 92/86/25 91/88/25
f 95/89/26 94/90/26 93/91/26 96/92/26
f 83/93/27 84/79/27 94/90/27 95/89/27
f 84/79/2 86/82/2 93/91/2 94/90/2
f 86/82/25 85/94/25 96/92/25 93/91/25
f 99/95/2 100/96/2 101/97/2 98/98/2
f 98/98/24 90/85/24 89/84/24 97/99/24
f 101/97/2 92/86/2 90/85/2 98/98/2
f 102/100/25 91/88/25 92/86/25 101/97/25
f 59/61/28 60/58/28 62/57/28 61/71/28
f 65/59/21 66/65/21 63/72/21 64/60/21
f 87/81/25 88/87/25 85/94/25 86/82/25
f 81/83/29 82/80/29 84/79/29 83/93/29
l 18 12
l 8 17
